{"glyphs":{"0":{"ha":1241,"x_min":122,"x_max":1119,"o":"m 122 997 l 1119 997 l 1119 0 l 122 0 l 122 997 m 574 260 l 606 184 l 735 184 q 882 224 829 184 q 935 338 935 263 q 906 434 935 394 q 821 491 878 473 q 886 548 860 514 q 912 629 912 582 q 898 691 912 664 q 859 736 884 718 q 795 764 833 754 q 712 773 758 773 l 621 773 l 613 812 l 299 812 l 299 260 l 574 260 m 420 605 l 420 699 l 589 699 l 606 659 l 691 659 q 728 653 713 659 q 751 637 743 646 q 763 617 760 627 q 766 597 766 606 q 763 574 766 586 q 752 552 760 562 q 731 536 745 543 q 699 530 718 530 l 628 530 l 613 605 l 420 605 m 582 491 l 606 427 l 720 427 q 758 422 743 427 q 782 409 773 417 q 794 390 791 401 q 798 368 798 379 q 794 345 798 357 q 783 322 791 332 q 761 305 774 312 q 727 298 747 298 l 628 298 l 613 375 l 420 375 l 420 491 l 582 491 z "},"1":{"ha":1241,"x_min":122,"x_max":1119,"o":"m 122 997 l 1119 997 l 1119 0 l 122 0 l 122 997 m 574 260 l 606 184 l 735 184 q 882 224 829 184 q 935 338 935 263 q 906 434 935 394 q 821 491 878 473 q 886 548 860 514 q 912 629 912 582 q 898 691 912 664 q 859 736 884 718 q 795 764 833 754 q 712 773 758 773 l 621 773 l 613 812 l 299 812 l 299 260 l 574 260 m 420 605 l 420 699 l 589 699 l 606 659 l 691 659 q 728 653 713 659 q 751 637 743 646 q 763 617 760 627 q 766 597 766 606 q 763 574 766 586 q 752 552 760 562 q 731 536 745 543 q 699 530 718 530 l 628 530 l 613 605 l 420 605 m 582 491 l 606 427 l 720 427 q 758 422 743 427 q 782 409 773 417 q 794 390 791 401 q 798 368 798 379 q 794 345 798 357 q 783 322 791 332 q 761 305 774 312 q 727 298 747 298 l 628 298 l 613 375 l 420 375 l 420 491 l 582 491 z "},"2":{"ha":1241,"x_min":122,"x_max":1119,"o":"m 122 997 l 1119 997 l 1119 0 l 122 0 l 122 997 m 574 260 l 606 184 l 735 184 q 882 224 829 184 q 935 338 935 263 q 906 434 935 394 q 821 491 878 473 q 886 548 860 514 q 912 629 912 582 q 898 691 912 664 q 859 736 884 718 q 795 764 833 754 q 712 773 758 773 l 621 773 l 613 812 l 299 812 l 299 260 l 574 260 m 420 605 l 420 699 l 589 699 l 606 659 l 691 659 q 728 653 713 659 q 751 637 743 646 q 763 617 760 627 q 766 597 766 606 q 763 574 766 586 q 752 552 760 562 q 731 536 745 543 q 699 530 718 530 l 628 530 l 613 605 l 420 605 m 582 491 l 606 427 l 720 427 q 758 422 743 427 q 782 409 773 417 q 794 390 791 401 q 798 368 798 379 q 794 345 798 357 q 783 322 791 332 q 761 305 774 312 q 727 298 747 298 l 628 298 l 613 375 l 420 375 l 420 491 l 582 491 z "},"3":{"ha":1241,"x_min":122,"x_max":1119,"o":"m 122 997 l 1119 997 l 1119 0 l 122 0 l 122 997 m 574 260 l 606 184 l 735 184 q 882 224 829 184 q 935 338 935 263 q 906 434 935 394 q 821 491 878 473 q 886 548 860 514 q 912 629 912 582 q 898 691 912 664 q 859 736 884 718 q 795 764 833 754 q 712 773 758 773 l 621 773 l 613 812 l 299 812 l 299 260 l 574 260 m 420 605 l 420 699 l 589 699 l 606 659 l 691 659 q 728 653 713 659 q 751 637 743 646 q 763 617 760 627 q 766 597 766 606 q 763 574 766 586 q 752 552 760 562 q 731 536 745 543 q 699 530 718 530 l 628 530 l 613 605 l 420 605 m 582 491 l 606 427 l 720 427 q 758 422 743 427 q 782 409 773 417 q 794 390 791 401 q 798 368 798 379 q 794 345 798 357 q 783 322 791 332 q 761 305 774 312 q 727 298 747 298 l 628 298 l 613 375 l 420 375 l 420 491 l 582 491 z "},"4":{"ha":1241,"x_min":122,"x_max":1119,"o":"m 122 997 l 1119 997 l 1119 0 l 122 0 l 122 997 m 574 260 l 606 184 l 735 184 q 882 224 829 184 q 935 338 935 263 q 906 434 935 394 q 821 491 878 473 q 886 548 860 514 q 912 629 912 582 q 898 691 912 664 q 859 736 884 718 q 795 764 833 754 q 712 773 758 773 l 621 773 l 613 812 l 299 812 l 299 260 l 574 260 m 420 605 l 420 699 l 589 699 l 606 659 l 691 659 q 728 653 713 659 q 751 637 743 646 q 763 617 760 627 q 766 597 766 606 q 763 574 766 586 q 752 552 760 562 q 731 536 745 543 q 699 530 718 530 l 628 530 l 613 605 l 420 605 m 582 491 l 606 427 l 720 427 q 758 422 743 427 q 782 409 773 417 q 794 390 791 401 q 798 368 798 379 q 794 345 798 357 q 783 322 791 332 q 761 305 774 312 q 727 298 747 298 l 628 298 l 613 375 l 420 375 l 420 491 l 582 491 z "},"5":{"ha":1241,"x_min":122,"x_max":1119,"o":"m 122 997 l 1119 997 l 1119 0 l 122 0 l 122 997 m 574 260 l 606 184 l 735 184 q 882 224 829 184 q 935 338 935 263 q 906 434 935 394 q 821 491 878 473 q 886 548 860 514 q 912 629 912 582 q 898 691 912 664 q 859 736 884 718 q 795 764 833 754 q 712 773 758 773 l 621 773 l 613 812 l 299 812 l 299 260 l 574 260 m 420 605 l 420 699 l 589 699 l 606 659 l 691 659 q 728 653 713 659 q 751 637 743 646 q 763 617 760 627 q 766 597 766 606 q 763 574 766 586 q 752 552 760 562 q 731 536 745 543 q 699 530 718 530 l 628 530 l 613 605 l 420 605 m 582 491 l 606 427 l 720 427 q 758 422 743 427 q 782 409 773 417 q 794 390 791 401 q 798 368 798 379 q 794 345 798 357 q 783 322 791 332 q 761 305 774 312 q 727 298 747 298 l 628 298 l 613 375 l 420 375 l 420 491 l 582 491 z "},"6":{"ha":1241,"x_min":122,"x_max":1119,"o":"m 122 997 l 1119 997 l 1119 0 l 122 0 l 122 997 m 574 260 l 606 184 l 735 184 q 882 224 829 184 q 935 338 935 263 q 906 434 935 394 q 821 491 878 473 q 886 548 860 514 q 912 629 912 582 q 898 691 912 664 q 859 736 884 718 q 795 764 833 754 q 712 773 758 773 l 621 773 l 613 812 l 299 812 l 299 260 l 574 260 m 420 605 l 420 699 l 589 699 l 606 659 l 691 659 q 728 653 713 659 q 751 637 743 646 q 763 617 760 627 q 766 597 766 606 q 763 574 766 586 q 752 552 760 562 q 731 536 745 543 q 699 530 718 530 l 628 530 l 613 605 l 420 605 m 582 491 l 606 427 l 720 427 q 758 422 743 427 q 782 409 773 417 q 794 390 791 401 q 798 368 798 379 q 794 345 798 357 q 783 322 791 332 q 761 305 774 312 q 727 298 747 298 l 628 298 l 613 375 l 420 375 l 420 491 l 582 491 z "},"7":{"ha":1241,"x_min":122,"x_max":1119,"o":"m 122 997 l 1119 997 l 1119 0 l 122 0 l 122 997 m 574 260 l 606 184 l 735 184 q 882 224 829 184 q 935 338 935 263 q 906 434 935 394 q 821 491 878 473 q 886 548 860 514 q 912 629 912 582 q 898 691 912 664 q 859 736 884 718 q 795 764 833 754 q 712 773 758 773 l 621 773 l 613 812 l 299 812 l 299 260 l 574 260 m 420 605 l 420 699 l 589 699 l 606 659 l 691 659 q 728 653 713 659 q 751 637 743 646 q 763 617 760 627 q 766 597 766 606 q 763 574 766 586 q 752 552 760 562 q 731 536 745 543 q 699 530 718 530 l 628 530 l 613 605 l 420 605 m 582 491 l 606 427 l 720 427 q 758 422 743 427 q 782 409 773 417 q 794 390 791 401 q 798 368 798 379 q 794 345 798 357 q 783 322 791 332 q 761 305 774 312 q 727 298 747 298 l 628 298 l 613 375 l 420 375 l 420 491 l 582 491 z "},"8":{"ha":1241,"x_min":122,"x_max":1119,"o":"m 122 997 l 1119 997 l 1119 0 l 122 0 l 122 997 m 574 260 l 606 184 l 735 184 q 882 224 829 184 q 935 338 935 263 q 906 434 935 394 q 821 491 878 473 q 886 548 860 514 q 912 629 912 582 q 898 691 912 664 q 859 736 884 718 q 795 764 833 754 q 712 773 758 773 l 621 773 l 613 812 l 299 812 l 299 260 l 574 260 m 420 605 l 420 699 l 589 699 l 606 659 l 691 659 q 728 653 713 659 q 751 637 743 646 q 763 617 760 627 q 766 597 766 606 q 763 574 766 586 q 752 552 760 562 q 731 536 745 543 q 699 530 718 530 l 628 530 l 613 605 l 420 605 m 582 491 l 606 427 l 720 427 q 758 422 743 427 q 782 409 773 417 q 794 390 791 401 q 798 368 798 379 q 794 345 798 357 q 783 322 791 332 q 761 305 774 312 q 727 298 747 298 l 628 298 l 613 375 l 420 375 l 420 491 l 582 491 z "},"9":{"ha":1241,"x_min":122,"x_max":1119,"o":"m 122 997 l 1119 997 l 1119 0 l 122 0 l 122 997 m 574 260 l 606 184 l 735 184 q 882 224 829 184 q 935 338 935 263 q 906 434 935 394 q 821 491 878 473 q 886 548 860 514 q 912 629 912 582 q 898 691 912 664 q 859 736 884 718 q 795 764 833 754 q 712 773 758 773 l 621 773 l 613 812 l 299 812 l 299 260 l 574 260 m 420 605 l 420 699 l 589 699 l 606 659 l 691 659 q 728 653 713 659 q 751 637 743 646 q 763 617 760 627 q 766 597 766 606 q 763 574 766 586 q 752 552 760 562 q 731 536 745 543 q 699 530 718 530 l 628 530 l 613 605 l 420 605 m 582 491 l 606 427 l 720 427 q 758 422 743 427 q 782 409 773 417 q 794 390 791 401 q 798 368 798 379 q 794 345 798 357 q 783 322 791 332 q 761 305 774 312 q 727 298 747 298 l 628 298 l 613 375 l 420 375 l 420 491 l 582 491 z "},"\u0000":{"ha":0,"x_min":0,"x_max":0,"o":""},"\r":{"ha":347,"x_min":0,"x_max":0,"o":""}," ":{"ha":361,"x_min":0,"x_max":0,"o":""},"A":{"ha":1001,"x_min":9,"x_max":993,"o":"m 9 0 l 321 997 l 680 997 l 993 0 l 765 0 l 694 229 l 307 229 l 236 0 l 9 0 m 643 404 l 500 867 l 358 404 l 643 404 z "},"B":{"ha":948,"x_min":83,"x_max":909,"o":"m 83 997 l 526 997 q 800 934 711 997 q 889 744 889 871 q 843 597 889 654 q 699 515 797 540 q 858 426 806 490 q 909 263 909 363 q 818 66 909 132 q 534 0 726 0 l 83 0 l 83 997 m 483 587 q 572 594 535 587 q 631 616 608 601 q 664 653 654 631 q 675 707 675 676 q 664 760 675 738 q 631 797 654 783 q 571 819 608 812 q 483 826 535 826 l 300 826 l 300 587 l 483 587 m 495 171 q 589 179 550 171 q 652 203 627 186 q 687 244 676 219 q 699 302 699 269 q 687 361 699 336 q 652 401 676 385 q 589 426 627 418 q 495 433 550 433 l 300 433 l 300 171 l 495 171 z "},"C":{"ha":990,"x_min":43,"x_max":957,"o":"m 532 1011 q 800 941 696 1011 q 957 736 903 871 l 793 646 q 738 731 766 696 q 678 789 709 766 q 610 821 646 811 q 531 831 574 831 q 417 809 467 831 q 333 745 367 787 q 281 641 299 703 q 264 498 264 578 q 281 356 264 418 q 333 252 299 294 q 415 187 366 209 q 528 165 465 165 q 607 175 570 165 q 674 208 643 185 q 734 266 706 230 q 790 351 763 301 l 954 260 q 888 141 927 193 q 797 55 849 90 q 677 3 744 20 q 528 -15 610 -15 q 325 21 415 -15 q 173 123 235 57 q 76 285 110 190 q 43 498 43 380 q 77 712 43 617 q 174 873 111 807 q 327 976 237 940 q 532 1011 418 1011 z "},"D":{"ha":1019,"x_min":83,"x_max":981,"o":"m 83 997 l 497 997 q 700 963 610 997 q 852 864 790 928 q 948 708 915 800 q 981 498 981 615 q 948 290 981 382 q 852 133 915 197 q 700 34 790 68 q 497 0 610 0 l 83 0 l 83 997 m 498 178 q 694 259 628 178 q 760 499 760 340 q 694 738 760 656 q 498 819 628 819 l 300 819 l 300 178 l 498 178 z "},"E":{"ha":862,"x_min":83,"x_max":804,"o":"m 83 997 l 804 997 l 804 822 l 300 822 l 300 594 l 777 594 l 777 425 l 300 425 l 300 175 l 804 175 l 804 0 l 83 0 l 83 997 z "},"F":{"ha":840,"x_min":83,"x_max":796,"o":"m 83 997 l 796 997 l 796 822 l 300 822 l 300 590 l 770 590 l 770 420 l 300 420 l 300 0 l 83 0 l 83 997 z "},"G":{"ha":1026,"x_min":38,"x_max":965,"o":"m 748 414 l 454 414 l 454 572 l 960 572 l 960 157 q 890 83 932 115 q 795 30 848 52 q 680 -3 743 8 q 547 -15 617 -15 q 333 20 428 -15 q 173 122 239 56 q 73 284 108 189 q 38 498 38 379 q 73 712 38 617 q 172 873 107 807 q 330 976 237 940 q 540 1011 422 1011 q 802 946 697 1011 q 965 745 907 880 l 800 652 q 744 734 773 701 q 684 790 715 768 q 615 822 652 812 q 534 831 578 831 q 416 809 468 831 q 330 745 365 787 q 277 641 295 703 q 258 498 258 578 q 332 250 258 335 q 546 165 405 165 q 660 180 610 165 q 748 230 709 195 l 748 414 z "},"H":{"ha":1043,"x_min":83,"x_max":961,"o":"m 83 997 l 300 997 l 300 607 l 744 607 l 744 997 l 961 997 l 961 0 l 744 0 l 744 429 l 300 429 l 300 0 l 83 0 l 83 997 z "},"I":{"ha":382,"x_min":83,"x_max":300,"o":"m 83 997 l 300 997 l 300 0 l 83 0 l 83 997 z "},"J":{"ha":789,"x_min":26,"x_max":709,"o":"m 370 -15 q 140 49 227 -15 q 26 241 54 113 l 193 318 q 224 248 208 277 q 260 200 240 218 q 305 173 281 181 q 360 164 330 164 q 492 319 492 164 l 492 997 l 709 997 l 709 270 q 686 150 709 203 q 620 60 663 97 q 513 4 576 24 q 370 -15 450 -15 z "},"K":{"ha":964,"x_min":83,"x_max":956,"o":"m 83 997 l 300 997 l 300 618 l 667 997 l 934 997 l 570 628 l 956 0 l 707 0 l 422 476 l 300 353 l 300 0 l 83 0 l 83 997 z "},"L":{"ha":786,"x_min":83,"x_max":749,"o":"m 83 997 l 300 997 l 300 178 l 749 178 l 749 0 l 83 0 l 83 997 z "},"M":{"ha":1307,"x_min":83,"x_max":1224,"o":"m 83 997 l 414 997 l 654 349 l 893 997 l 1224 997 l 1224 0 l 1007 0 l 1007 774 l 724 0 l 583 0 l 300 775 l 300 0 l 83 0 l 83 997 z "},"N":{"ha":1029,"x_min":83,"x_max":947,"o":"m 83 997 l 380 997 l 730 246 l 730 997 l 947 997 l 947 0 l 644 0 l 300 743 l 300 0 l 83 0 l 83 997 z "},"O":{"ha":1073,"x_min":43,"x_max":1029,"o":"m 43 498 q 77 711 43 616 q 175 873 111 806 q 331 976 239 940 q 536 1011 422 1011 q 742 976 650 1011 q 897 873 833 940 q 995 712 961 807 q 1029 498 1029 617 q 995 285 1029 380 q 897 123 961 190 q 742 21 833 57 q 536 -15 650 -15 q 331 21 422 -15 q 175 123 239 57 q 77 285 111 190 q 43 498 43 380 m 264 498 q 282 356 264 418 q 334 252 300 294 q 420 187 369 209 q 536 165 471 165 q 739 251 669 165 q 809 498 809 337 q 791 641 809 578 q 739 745 773 703 q 653 809 704 787 q 536 831 602 831 q 420 809 471 831 q 334 745 369 787 q 282 640 300 702 q 264 498 264 578 z "},"P":{"ha":948,"x_min":83,"x_max":909,"o":"m 83 997 l 529 997 q 814 913 718 997 q 909 669 909 830 q 813 430 909 512 q 529 348 718 348 l 300 348 l 300 0 l 83 0 l 83 997 m 498 523 q 648 559 602 523 q 693 671 693 595 q 647 784 693 748 q 498 819 602 819 l 300 819 l 300 523 l 498 523 z "},"Q":{"ha":1073,"x_min":43,"x_max":1029,"o":"m 658 -170 l 601 -11 q 569 -14 585 -12 q 536 -15 553 -15 q 331 21 422 -15 q 175 123 239 57 q 77 285 111 190 q 43 498 43 380 q 77 711 43 616 q 175 873 111 806 q 331 976 239 940 q 536 1011 422 1011 q 742 976 650 1011 q 897 873 833 940 q 995 712 961 807 q 1029 498 1029 617 q 1012 342 1029 414 q 962 211 995 270 q 881 107 928 152 q 772 34 833 62 l 845 -170 l 658 -170 m 264 498 q 280 363 264 423 q 329 261 297 304 q 406 195 360 219 q 511 168 452 172 q 524 168 517 168 q 536 169 530 168 l 458 388 l 645 388 l 704 222 q 782 333 755 263 q 809 498 809 402 q 791 641 809 578 q 739 745 773 703 q 653 809 704 787 q 536 831 602 831 q 420 809 471 831 q 334 745 369 787 q 282 641 300 703 q 264 498 264 578 z "},"R":{"ha":973,"x_min":83,"x_max":935,"o":"m 717 0 l 635 300 q 616 349 627 329 q 589 381 605 369 q 550 399 572 393 q 496 405 527 405 l 300 405 l 300 0 l 83 0 l 83 997 l 541 997 q 818 925 726 997 q 909 710 909 853 q 731 461 909 517 q 804 413 776 444 q 843 341 831 382 l 935 0 l 717 0 m 504 561 q 590 568 555 561 q 648 592 626 576 q 681 632 671 608 q 692 690 692 656 q 681 748 692 724 q 648 788 671 772 q 590 812 625 804 q 504 819 554 819 l 300 819 l 300 561 l 504 561 z "},"S":{"ha":907,"x_min":31,"x_max":865,"o":"m 73 702 q 100 833 73 776 q 177 929 127 890 q 299 988 227 968 q 463 1008 372 1008 q 853 795 753 1008 l 700 688 q 653 754 677 727 q 602 799 629 782 q 542 824 574 817 q 469 832 509 832 q 340 801 386 832 q 294 713 294 770 q 304 669 294 688 q 340 634 315 649 q 404 606 364 618 q 500 583 444 594 q 585 567 542 576 q 668 545 627 558 q 744 511 708 531 q 807 461 780 491 q 849 391 833 432 q 865 293 865 349 q 838 162 865 219 q 761 65 812 104 q 635 5 710 26 q 465 -15 561 -15 q 191 45 298 -15 q 31 220 83 106 l 184 330 q 302 201 233 242 q 471 159 372 159 q 602 189 557 159 q 647 274 647 219 q 636 318 647 299 q 602 352 626 337 q 540 379 578 367 q 444 401 501 391 q 360 419 404 410 q 275 443 316 429 q 197 477 234 456 q 133 528 161 498 q 89 602 105 559 q 73 702 73 644 z "},"T":{"ha":933,"x_min":14,"x_max":919,"o":"m 360 819 l 14 819 l 14 997 l 919 997 l 919 819 l 577 819 l 577 0 l 360 0 l 360 819 z "},"U":{"ha":983,"x_min":79,"x_max":904,"o":"m 492 -15 q 315 10 392 -15 q 185 82 238 35 q 106 201 133 130 q 79 364 79 272 l 79 997 l 296 997 l 296 389 q 343 218 296 272 q 491 165 390 165 q 640 218 593 165 q 687 389 687 272 l 687 997 l 904 997 l 904 364 q 877 201 904 272 q 798 82 850 130 q 669 10 746 35 q 492 -15 593 -15 z "},"V":{"ha":1002,"x_min":9,"x_max":993,"o":"m 501 130 l 765 997 l 993 997 l 680 0 l 321 0 l 9 997 l 237 997 l 501 130 z "},"W":{"ha":1437,"x_min":9,"x_max":1428,"o":"m 412 155 l 597 997 l 840 997 l 1025 155 l 1198 997 l 1428 997 l 1209 0 l 875 0 l 718 682 l 562 0 l 228 0 l 9 997 l 239 997 l 412 155 z "},"X":{"ha":998,"x_min":9,"x_max":989,"o":"m 488 326 l 264 0 l 9 0 l 369 493 l 9 997 l 277 997 l 509 673 l 732 997 l 987 997 l 626 509 l 989 0 l 721 0 l 488 326 z "},"Y":{"ha":1005,"x_min":9,"x_max":996,"o":"m 503 572 l 746 997 l 996 997 l 609 357 l 609 0 l 396 0 l 396 356 l 9 997 l 258 997 l 503 572 z "},"Z":{"ha":840,"x_min":47,"x_max":793,"o":"m 793 997 l 793 822 l 292 178 l 793 178 l 793 0 l 47 0 l 47 175 l 549 819 l 47 819 l 47 997 l 793 997 z "},"a":{"ha":791,"x_min":39,"x_max":721,"o":"m 49 181 q 86 298 49 249 q 205 386 123 348 q 323 425 247 405 q 509 465 400 444 l 509 496 q 473 583 509 555 q 374 612 437 612 q 270 573 309 612 q 215 454 231 534 l 39 510 q 150 710 60 642 q 389 778 239 778 q 528 761 467 778 q 633 713 590 745 q 698 634 675 681 q 721 528 721 588 l 721 0 l 509 0 l 509 90 q 414 12 473 39 q 279 -16 355 -16 q 182 -2 225 -16 q 110 37 140 12 q 65 99 81 62 q 49 181 49 136 m 509 337 q 400 313 443 324 q 331 290 357 302 q 263 205 263 259 q 288 151 263 172 q 353 131 313 131 q 411 141 383 131 q 459 170 438 152 q 494 211 481 188 q 509 259 508 234 l 509 337 z "},"b":{"ha":885,"x_min":69,"x_max":847,"o":"m 528 778 q 659 749 600 778 q 759 669 718 721 q 824 543 801 616 q 847 381 847 470 q 824 219 847 292 q 759 94 801 146 q 659 13 718 42 q 528 -16 600 -16 q 386 18 448 -16 q 281 114 323 52 l 281 0 l 69 0 l 69 1042 l 281 1042 l 281 649 q 386 744 323 711 q 528 778 448 778 m 456 600 q 327 542 372 600 q 281 380 281 484 q 293 289 281 330 q 327 220 304 248 q 382 178 349 193 q 456 163 415 163 q 585 220 539 163 q 631 380 631 277 q 585 542 631 485 q 456 600 539 600 z "},"c":{"ha":800,"x_min":38,"x_max":772,"o":"m 439 778 q 549 764 495 778 q 648 721 603 750 q 725 648 692 692 q 772 542 758 604 l 608 470 q 539 568 585 533 q 434 603 494 603 q 359 588 393 603 q 303 545 326 573 q 267 475 279 516 q 254 380 254 433 q 267 287 254 328 q 303 218 279 246 q 359 174 326 189 q 433 159 393 159 q 540 195 494 159 q 608 294 585 231 l 772 220 q 728 122 759 165 q 653 47 696 78 q 554 1 609 17 q 439 -16 500 -16 q 271 13 345 -16 q 145 94 197 42 q 65 219 93 146 q 38 381 38 292 q 65 544 38 471 q 145 669 93 616 q 271 749 197 721 q 439 778 345 778 z "},"d":{"ha":885,"x_min":38,"x_max":816,"o":"m 357 778 q 498 744 436 778 q 604 650 561 711 l 604 1042 l 816 1042 l 816 0 l 604 0 l 604 113 q 498 18 561 52 q 357 -16 436 -16 q 227 13 286 -16 q 126 94 168 42 q 61 219 84 146 q 38 381 38 292 q 61 543 38 470 q 126 669 84 616 q 227 749 168 721 q 357 778 286 778 m 429 600 q 300 542 346 600 q 254 380 254 484 q 300 220 254 277 q 429 163 346 163 q 506 179 473 163 q 560 224 538 195 q 593 293 582 253 q 604 380 604 333 q 593 469 604 429 q 561 538 583 509 q 506 584 539 568 q 429 600 473 600 z "},"e":{"ha":807,"x_min":38,"x_max":775,"o":"m 255 321 q 316 200 269 244 q 435 155 363 155 q 538 186 492 155 q 610 272 584 217 l 765 189 q 714 102 747 140 q 640 38 682 64 q 547 -2 597 12 q 441 -16 496 -16 q 272 13 347 -16 q 145 94 197 41 q 66 219 94 146 q 38 381 38 292 q 65 544 38 471 q 141 668 92 616 q 261 748 191 720 q 419 777 332 777 q 566 753 500 777 q 678 685 631 729 q 750 578 724 641 q 775 437 775 515 q 774 379 775 411 q 771 321 774 347 l 255 321 m 425 611 q 310 570 353 611 q 254 452 267 530 l 587 452 l 587 467 q 576 527 587 500 q 543 572 564 553 q 492 601 522 591 q 425 611 462 611 z "},"f":{"ha":652,"x_min":12,"x_max":629,"o":"m 173 854 q 190 937 173 900 q 236 1001 206 975 q 306 1042 265 1027 q 393 1056 346 1056 l 627 1056 l 627 901 l 449 901 q 385 822 385 901 l 385 763 l 629 763 l 629 610 l 385 610 l 385 0 l 173 0 l 173 610 l 12 610 l 12 763 l 173 763 l 173 854 z "},"g":{"ha":897,"x_min":38,"x_max":827,"o":"m 372 778 q 510 751 448 778 q 616 675 572 724 l 616 763 l 827 763 l 827 104 q 730 -166 827 -76 q 436 -256 633 -256 q 305 -244 364 -256 q 200 -208 245 -232 q 124 -148 155 -184 q 79 -65 93 -113 l 235 24 q 314 -56 262 -28 q 437 -84 365 -84 q 572 -35 529 -84 q 616 117 616 14 l 616 161 q 510 86 572 113 q 372 59 448 59 q 235 85 296 59 q 130 158 174 111 q 62 272 86 205 q 38 419 38 338 q 62 566 38 500 q 130 679 86 631 q 235 752 174 726 q 372 778 296 778 m 436 611 q 302 560 349 611 q 254 416 254 509 q 302 272 254 323 q 436 221 349 221 q 511 235 477 221 q 567 274 544 248 q 603 335 591 299 q 616 416 616 371 q 603 497 616 460 q 567 558 591 533 q 511 597 544 584 q 436 611 477 611 z "},"h":{"ha":859,"x_min":69,"x_max":793,"o":"m 69 1042 l 281 1042 l 281 667 q 386 748 323 718 q 525 778 449 778 q 636 758 587 778 q 721 701 686 738 q 775 612 756 665 q 793 496 793 560 l 793 0 l 582 0 l 582 476 q 572 530 582 506 q 544 571 562 553 q 501 597 526 588 q 445 606 475 606 q 377 593 408 606 q 326 557 347 580 q 293 506 304 535 q 281 444 281 476 l 281 0 l 69 0 l 69 1042 z "},"i":{"ha":351,"x_min":69,"x_max":281,"o":"m 69 1042 l 281 1042 l 281 844 l 69 844 l 69 1042 m 69 763 l 281 763 l 281 0 l 69 0 l 69 763 z "},"j":{"ha":450,"x_min":-6,"x_max":380,"o":"m 168 1042 l 380 1042 l 380 844 l 168 844 l 168 1042 m 380 -39 q 364 -125 380 -87 q 320 -191 348 -164 q 254 -232 292 -218 q 172 -247 216 -247 l -6 -247 l -6 -83 l 90 -83 q 151 -62 132 -83 q 169 9 169 -41 l 169 763 l 380 763 l 380 -39 z "},"k":{"ha":819,"x_min":69,"x_max":810,"o":"m 69 1042 l 281 1042 l 281 484 l 540 764 l 791 764 l 526 489 l 810 0 l 576 0 l 384 336 l 281 233 l 281 0 l 69 0 l 69 1042 z "},"l":{"ha":350,"x_min":69,"x_max":281,"o":"m 69 1042 l 281 1042 l 281 0 l 69 0 l 69 1042 z "},"m":{"ha":1295,"x_min":69,"x_max":1229,"o":"m 69 763 l 281 763 l 281 673 q 380 750 322 722 q 507 778 437 778 q 643 742 587 778 q 728 640 699 706 q 774 697 747 671 q 832 740 800 722 q 902 768 865 758 q 979 778 939 778 q 1084 758 1038 778 q 1163 701 1131 738 q 1212 612 1195 665 q 1229 496 1229 560 l 1229 0 l 1017 0 l 1017 476 q 1009 530 1017 506 q 985 571 1000 553 q 947 597 969 588 q 899 606 926 606 q 842 594 867 606 q 797 561 816 582 q 768 513 779 541 q 755 454 757 486 l 755 0 l 544 0 l 544 476 q 535 530 544 506 q 511 571 527 553 q 473 597 495 588 q 424 606 451 606 q 366 593 392 606 q 320 557 339 580 q 292 506 302 535 q 281 444 281 476 l 281 0 l 69 0 l 69 763 z "},"n":{"ha":863,"x_min":73,"x_max":797,"o":"m 73 763 l 285 763 l 285 667 q 390 748 328 718 q 529 778 453 778 q 640 758 591 778 q 725 701 690 738 q 778 612 760 665 q 797 496 797 560 l 797 0 l 585 0 l 585 476 q 575 530 585 506 q 548 571 566 553 q 505 597 530 588 q 449 606 479 606 q 381 593 412 606 q 330 557 351 580 q 297 506 309 535 q 285 444 285 476 l 285 0 l 73 0 l 73 763 z "},"o":{"ha":874,"x_min":38,"x_max":836,"o":"m 437 778 q 605 749 531 778 q 730 669 679 721 q 809 544 782 617 q 836 381 836 471 q 809 218 836 292 q 730 93 781 145 q 605 13 679 41 q 437 -16 531 -16 q 270 13 344 -16 q 144 94 195 41 q 65 219 93 146 q 38 381 38 292 q 65 544 38 471 q 144 669 93 617 q 270 749 195 721 q 437 778 344 778 m 437 603 q 300 545 347 603 q 254 380 254 488 q 300 217 254 274 q 437 159 347 159 q 574 217 528 159 q 620 380 620 274 q 574 545 620 488 q 437 603 528 603 z "},"p":{"ha":885,"x_min":69,"x_max":847,"o":"m 528 778 q 659 749 600 778 q 759 669 718 721 q 824 543 801 616 q 847 381 847 470 q 824 219 847 292 q 759 94 801 146 q 659 13 718 42 q 528 -16 600 -16 q 386 18 448 -16 q 281 114 323 52 l 281 -268 l 69 -268 l 69 763 l 281 763 l 281 649 q 386 744 323 711 q 528 778 448 778 m 456 600 q 327 542 372 600 q 281 380 281 484 q 293 289 281 330 q 327 220 304 248 q 382 178 349 193 q 456 163 415 163 q 530 178 498 163 q 585 220 562 193 q 619 289 607 248 q 631 380 631 330 q 619 473 631 432 q 585 542 607 513 q 530 585 562 570 q 456 600 498 600 z "},"q":{"ha":873,"x_min":38,"x_max":816,"o":"m 357 778 q 499 744 436 778 q 604 649 562 711 l 604 763 l 816 763 l 816 -268 l 604 -268 l 604 113 q 499 18 562 52 q 357 -16 436 -16 q 227 13 286 -16 q 126 94 168 42 q 61 219 84 146 q 38 381 38 292 q 61 543 38 470 q 126 669 84 616 q 227 749 168 721 q 357 778 286 778 m 429 600 q 300 542 345 600 q 254 380 254 484 q 266 289 254 330 q 300 220 277 248 q 355 178 322 193 q 429 163 387 163 q 503 178 471 163 q 558 220 536 193 q 592 289 581 248 q 604 380 604 330 q 558 542 604 484 q 429 600 513 600 z "},"r":{"ha":608,"x_min":69,"x_max":581,"o":"m 69 763 l 281 763 l 281 618 q 319 684 296 654 q 372 733 342 713 q 441 766 403 754 q 524 777 479 777 q 535 777 528 777 q 552 776 543 777 q 569 775 561 776 q 581 774 577 774 l 581 572 l 481 572 q 401 559 437 572 q 338 523 364 546 q 296 467 311 499 q 281 395 281 434 l 281 0 l 69 0 l 69 763 z "},"s":{"ha":741,"x_min":23,"x_max":707,"o":"m 58 547 q 80 644 58 602 q 142 717 101 687 q 241 762 182 747 q 374 778 300 778 q 696 593 629 778 l 545 516 q 513 566 530 545 q 475 600 496 587 q 431 620 455 613 q 378 626 407 626 q 296 607 325 626 q 267 552 267 589 q 276 517 267 531 q 303 492 286 503 q 344 475 320 482 q 395 463 368 469 q 463 450 427 456 q 533 433 498 443 q 600 407 568 422 q 655 368 631 392 q 693 309 679 343 q 707 224 707 274 q 624 48 707 111 q 372 -15 541 -15 q 148 31 233 -15 q 23 174 62 77 l 173 255 q 207 206 186 228 q 254 169 227 184 q 311 145 280 154 q 377 137 342 137 q 467 158 434 137 q 499 216 499 179 q 487 252 499 238 q 452 274 474 265 q 401 290 430 283 q 338 302 372 296 q 273 316 306 309 q 209 335 239 323 q 150 365 178 347 q 102 408 123 382 q 70 467 82 433 q 58 547 58 501 z "},"t":{"ha":615,"x_min":8,"x_max":589,"o":"m 144 610 l 8 610 l 8 763 l 144 763 l 144 960 l 356 960 l 356 763 l 589 763 l 589 610 l 356 610 l 356 241 q 420 164 356 164 l 589 164 l 589 0 l 344 0 q 196 51 249 0 q 144 195 144 102 l 144 610 z "},"u":{"ha":863,"x_min":66,"x_max":789,"o":"m 789 0 l 578 0 l 578 95 q 472 15 535 44 q 334 -15 410 -15 q 223 5 273 -15 q 138 62 173 25 q 84 151 103 98 q 66 267 66 203 l 66 763 l 278 763 l 278 287 q 288 234 278 258 q 315 193 297 210 q 358 166 333 176 q 414 157 383 157 q 481 170 451 157 q 533 205 511 183 q 566 257 554 228 q 578 320 578 287 l 578 763 l 789 763 l 789 0 z "},"v":{"ha":806,"x_min":6,"x_max":800,"o":"m 403 115 l 574 763 l 800 763 l 566 0 l 239 0 l 6 763 l 231 763 l 403 115 z "},"w":{"ha":1175,"x_min":6,"x_max":1169,"o":"m 349 172 l 479 763 l 695 763 l 825 173 l 947 763 l 1169 763 l 992 0 l 696 0 l 587 484 l 479 0 l 182 0 l 6 763 l 228 763 l 349 172 z "},"x":{"ha":808,"x_min":5,"x_max":802,"o":"m 420 539 l 563 763 l 802 763 l 526 388 l 802 0 l 549 0 l 387 224 l 245 0 l 5 0 l 283 374 l 6 763 l 259 763 l 420 539 z "},"y":{"ha":809,"x_min":6,"x_max":803,"o":"m 403 267 l 572 763 l 803 763 l 475 -90 q 442 -158 460 -128 q 401 -207 425 -187 q 349 -238 378 -227 q 279 -248 319 -248 l 81 -248 l 81 -85 l 230 -85 q 276 -72 256 -85 q 303 -35 295 -58 l 313 -9 l 6 763 l 241 763 l 403 267 z "},"z":{"ha":704,"x_min":44,"x_max":660,"o":"m 660 763 l 660 602 l 285 162 l 660 162 l 660 0 l 45 0 l 45 162 l 44 162 l 420 602 l 45 602 l 45 763 l 660 763 z "},".":{"ha":370,"x_min":77,"x_max":293,"o":"m 77 239 l 293 239 l 293 -1 l 77 -1 l 77 239 z "},",":{"ha":374,"x_min":76,"x_max":293,"o":"m 109 231 l 293 231 l 233 -203 l 76 -203 l 109 231 z "},"-":{"ha":559,"x_min":62,"x_max":498,"o":"m 62 491 l 498 491 l 498 313 l 62 313 l 62 491 z "},"+":{"ha":881,"x_min":62,"x_max":819,"o":"m 521 800 l 521 500 l 819 500 l 819 341 l 521 341 l 521 42 l 361 42 l 361 341 l 62 341 l 62 500 l 361 500 l 361 800 l 521 800 z "},"*":{"ha":574,"x_min":33,"x_max":541,"o":"m 234 648 l 100 555 l 33 669 l 181 741 l 33 813 l 100 927 l 234 835 l 221 997 l 353 997 l 340 835 l 475 927 l 541 813 l 393 741 l 541 669 l 475 555 l 340 648 l 353 486 l 221 486 l 234 648 z "},"^":{"ha":876,"x_min":75,"x_max":801,"o":"m 537 997 l 801 412 l 618 412 l 437 827 l 258 412 l 75 412 l 338 997 l 537 997 z "},"˜":{"ha":519,"x_min":3,"x_max":514,"o":"m 279 1008 q 316 987 300 994 q 349 981 333 981 q 394 998 372 981 q 447 1053 416 1015 l 514 950 q 440 874 479 899 q 357 848 401 848 q 236 891 302 848 q 198 912 215 905 q 166 919 182 919 q 122 902 144 919 q 70 847 100 885 l 3 950 q 157 1050 71 1050 q 279 1008 212 1050 z "},"/":{"ha":574,"x_min":-11,"x_max":585,"o":"m 585 1038 l 172 -41 l -11 -41 l 401 1038 l 585 1038 z "},"\\":{"ha":574,"x_min":-11,"x_max":585,"o":"m 585 -41 l 401 -41 l -11 1038 l 172 1038 l 585 -41 z "},":":{"ha":370,"x_min":77,"x_max":293,"o":"m 77 763 l 293 763 l 293 523 l 77 523 l 77 763 m 77 239 l 293 239 l 293 -1 l 77 -1 l 77 239 z "},";":{"ha":372,"x_min":77,"x_max":294,"o":"m 78 763 l 294 763 l 294 523 l 78 523 l 78 763 m 111 231 l 294 231 l 235 -203 l 77 -203 l 111 231 z "},"<":{"ha":823,"x_min":57,"x_max":766,"o":"m 766 761 l 766 593 l 210 381 l 766 168 l 766 0 l 57 278 l 57 483 l 766 761 z "},"=":{"ha":866,"x_min":60,"x_max":806,"o":"m 806 440 l 60 440 l 60 600 l 806 600 l 806 440 m 806 123 l 60 123 l 60 282 l 806 282 l 806 123 z "},">":{"ha":823,"x_min":57,"x_max":766,"o":"m 766 278 l 57 0 l 57 168 l 613 380 l 57 593 l 57 761 l 766 483 l 766 278 z "},"!":{"ha":383,"x_min":83,"x_max":300,"o":"m 83 997 l 300 997 l 271 284 l 112 284 l 83 997 m 83 192 l 300 192 l 300 -1 l 83 -1 l 83 192 z "},"?":{"ha":720,"x_min":19,"x_max":682,"o":"m 355 1010 q 490 991 429 1010 q 592 938 550 972 q 658 853 635 903 q 681 741 681 803 q 663 640 682 682 q 616 564 644 597 q 556 507 589 532 q 496 459 524 482 q 449 411 468 435 q 431 355 431 387 l 431 279 l 258 279 l 258 352 q 274 449 258 410 q 312 514 289 487 q 362 560 335 541 q 412 601 389 580 q 451 649 435 622 q 466 718 466 676 q 432 808 466 775 q 340 840 398 840 q 245 805 284 840 q 175 690 205 769 l 19 781 q 138 952 52 895 q 355 1010 224 1010 m 237 192 l 454 192 l 454 -1 l 237 -1 l 237 192 z "},"'":{"ha":351,"x_min":95,"x_max":256,"o":"m 95 997 l 256 997 l 256 585 l 95 585 l 95 997 z "},"\"":{"ha":602,"x_min":95,"x_max":507,"o":"m 95 997 l 256 997 l 256 585 l 95 585 l 95 997 m 345 997 l 507 997 l 507 585 l 345 585 l 345 997 z "},"#":{"ha":905,"x_min":43,"x_max":862,"o":"m 486 997 l 420 722 l 593 722 l 659 997 l 801 997 l 735 722 l 862 722 l 862 587 l 703 587 l 661 414 l 788 414 l 788 279 l 629 279 l 562 0 l 420 0 l 487 279 l 314 279 l 247 0 l 104 0 l 172 279 l 43 279 l 43 414 l 203 414 l 245 587 l 117 587 l 117 722 l 277 722 l 343 997 l 486 997 m 519 414 l 560 587 l 387 587 l 346 414 l 519 414 z "},"@":{"ha":1227,"x_min":43,"x_max":1191,"o":"m 570 770 q 652 752 616 770 q 714 702 689 734 l 722 755 l 888 755 l 842 434 q 846 339 833 372 q 893 302 859 305 q 981 344 945 297 q 1031 490 1017 391 q 1030 657 1046 584 q 968 781 1014 730 q 849 857 923 831 q 675 883 775 883 q 497 854 578 883 q 355 772 416 826 q 254 643 294 719 q 200 471 214 566 q 202 295 186 374 q 264 161 219 216 q 381 75 309 105 q 551 45 453 45 q 687 66 621 45 q 816 129 754 87 l 886 20 q 729 -60 817 -33 q 536 -87 641 -87 q 385 -68 455 -87 q 257 -14 314 -50 q 156 71 199 21 q 87 183 113 121 q 52 318 60 245 q 54 471 43 391 q 126 701 73 599 q 261 874 179 803 q 452 984 343 945 q 689 1022 560 1022 q 911 981 813 1022 q 1073 867 1009 941 q 1164 693 1137 794 q 1173 469 1191 591 q 1136 344 1162 400 q 1069 248 1109 288 q 979 187 1029 208 q 871 165 928 165 q 812 171 840 165 q 760 190 785 177 q 716 223 736 203 q 684 274 697 244 q 597 197 647 224 q 489 169 547 169 q 397 191 437 169 q 332 253 357 213 q 297 348 307 292 q 296 469 288 403 q 330 592 306 536 q 390 687 354 647 q 472 748 427 726 q 570 770 518 770 m 596 640 q 550 627 571 640 q 511 593 528 615 q 483 540 494 571 q 465 470 471 509 q 462 400 458 431 q 476 346 465 368 q 507 311 488 323 q 551 299 526 299 q 606 316 583 299 q 644 357 629 332 q 668 412 659 382 q 681 467 677 441 q 684 521 684 491 q 675 577 684 551 q 647 622 666 604 q 596 640 629 640 z "},"$":{"ha":892,"x_min":47,"x_max":825,"o":"m 85 701 q 106 811 85 762 q 164 897 126 861 q 258 955 203 933 q 383 983 313 977 l 383 1082 l 499 1082 l 499 984 q 691 922 614 975 q 813 774 768 870 l 668 671 q 590 769 630 736 q 499 812 550 803 l 499 578 q 634 542 574 563 q 736 488 694 520 q 802 411 779 456 q 825 302 825 366 q 804 191 825 240 q 740 105 782 141 q 638 49 699 70 q 499 24 577 28 l 499 -127 l 383 -127 l 383 26 q 173 98 256 39 q 47 258 90 157 l 195 364 q 279 255 233 295 q 383 199 325 214 l 383 431 q 312 447 348 438 q 243 470 277 456 q 181 504 210 484 q 131 551 153 524 q 98 615 110 578 q 85 701 85 652 m 383 810 q 314 772 338 799 q 290 704 290 745 q 311 646 290 669 q 383 606 333 623 l 383 810 m 499 194 q 585 228 554 201 q 615 300 615 256 q 609 335 615 320 q 589 362 603 350 q 553 385 575 374 q 499 404 531 395 l 499 194 z "},"€":{"ha":943,"x_min":19,"x_max":912,"o":"m 648 1011 q 795 994 730 1011 q 912 944 860 977 l 805 781 q 733 819 772 807 q 648 831 694 831 q 488 783 551 831 q 399 644 425 734 l 705 644 l 669 540 l 382 540 q 381 519 381 530 q 380 498 380 509 q 385 429 380 463 l 705 429 l 669 325 l 409 325 q 499 207 439 248 q 648 165 559 165 q 733 178 694 165 q 805 216 772 190 l 912 53 q 795 3 860 20 q 648 -14 730 -14 q 481 9 557 -14 q 345 75 405 32 q 244 182 286 119 q 181 325 203 245 l 19 325 l 55 429 l 163 429 q 160 464 161 446 q 159 498 159 481 q 159 519 159 509 q 161 540 159 530 l 19 540 l 56 644 l 174 644 q 233 799 193 730 q 335 914 274 867 q 474 986 395 961 q 648 1011 553 1011 z "},"%":{"ha":1550,"x_min":76,"x_max":1474,"o":"m 1183 1038 l 542 -41 l 367 -41 l 1008 1038 l 1183 1038 m 367 399 q 248 419 302 399 q 156 476 195 438 q 97 571 118 514 q 76 702 76 627 q 97 832 76 776 q 156 926 118 888 q 248 984 195 964 q 367 1003 302 1003 q 486 984 432 1003 q 577 926 539 964 q 636 832 615 888 q 657 702 657 776 q 636 571 657 628 q 577 476 615 515 q 486 419 539 438 q 367 399 432 399 m 367 853 q 288 816 318 853 q 258 702 258 779 q 288 587 258 624 q 367 549 318 549 q 446 587 416 549 q 475 702 475 624 q 446 816 475 779 q 367 853 416 853 m 1184 -4 q 1065 15 1119 -4 q 974 73 1012 35 q 914 167 935 111 q 893 298 893 224 q 914 429 893 372 q 974 523 935 485 q 1065 580 1012 561 q 1184 600 1119 600 q 1303 580 1249 600 q 1394 523 1356 561 q 1453 429 1432 485 q 1474 298 1474 372 q 1453 168 1474 224 q 1394 73 1432 111 q 1303 15 1356 35 q 1184 -4 1249 -4 m 1184 450 q 1105 413 1135 450 q 1075 298 1075 376 q 1105 183 1075 220 q 1184 146 1135 146 q 1263 183 1233 146 q 1293 298 1293 220 q 1263 413 1293 376 q 1184 450 1233 450 z "},"&":{"ha":970,"x_min":43,"x_max":956,"o":"m 513 496 q 531 476 519 490 q 558 445 543 462 q 590 410 573 428 q 621 374 606 391 q 648 344 636 357 q 666 323 660 330 q 712 477 699 391 l 885 447 q 853 303 876 369 q 793 182 829 237 l 956 0 l 728 0 l 671 64 q 551 6 616 26 q 410 -14 486 -14 q 259 6 327 -14 q 143 61 191 25 q 69 146 95 96 q 43 255 43 195 q 54 334 43 298 q 89 405 64 371 q 153 470 113 438 q 248 537 192 503 q 197 604 218 572 q 162 664 176 635 q 142 720 149 692 q 136 777 136 748 q 158 872 136 829 q 220 946 180 916 q 317 994 260 977 q 444 1010 374 1010 q 568 994 513 1010 q 663 948 624 978 q 724 876 703 918 q 745 781 745 833 q 729 697 745 735 q 685 626 714 660 q 612 561 655 593 q 513 496 568 530 m 402 621 q 503 690 468 656 q 538 765 538 724 q 511 829 538 806 q 438 853 484 853 q 364 827 392 853 q 336 759 336 802 q 354 691 336 723 q 402 621 372 659 m 363 409 q 317 376 336 392 q 285 345 298 361 q 267 312 273 330 q 260 273 260 295 q 273 222 260 245 q 308 180 286 198 q 359 153 330 163 q 425 143 389 143 q 496 155 462 143 q 559 189 530 167 q 535 216 551 199 q 501 255 520 233 q 461 299 481 276 q 421 344 440 323 q 386 383 401 366 q 363 409 371 400 z "},"(":{"ha":452,"x_min":66,"x_max":454,"o":"m 281 443 q 454 -187 281 111 l 273 -187 q 179 -36 218 -111 q 115 116 140 39 q 78 274 90 193 q 66 443 66 355 q 79 614 66 532 q 116 773 91 696 q 180 922 142 850 q 273 1065 219 995 l 454 1065 q 325 767 368 923 q 281 443 281 610 z "},")":{"ha":452,"x_min":-3,"x_max":385,"o":"m 171 443 q 127 767 171 610 q -3 1065 83 923 l 179 1065 q 271 922 233 995 q 335 773 310 850 q 373 614 361 696 q 385 443 385 532 q 373 274 385 355 q 336 116 361 193 q 272 -36 311 39 q 179 -187 233 -111 l -3 -187 q 171 443 171 111 z "},"{":{"ha":555,"x_min":47,"x_max":536,"o":"m 383 585 q 375 534 383 558 q 352 491 367 510 q 317 458 337 471 q 273 439 297 444 q 317 420 297 433 q 352 387 337 406 q 375 343 367 368 q 383 292 383 319 l 383 89 q 390 32 383 55 q 411 -5 396 9 q 451 -26 427 -20 q 511 -33 475 -33 l 536 -33 l 536 -186 l 410 -186 q 238 -141 294 -186 q 182 -1 182 -95 l 182 244 q 181 298 182 276 q 173 333 180 319 q 153 353 167 347 q 116 359 140 359 l 47 359 l 47 519 l 116 519 q 153 525 140 519 q 173 545 167 531 q 181 580 180 558 q 182 633 182 602 l 182 879 q 238 1018 182 972 q 410 1064 294 1064 l 536 1064 l 536 910 l 511 910 q 451 904 475 910 q 411 883 427 897 q 390 845 396 869 q 383 788 383 822 l 383 585 z "},"|":{"ha":373,"x_min":95,"x_max":278,"o":"m 95 1109 l 278 1109 l 278 -233 l 95 -233 l 95 1109 z "},"}":{"ha":555,"x_min":19,"x_max":508,"o":"m 172 788 q 166 845 172 822 q 144 883 159 869 q 104 904 129 897 q 44 910 80 910 l 19 910 l 19 1064 l 145 1064 q 318 1018 262 1064 q 373 879 373 972 l 373 633 q 374 580 373 602 q 382 545 376 558 q 402 525 389 531 q 439 519 416 519 l 508 519 l 508 359 l 439 359 q 402 353 416 359 q 382 333 389 347 q 374 298 376 319 q 373 244 373 276 l 373 -1 q 318 -141 373 -95 q 145 -186 262 -186 l 19 -186 l 19 -33 l 44 -33 q 104 -26 80 -33 q 144 -5 129 -20 q 166 32 159 9 q 172 89 172 55 l 172 292 q 180 343 172 319 q 203 387 189 368 q 238 420 218 406 q 282 439 258 433 q 238 458 258 444 q 203 491 218 471 q 180 534 189 510 q 172 585 172 558 l 172 788 z "},"[":{"ha":477,"x_min":92,"x_max":458,"o":"m 92 1062 l 458 1062 l 458 909 l 293 909 l 293 -33 l 458 -33 l 458 -186 l 92 -186 l 92 1062 z "},"]":{"ha":477,"x_min":19,"x_max":385,"o":"m 19 -186 l 19 -33 l 184 -33 l 184 909 l 19 909 l 19 1062 l 385 1062 l 385 -186 l 19 -186 z "},"‘":{"ha":357,"x_min":76,"x_max":281,"o":"m 243 587 l 76 587 l 127 998 l 281 998 l 243 587 z "},"’":{"ha":357,"x_min":76,"x_max":281,"o":"m 113 998 l 281 998 l 229 587 l 76 587 l 113 998 z "},"“":{"ha":602,"x_min":76,"x_max":526,"o":"m 243 587 l 76 587 l 127 998 l 281 998 l 243 587 m 489 587 l 321 587 l 373 998 l 526 998 l 489 587 z "},"”":{"ha":602,"x_min":76,"x_max":526,"o":"m 359 998 l 526 998 l 475 587 l 321 587 l 359 998 m 113 998 l 281 998 l 229 587 l 76 587 l 113 998 z "},"‚":{"ha":357,"x_min":76,"x_max":281,"o":"m 113 193 l 281 193 l 229 -218 l 76 -218 l 113 193 z "},"„":{"ha":602,"x_min":76,"x_max":526,"o":"m 359 193 l 526 193 l 475 -218 l 321 -218 l 359 193 m 113 193 l 281 193 l 229 -218 l 76 -218 l 113 193 z "},"•":{"ha":704,"x_min":92,"x_max":612,"o":"m 92 528 q 111 634 92 586 q 164 716 130 682 q 246 769 198 750 q 352 787 294 787 q 458 769 410 787 q 541 716 507 750 q 593 634 574 682 q 612 528 612 586 q 593 421 612 469 q 541 339 574 374 q 458 287 507 305 q 352 268 410 268 q 246 287 294 268 q 164 339 198 305 q 111 421 130 374 q 92 528 92 469 z "},"_":{"ha":800,"x_min":47,"x_max":740,"o":"m 47 -83 l 740 -83 l 740 -222 l 47 -222 l 47 -83 z "},"–":{"ha":900,"x_min":62,"x_max":838,"o":"m 62 489 l 838 489 l 838 311 l 62 311 l 62 489 z "},"—":{"ha":1453,"x_min":62,"x_max":1392,"o":"m 62 488 l 1392 488 l 1392 310 l 62 310 l 62 488 z "},"¯":{"ha":431,"x_min":0,"x_max":431,"o":"m 0 1005 l 431 1005 l 431 868 l 0 868 l 0 1005 z "},"¬":{"ha":959,"x_min":62,"x_max":872,"o":"m 62 553 l 872 553 l 872 111 l 689 111 l 689 379 l 62 379 l 62 553 z "},"™":{"ha":1427,"x_min":56,"x_max":1331,"o":"m 252 871 l 56 871 l 56 992 l 595 992 l 595 871 l 400 871 l 400 405 l 252 405 l 252 871 m 640 992 l 865 992 l 986 652 l 1107 992 l 1331 992 l 1331 405 l 1183 405 l 1183 838 l 1031 405 l 940 405 l 787 839 l 787 405 l 640 405 l 640 992 z "},"®":{"ha":1151,"x_min":56,"x_max":1095,"o":"m 56 499 q 93 715 56 618 q 198 882 130 812 q 362 988 267 951 q 576 1026 458 1026 q 789 988 693 1026 q 952 882 884 951 q 1058 715 1021 812 q 1095 499 1095 618 q 1058 282 1095 380 q 952 116 1021 185 q 789 9 884 47 q 576 -29 693 -29 q 362 9 458 -29 q 198 116 267 47 q 93 282 130 185 q 56 499 56 380 m 168 499 q 197 328 168 405 q 279 197 226 252 q 408 114 333 143 q 576 84 484 84 q 743 114 667 84 q 871 197 818 143 q 954 328 925 252 q 983 499 983 405 q 954 669 983 593 q 871 800 925 745 q 743 883 818 854 q 576 913 667 913 q 408 883 484 913 q 279 800 333 854 q 197 669 226 745 q 168 499 168 593 m 697 232 l 652 399 q 626 444 644 431 q 575 457 609 457 l 468 457 l 468 232 l 343 232 l 343 789 l 602 789 q 808 629 808 789 q 708 489 808 520 q 771 422 758 469 l 823 232 l 697 232 m 581 546 q 660 563 636 546 q 684 617 684 580 q 660 671 684 654 q 581 688 635 688 l 468 688 l 468 546 l 581 546 z "},"©":{"ha":1151,"x_min":56,"x_max":1095,"o":"m 56 499 q 93 715 56 618 q 198 882 130 812 q 362 988 267 951 q 576 1026 458 1026 q 789 988 693 1026 q 952 882 884 951 q 1058 715 1021 812 q 1095 499 1095 618 q 1058 282 1095 380 q 952 116 1021 185 q 789 9 884 47 q 576 -29 693 -29 q 362 9 458 -29 q 198 116 267 47 q 93 282 130 185 q 56 499 56 380 m 168 499 q 197 328 168 405 q 279 197 226 252 q 408 114 333 143 q 576 84 484 84 q 743 114 667 84 q 871 197 818 143 q 954 328 925 252 q 983 499 983 405 q 954 669 983 593 q 871 800 925 745 q 743 883 818 854 q 576 913 667 913 q 408 883 484 913 q 279 800 333 854 q 197 669 226 745 q 168 499 168 593 m 581 775 q 657 766 621 775 q 726 737 694 756 q 780 687 757 718 q 814 616 803 657 l 713 569 q 658 642 694 617 q 579 667 623 667 q 520 655 547 667 q 475 621 494 644 q 446 567 456 599 q 436 494 436 535 q 446 422 436 454 q 475 368 456 391 q 519 334 493 346 q 578 322 546 322 q 659 347 623 322 q 713 420 694 372 l 814 374 q 781 306 804 336 q 728 256 758 276 q 660 224 697 235 q 581 214 623 214 q 466 234 517 214 q 378 291 414 254 q 322 380 342 328 q 302 494 302 431 q 322 609 302 557 q 378 698 342 661 q 466 755 414 734 q 581 775 517 775 z "},"¤":{"ha":947,"x_min":77,"x_max":875,"o":"m 128 461 q 140 564 128 516 q 176 651 153 612 l 77 750 l 186 859 l 284 761 q 373 798 325 785 q 476 810 421 810 q 579 798 532 810 q 667 761 627 785 l 766 859 l 875 751 l 775 652 q 811 564 799 612 q 823 461 823 516 q 811 358 823 406 q 775 270 799 310 l 875 171 l 766 62 l 667 160 q 579 123 627 136 q 476 111 532 111 q 373 123 420 111 q 284 161 325 136 l 186 62 l 77 171 l 176 270 q 140 358 153 310 q 128 461 128 406 m 296 461 q 309 384 296 418 q 346 324 322 349 q 402 286 369 299 q 476 273 435 273 q 551 286 517 273 q 607 324 584 299 q 643 384 631 349 q 656 461 656 418 q 643 538 656 504 q 607 597 631 573 q 551 635 584 622 q 476 648 517 648 q 402 635 435 648 q 346 597 369 622 q 309 538 322 573 q 296 461 296 504 z "},"¢":{"ha":855,"x_min":69,"x_max":804,"o":"m 408 73 q 266 115 328 83 q 159 198 203 147 q 92 317 115 250 q 69 467 69 385 q 92 616 69 548 q 159 735 115 684 q 265 818 202 786 q 408 860 328 850 l 408 997 l 505 997 l 505 861 q 605 842 557 857 q 693 797 653 826 q 762 726 732 768 q 804 627 791 684 l 647 559 q 591 646 627 610 q 505 695 554 683 l 505 238 q 591 288 555 250 q 647 376 627 325 l 804 306 q 763 214 791 255 q 696 142 736 172 q 609 94 657 112 q 505 71 560 76 l 505 -127 l 408 -127 l 408 73 m 408 691 q 352 661 376 681 q 310 612 327 641 q 283 546 292 583 q 274 466 274 509 q 310 321 274 380 q 408 242 345 262 l 408 691 z "},"£":{"ha":791,"x_min":57,"x_max":749,"o":"m 431 1010 q 634 957 553 1010 q 749 802 716 903 l 606 713 q 544 807 579 779 q 453 836 509 836 q 350 799 385 836 q 314 694 314 762 q 318 646 314 668 q 330 603 323 624 q 346 562 337 583 q 363 517 355 541 l 645 517 l 645 399 l 388 399 q 395 361 392 380 q 398 320 398 342 q 377 225 398 266 q 315 157 355 184 l 748 157 l 748 0 l 57 0 l 57 157 l 79 157 q 125 165 101 157 q 170 186 150 172 q 204 222 191 201 q 218 270 218 243 q 213 337 218 306 q 200 399 208 369 l 57 399 l 57 517 l 151 517 q 126 602 136 557 q 115 705 115 648 q 137 834 115 778 q 199 930 158 891 q 298 990 239 969 q 431 1010 357 1010 z "},"¥":{"ha":1031,"x_min":22,"x_max":1009,"o":"m 515 572 l 759 997 l 1009 997 l 668 435 l 899 435 l 899 328 l 622 328 l 622 232 l 899 232 l 899 125 l 622 125 l 622 0 l 409 0 l 409 125 l 121 125 l 121 232 l 409 232 l 409 328 l 121 328 l 121 435 l 363 435 l 22 997 l 271 997 l 515 572 z "},"ƒ":{"ha":701,"x_min":24,"x_max":663,"o":"m 219 508 l 72 508 l 72 659 l 237 659 l 262 854 q 286 937 267 900 q 335 1001 305 975 q 405 1042 366 1027 q 492 1056 445 1056 l 662 1056 l 662 901 l 543 901 q 493 881 509 901 q 473 822 477 862 l 452 659 l 663 659 l 663 508 l 434 508 l 371 -8 q 346 -92 365 -55 q 297 -156 327 -130 q 227 -197 267 -182 q 140 -211 187 -211 l 24 -211 l 24 -55 l 90 -55 q 138 -36 123 -55 q 159 23 154 -16 l 219 508 z "},"−":{"ha":756,"x_min":62,"x_max":694,"o":"m 62 496 l 694 496 l 694 328 l 62 328 l 62 496 z "},"±":{"ha":869,"x_min":62,"x_max":807,"o":"m 519 809 l 519 599 l 807 599 l 807 439 l 519 439 l 519 229 l 351 229 l 351 439 l 62 439 l 62 599 l 351 599 l 351 809 l 519 809 m 807 0 l 62 0 l 62 160 l 807 160 l 807 0 z "},"×":{"ha":856,"x_min":81,"x_max":775,"o":"m 775 614 l 538 377 l 775 140 l 665 30 l 428 267 l 191 29 l 81 140 l 318 377 l 81 614 l 191 724 l 428 487 l 665 724 l 775 614 z "},"÷":{"ha":781,"x_min":62,"x_max":719,"o":"m 286 810 l 495 810 l 495 620 l 286 620 l 286 810 m 62 504 l 719 504 l 719 336 l 62 336 l 62 504 m 286 220 l 495 220 l 495 29 l 286 29 l 286 220 z "},"¦":{"ha":369,"x_min":95,"x_max":274,"o":"m 95 1017 l 274 1017 l 274 568 l 95 568 l 95 1017 m 95 271 l 274 271 l 274 -179 l 95 -179 l 95 271 z "},"·":{"ha":349,"x_min":66,"x_max":282,"o":"m 66 618 l 282 618 l 282 378 l 66 378 l 66 618 z "},"¡":{"ha":383,"x_min":83,"x_max":300,"o":"m 300 763 l 300 570 l 83 570 l 83 763 l 300 763 m 271 478 l 300 -235 l 83 -235 l 112 478 l 271 478 z "},"¿":{"ha":720,"x_min":39,"x_max":701,"o":"m 483 570 l 265 570 l 265 763 l 483 763 l 483 570 m 365 -248 q 230 -229 290 -248 q 127 -175 170 -210 q 62 -91 85 -140 q 39 21 39 -41 q 57 123 39 80 q 103 198 75 165 q 163 255 131 231 q 224 303 196 280 q 270 351 252 327 q 289 408 289 376 l 289 484 l 461 484 l 461 410 q 446 314 461 352 q 408 249 431 275 q 357 202 385 222 q 307 161 330 182 q 269 113 284 140 q 254 44 254 86 q 288 -45 254 -13 q 380 -78 321 -78 q 475 -42 436 -78 q 545 72 515 -7 l 701 -18 q 582 -191 668 -133 q 365 -248 495 -248 z "},"°":{"ha":573,"x_min":47,"x_max":526,"o":"m 47 783 q 65 880 47 836 q 113 956 82 924 q 189 1005 144 987 q 287 1022 233 1022 q 385 1005 340 1022 q 460 956 429 987 q 508 880 491 924 q 526 783 526 836 q 508 685 526 729 q 460 609 491 641 q 385 561 429 578 q 287 543 340 543 q 189 561 233 543 q 113 609 144 578 q 65 685 82 641 q 47 783 47 729 m 175 783 q 183 736 175 758 q 205 700 191 715 q 241 677 220 685 q 287 669 262 669 q 333 677 312 669 q 368 700 353 685 q 390 736 382 715 q 398 783 398 758 q 390 829 398 808 q 368 865 382 850 q 333 888 353 880 q 287 897 312 897 q 241 888 262 897 q 205 865 220 880 q 183 829 191 850 q 175 783 175 808 z "},"ª":{"ha":555,"x_min":33,"x_max":515,"o":"m 40 591 q 66 674 40 640 q 150 735 92 709 q 233 762 179 749 q 362 790 286 776 l 362 811 q 337 871 362 852 q 269 891 313 891 q 159 782 180 891 l 33 822 q 111 963 47 915 q 280 1011 175 1011 q 379 999 335 1011 q 453 965 422 987 q 499 910 484 943 q 515 836 515 878 l 515 464 l 362 464 l 362 526 q 296 472 337 491 q 201 453 255 453 q 83 490 125 453 q 40 591 40 526 m 362 700 q 289 684 317 692 q 241 669 260 677 q 195 609 195 646 q 212 572 195 586 q 256 558 229 558 q 295 566 277 558 q 329 585 314 573 q 352 614 343 597 q 362 648 361 630 l 362 700 z "},"º":{"ha":635,"x_min":35,"x_max":600,"o":"m 317 1011 q 436 991 384 1011 q 525 935 488 971 q 580 847 561 899 q 600 732 600 795 q 580 618 600 669 q 525 530 561 566 q 436 473 488 493 q 317 453 384 453 q 199 473 252 453 q 110 530 146 493 q 55 618 74 566 q 35 732 35 669 q 55 847 35 795 q 110 935 74 899 q 199 991 146 971 q 317 1011 252 1011 m 317 885 q 223 845 255 885 q 192 732 192 806 q 223 618 192 658 q 317 579 255 579 q 412 618 380 579 q 443 732 443 658 q 412 845 443 806 q 317 885 380 885 z "},"⁄":{"ha":522,"x_min":-19,"x_max":541,"o":"m 541 1038 l 129 -41 l -19 -41 l 393 1038 l 541 1038 z "},"‰":{"ha":2069,"x_min":66,"x_max":2003,"o":"m 1177 1038 l 468 -41 l 289 -41 l 998 1038 l 1177 1038 m 333 412 q 224 431 273 412 q 140 487 176 450 q 86 578 105 524 q 66 705 66 633 q 86 830 66 776 q 140 921 105 884 q 224 976 176 958 q 333 995 273 995 q 441 976 392 995 q 524 921 490 958 q 578 830 559 884 q 597 705 597 776 q 578 578 597 633 q 524 487 559 524 q 441 431 490 450 q 333 412 392 412 m 333 850 q 257 815 286 850 q 229 705 229 779 q 257 593 229 629 q 333 557 286 557 q 407 593 379 557 q 435 705 435 629 q 407 815 435 779 q 333 850 379 850 m 1134 0 q 1025 19 1074 0 q 941 74 977 37 q 887 166 906 111 q 867 292 867 220 q 887 418 867 363 q 941 509 906 472 q 1025 564 977 545 q 1134 583 1074 583 q 1242 564 1193 583 q 1325 509 1291 545 q 1379 418 1360 472 q 1398 292 1398 363 q 1379 166 1398 220 q 1325 74 1360 111 q 1242 19 1291 37 q 1134 0 1193 0 m 1738 0 q 1630 19 1678 0 q 1546 74 1581 37 q 1491 166 1510 111 q 1472 292 1472 220 q 1491 418 1472 363 q 1546 509 1510 472 q 1630 564 1581 545 q 1738 583 1678 583 q 1846 564 1797 583 q 1929 509 1895 545 q 1983 418 1964 472 q 2003 292 2003 363 q 1983 166 2003 220 q 1929 74 1964 111 q 1846 19 1895 37 q 1738 0 1797 0 m 1134 438 q 1058 402 1086 438 q 1029 292 1029 367 q 1058 181 1029 217 q 1134 145 1086 145 q 1208 181 1180 145 q 1236 292 1236 217 q 1208 402 1236 367 q 1134 438 1180 438 m 1738 438 q 1663 402 1691 438 q 1634 292 1634 367 q 1663 181 1634 217 q 1738 145 1691 145 q 1813 181 1784 145 q 1841 292 1841 217 q 1813 402 1841 367 q 1738 438 1784 438 z "},"μ":{"ha":863,"x_min":66,"x_max":789,"o":"m 414 157 q 481 170 451 157 q 533 205 511 183 q 566 257 554 228 q 578 320 578 287 l 578 763 l 789 763 l 789 0 l 578 0 l 578 95 q 475 16 536 45 q 341 -15 414 -14 q 278 1 305 -15 l 278 -218 l 66 -218 l 66 763 l 278 763 l 278 287 q 288 234 278 258 q 315 193 297 210 q 358 166 333 176 q 414 157 383 157 z "},"¶":{"ha":951,"x_min":45,"x_max":836,"o":"m 363 369 q 231 391 290 369 q 131 454 172 413 q 67 553 90 494 q 45 683 45 611 q 67 813 45 755 q 131 912 90 871 q 231 975 172 953 q 363 997 290 997 l 534 997 l 534 -202 l 363 -202 l 363 369 m 665 997 l 836 997 l 836 -202 l 665 -202 l 665 997 z "},"§":{"ha":799,"x_min":66,"x_max":732,"o":"m 113 768 q 133 866 113 823 q 190 940 153 909 q 281 987 228 970 q 401 1004 335 1004 q 578 968 503 1004 q 696 861 653 932 l 578 772 q 496 845 539 821 q 401 869 452 869 q 321 845 351 869 q 291 781 291 821 q 310 730 291 751 q 360 693 329 709 q 430 663 391 677 q 512 634 470 649 q 593 599 553 618 q 664 551 633 579 q 713 485 694 524 q 732 393 732 447 q 703 274 732 330 q 621 183 674 219 q 669 117 651 155 q 686 24 686 79 q 666 -74 686 -31 q 609 -148 646 -117 q 517 -195 571 -178 q 397 -212 464 -212 q 220 -176 295 -212 q 102 -68 146 -140 l 220 20 q 302 -53 259 -29 q 397 -77 346 -77 q 478 -53 448 -77 q 508 12 508 -29 q 489 62 508 41 q 439 99 470 83 q 369 129 408 115 q 287 158 329 143 q 206 193 245 174 q 135 241 166 213 q 85 307 104 269 q 66 399 66 345 q 96 518 66 463 q 178 609 125 573 q 130 675 148 637 q 113 768 113 713 m 498 257 q 536 303 522 277 q 550 359 550 329 q 528 423 550 397 q 469 467 505 448 q 389 501 433 486 q 301 535 345 516 q 263 489 277 515 q 249 433 249 463 q 271 369 249 395 q 330 325 294 344 q 410 291 366 307 q 498 257 454 276 z "},"†":{"ha":664,"x_min":43,"x_max":621,"o":"m 243 589 l 43 589 l 43 763 l 243 763 l 243 1085 l 420 1085 l 420 763 l 621 763 l 621 589 l 420 589 l 420 -186 l 243 -186 l 243 589 z "},"‡":{"ha":691,"x_min":47,"x_max":644,"o":"m 257 136 l 47 136 l 47 310 l 257 310 l 257 589 l 47 589 l 47 763 l 257 763 l 257 1085 l 433 1085 l 433 763 l 644 763 l 644 589 l 433 589 l 433 310 l 644 310 l 644 136 l 433 136 l 433 -186 l 257 -186 l 257 136 z "},"~":{"ha":876,"x_min":66,"x_max":810,"o":"m 298 501 q 358 494 331 501 q 408 477 385 488 q 451 456 431 467 q 492 434 471 444 q 533 417 512 424 q 579 410 554 410 q 648 431 608 410 q 745 491 687 452 l 810 360 q 752 317 783 337 q 691 283 722 298 q 631 261 661 269 q 575 253 601 253 q 516 260 543 253 q 466 277 489 267 q 422 298 443 287 q 381 320 401 310 q 339 337 361 330 q 292 344 317 344 q 225 323 264 344 q 131 262 186 302 l 66 393 q 121 437 92 417 q 181 471 151 456 q 241 493 212 485 q 298 501 271 501 z "},"‹":{"ha":464,"x_min":62,"x_max":397,"o":"m 62 329 l 62 435 l 208 629 l 395 629 l 213 382 l 397 134 l 210 134 l 62 329 z "},"›":{"ha":464,"x_min":66,"x_max":402,"o":"m 250 382 l 68 629 l 256 629 l 402 435 l 402 329 l 254 134 l 66 134 l 250 382 z "},"«":{"ha":770,"x_min":62,"x_max":703,"o":"m 62 329 l 62 435 l 208 629 l 395 629 l 213 382 l 397 134 l 210 134 l 62 329 m 368 329 l 368 435 l 514 629 l 701 629 l 519 382 l 703 134 l 515 134 l 368 329 z "},"»":{"ha":770,"x_min":66,"x_max":708,"o":"m 556 382 l 374 629 l 562 629 l 708 435 l 708 329 l 559 134 l 372 134 l 556 382 m 250 382 l 68 629 l 256 629 l 402 435 l 402 329 l 254 134 l 66 134 l 250 382 z "},"Þ":{"ha":948,"x_min":83,"x_max":909,"o":"m 83 997 l 300 997 l 300 823 l 529 823 q 814 740 718 823 q 909 496 909 656 q 814 256 909 337 q 529 174 719 174 l 300 174 l 300 0 l 83 0 l 83 997 m 498 349 q 648 385 602 349 q 693 498 693 420 q 647 610 693 574 q 498 646 602 646 l 300 646 l 300 349 l 498 349 z "},"þ":{"ha":885,"x_min":69,"x_max":847,"o":"m 528 778 q 659 749 600 778 q 759 669 718 721 q 824 543 801 616 q 847 381 847 470 q 824 219 847 292 q 759 94 801 146 q 659 13 718 42 q 528 -16 600 -16 q 386 18 448 -16 q 281 114 323 52 l 281 -268 l 69 -268 l 69 1042 l 281 1042 l 281 649 q 386 744 323 711 q 528 778 448 778 m 456 600 q 327 542 372 600 q 281 380 281 484 q 293 289 281 330 q 327 220 304 248 q 382 178 349 193 q 456 163 415 163 q 585 220 539 163 q 631 380 631 277 q 585 542 631 485 q 456 600 539 600 z "},"ß":{"ha":903,"x_min":70,"x_max":865,"o":"m 522 0 l 401 0 l 401 174 l 501 174 q 614 208 573 174 q 655 302 655 241 q 612 397 655 364 q 488 429 568 429 l 411 429 l 411 587 l 465 587 q 514 595 492 587 q 553 621 536 604 q 578 660 569 637 q 587 711 587 683 q 547 804 587 770 q 439 838 508 838 q 320 787 358 838 q 281 629 281 736 l 281 0 l 70 0 l 70 650 q 94 799 70 732 q 165 912 117 865 q 283 985 212 960 q 448 1010 354 1010 q 592 992 528 1010 q 703 939 657 973 q 772 855 748 904 q 797 745 797 806 q 761 607 797 666 q 663 515 726 547 q 747 480 710 502 q 811 427 785 458 q 851 355 837 395 q 865 267 865 315 q 840 156 865 205 q 771 73 816 107 q 663 19 726 38 q 522 0 600 0 z "},"ð":{"ha":834,"x_min":38,"x_max":796,"o":"m 602 540 l 602 543 q 587 613 600 578 q 553 679 574 647 q 503 740 532 711 q 439 793 474 769 l 235 700 l 235 789 l 350 842 q 270 871 311 860 q 184 887 228 882 l 258 1037 q 413 1001 340 1027 q 548 933 486 975 l 733 1018 l 733 928 l 619 876 q 749 693 703 798 q 796 467 796 589 q 771 264 796 353 q 696 112 745 174 q 574 18 646 50 q 407 -15 501 -15 q 257 11 325 -15 q 140 82 189 36 q 65 194 92 129 q 38 337 38 258 q 61 469 38 410 q 126 570 84 528 q 226 635 168 612 q 355 659 284 659 q 501 628 437 659 q 602 540 565 597 m 584 337 q 571 407 584 375 q 535 460 558 438 q 480 495 512 483 q 409 508 448 508 q 339 495 371 508 q 285 460 308 483 q 250 405 262 437 q 237 334 237 373 q 250 262 237 295 q 285 207 262 230 q 339 171 307 184 q 408 158 370 158 q 481 171 448 158 q 536 207 513 184 q 571 263 559 231 q 584 337 584 296 z "},"˘":{"ha":464,"x_min":0,"x_max":464,"o":"m 233 970 q 309 999 281 970 q 337 1076 337 1027 l 464 1076 q 448 977 464 1021 q 403 904 433 934 q 331 858 374 873 q 233 842 288 842 q 135 858 178 842 q 61 904 92 873 q 16 977 31 934 q 0 1076 0 1021 l 127 1076 q 156 999 127 1027 q 233 970 184 970 z "},"˙":{"ha":216,"x_min":12,"x_max":203,"o":"m 12 1042 l 203 1042 l 203 844 l 12 844 l 12 1042 z "},"˚":{"ha":360,"x_min":0,"x_max":360,"o":"m 180 817 q 106 829 140 817 q 50 864 73 842 q 13 918 26 886 q 0 988 0 949 q 13 1059 0 1027 q 50 1113 26 1090 q 106 1148 73 1136 q 180 1160 140 1160 q 254 1149 220 1160 q 311 1117 287 1138 q 347 1065 334 1095 q 360 996 360 1034 q 347 924 360 957 q 311 868 334 892 q 254 831 287 844 q 180 817 220 817 m 180 911 q 235 932 214 911 q 256 988 256 954 q 235 1044 256 1023 q 180 1065 214 1065 q 125 1044 146 1065 q 104 988 104 1023 q 125 932 104 954 q 180 911 146 911 z "},"˝":{"ha":493,"x_min":0,"x_max":493,"o":"m 0 836 l 84 1093 l 254 1093 l 145 836 l 0 836 m 239 836 l 323 1093 l 493 1093 l 385 836 l 239 836 z "},"˛":{"ha":283,"x_min":0,"x_max":283,"o":"m 222 -179 q 255 -176 239 -179 q 283 -170 271 -174 l 283 -258 q 224 -277 260 -269 q 151 -284 188 -285 q 40 -250 81 -283 q 0 -157 0 -216 q 8 -107 0 -132 q 32 -59 17 -82 q 70 -17 47 -37 q 119 18 92 3 l 228 18 q 168 -47 191 -12 q 145 -111 145 -82 q 166 -161 145 -144 q 222 -179 187 -179 z "},"ˇ":{"ha":499,"x_min":0,"x_max":499,"o":"m 344 1088 l 499 1088 l 349 836 l 150 836 l 0 1088 l 155 1088 l 250 931 l 344 1088 z "},"ı":{"ha":351,"x_min":69,"x_max":281,"o":"m 69 763 l 281 763 l 281 0 l 69 0 l 69 763 z "},"`":{"ha":334,"x_min":0,"x_max":321,"o":"m 161 836 l 0 1088 l 195 1088 l 321 836 l 161 836 z "},"ˆ":{"ha":499,"x_min":0,"x_max":499,"o":"m 344 836 l 250 991 l 155 836 l 0 836 l 150 1088 l 349 1088 l 499 836 l 344 836 z "},"¨":{"ha":422,"x_min":4,"x_max":418,"o":"m 4 1086 l 161 1086 l 161 876 l 4 876 l 4 1086 m 260 1086 l 418 1086 l 418 876 l 260 876 l 260 1086 z "},"´":{"ha":334,"x_min":14,"x_max":334,"o":"m 139 1093 l 334 1093 l 173 836 l 14 836 l 139 1093 z "},"¸":{"ha":284,"x_min":0,"x_max":284,"o":"m 0 -212 q 103 -198 64 -212 q 142 -156 142 -184 q 133 -133 142 -142 q 112 -119 125 -124 q 86 -112 100 -114 q 61 -109 72 -109 l 47 -55 l 106 17 l 198 17 l 139 -56 q 198 -66 172 -58 q 244 -89 224 -75 q 274 -122 263 -103 q 284 -165 284 -142 q 263 -223 284 -197 q 204 -266 241 -249 q 114 -290 166 -283 q 0 -292 62 -296 l 0 -212 z "},"ĸ":{"ha":819,"x_min":69,"x_max":810,"o":"m 69 763 l 281 763 l 281 484 l 540 764 l 791 764 l 526 489 l 810 0 l 576 0 l 384 336 l 281 233 l 281 0 l 69 0 l 69 763 z "},"ȷ":{"ha":450,"x_min":-6,"x_max":380,"o":"m 380 -39 q 364 -125 380 -87 q 320 -191 348 -164 q 254 -232 292 -218 q 172 -247 216 -247 l -6 -247 l -6 -83 l 90 -83 q 151 -62 132 -83 q 169 9 169 -41 l 169 763 l 380 763 l 380 -39 z "},"₣":{"ha":857,"x_min":19,"x_max":791,"o":"m 149 153 l 19 153 l 19 286 l 149 286 l 149 997 l 791 997 l 791 822 l 366 822 l 366 614 l 764 614 l 764 445 l 366 445 l 366 286 l 616 286 l 616 153 l 366 153 l 366 0 l 149 0 l 149 153 z "},"₤":{"ha":791,"x_min":57,"x_max":749,"o":"m 431 1010 q 634 957 553 1010 q 749 802 716 903 l 606 713 q 544 807 579 779 q 453 836 509 836 q 350 799 385 836 q 314 694 314 762 q 323 626 314 656 q 345 565 332 595 l 646 565 l 646 471 l 377 471 q 387 428 382 450 q 393 380 391 406 l 646 380 l 646 287 l 389 287 q 388 274 388 280 q 386 260 387 268 q 360 203 378 229 q 315 157 342 177 l 748 157 l 748 0 l 57 0 l 57 157 l 79 157 q 120 163 99 157 q 160 181 142 170 q 193 208 179 192 q 213 245 208 224 q 214 267 214 256 q 214 287 214 277 l 57 287 l 57 380 l 203 380 q 189 427 197 404 q 172 471 181 449 l 57 471 l 57 565 l 135 565 q 121 630 126 595 q 115 705 115 665 q 137 834 115 778 q 199 930 158 891 q 298 990 239 969 q 431 1010 357 1010 z "},"Ω":{"ha":1021,"x_min":62,"x_max":958,"o":"m 64 161 l 304 161 l 304 203 q 204 266 249 229 q 129 352 160 303 q 80 458 97 400 q 62 584 62 517 q 94 760 62 681 q 185 894 126 838 q 326 981 243 950 q 510 1011 409 1011 q 694 981 611 1011 q 835 894 777 950 q 926 760 894 838 q 958 584 958 681 q 941 458 958 517 q 892 352 924 400 q 816 266 861 303 q 716 203 771 229 l 716 161 l 956 161 l 956 0 l 574 0 l 574 331 q 644 365 612 342 q 699 420 676 387 q 734 494 722 453 q 747 583 747 535 q 730 687 747 640 q 683 767 713 734 q 608 818 652 800 q 510 836 564 836 q 412 818 456 836 q 337 767 368 800 q 290 687 307 734 q 273 583 273 640 q 286 494 273 536 q 321 420 298 453 q 376 365 344 388 q 446 331 408 342 l 446 0 l 64 0 l 64 161 z "},"℮":{"ha":1083,"x_min":68,"x_max":1015,"o":"m 536 78 q 725 127 640 78 q 871 269 811 176 l 987 269 q 914 155 961 207 q 805 66 867 104 q 673 7 744 28 q 527 -14 602 -14 q 340 24 425 -14 q 195 129 256 61 q 101 291 135 196 q 68 499 68 385 q 102 707 68 613 q 199 869 136 802 q 348 973 261 936 q 540 1010 435 1010 q 738 971 650 1010 q 887 860 826 932 q 982 683 949 787 q 1015 448 1015 578 l 272 448 l 272 184 q 389 104 321 130 q 536 78 456 78 m 810 540 l 810 806 q 678 891 747 863 q 530 919 609 919 q 385 892 450 919 q 272 811 320 866 l 272 540 l 810 540 z "},"∂":{"ha":810,"x_min":38,"x_max":762,"o":"m 576 534 l 576 540 q 547 679 571 621 q 479 776 524 738 q 370 833 435 814 q 216 852 304 852 q 180 851 199 852 q 146 848 162 850 l 146 1007 q 182 1010 161 1008 q 227 1011 202 1011 q 628 874 494 1011 q 762 467 762 736 q 739 264 762 353 q 670 112 716 174 q 556 18 625 50 q 396 -15 487 -15 q 250 11 316 -15 q 137 82 184 36 q 64 193 90 128 q 38 335 38 257 q 60 467 38 408 q 122 568 82 526 q 218 633 162 610 q 341 656 273 656 q 481 625 421 656 q 576 534 542 593 m 555 328 q 543 404 555 370 q 509 463 531 438 q 456 501 487 488 q 389 515 426 515 q 320 501 351 515 q 268 463 290 488 q 233 405 245 439 q 221 328 221 370 q 233 251 221 286 q 268 192 245 216 q 320 153 290 167 q 388 139 351 139 q 456 153 425 139 q 509 192 487 167 q 543 251 531 216 q 555 328 555 286 z "},"Δ":{"ha":1006,"x_min":11,"x_max":995,"o":"m 328 997 l 677 997 l 995 0 l 11 0 l 328 997 m 717 175 l 503 850 l 289 175 l 717 175 z "},"∏":{"ha":941,"x_min":85,"x_max":856,"o":"m 85 1085 l 856 1085 l 856 -233 l 658 -233 l 658 911 l 283 911 l 283 -233 l 85 -233 l 85 1085 z "},"∑":{"ha":766,"x_min":38,"x_max":728,"o":"m 339 426 l 38 903 l 38 1085 l 728 1085 l 728 903 l 259 903 l 560 426 l 259 -51 l 728 -51 l 728 -233 l 38 -233 l 38 -51 l 339 426 z "},"√":{"ha":896,"x_min":14,"x_max":886,"o":"m 161 287 l 14 287 l 14 446 l 294 446 l 435 -41 l 706 1085 l 886 1085 l 569 -233 l 313 -233 l 161 287 z "},"∞":{"ha":1101,"x_min":47,"x_max":1053,"o":"m 47 414 q 66 520 47 473 q 118 601 85 568 q 200 653 152 635 q 305 672 248 672 q 445 636 386 672 q 551 538 504 601 q 656 636 597 601 q 795 672 715 672 q 901 653 854 672 q 982 601 949 635 q 1035 520 1016 568 q 1053 414 1053 473 q 1035 309 1053 356 q 982 227 1016 261 q 901 175 949 193 q 795 156 854 156 q 656 192 715 156 q 551 290 597 227 q 445 192 504 227 q 305 156 386 156 q 200 175 248 156 q 118 227 152 193 q 66 309 85 261 q 47 414 47 356 m 198 414 q 231 324 198 357 q 319 290 264 290 q 368 299 346 290 q 410 324 391 308 q 444 363 429 340 q 474 414 460 386 q 410 504 446 471 q 319 538 373 538 q 269 529 292 538 q 231 504 247 520 q 207 465 216 488 q 198 414 198 442 m 903 414 q 894 465 903 442 q 870 504 886 488 q 832 529 854 520 q 782 538 810 538 q 691 504 728 538 q 627 414 654 471 q 656 363 641 386 q 691 324 672 340 q 732 299 710 308 q 782 290 755 290 q 832 299 810 290 q 870 324 854 308 q 894 363 886 340 q 903 414 903 386 z "},"∫":{"ha":694,"x_min":95,"x_max":600,"o":"m 449 -39 q 437 -120 449 -83 q 403 -181 425 -156 q 349 -220 380 -206 q 277 -233 317 -233 l 95 -233 l 95 -57 l 161 -57 q 225 -30 204 -57 q 245 53 245 -3 l 245 854 q 258 935 245 899 q 292 996 270 971 q 347 1035 315 1021 q 418 1048 378 1048 l 600 1048 l 600 872 l 533 872 q 470 845 490 872 q 449 762 449 819 l 449 -39 z "},"≈":{"ha":876,"x_min":66,"x_max":810,"o":"m 298 357 q 358 351 331 357 q 408 334 385 344 q 451 312 431 323 q 492 290 471 300 q 533 273 512 280 q 579 267 554 267 q 648 288 608 267 q 745 347 687 309 l 810 216 q 752 174 783 193 q 691 140 722 154 q 631 117 661 125 q 575 109 601 109 q 516 116 543 109 q 466 133 489 123 q 422 155 443 143 q 381 176 401 166 q 339 193 361 186 q 292 200 317 200 q 225 179 264 200 q 131 119 186 158 l 66 250 q 121 293 92 273 q 181 327 151 313 q 241 349 212 341 q 298 357 271 357 m 298 637 q 358 630 331 637 q 408 613 385 623 q 451 591 431 603 q 492 570 471 580 q 533 553 512 559 q 579 546 554 546 q 648 567 608 546 q 745 627 687 588 l 810 496 q 752 453 783 473 q 691 419 722 433 q 631 397 661 405 q 575 389 601 389 q 516 395 543 389 q 466 412 489 402 q 422 434 443 422 q 381 456 401 446 q 339 473 361 466 q 292 479 317 479 q 225 458 264 479 q 131 398 186 437 l 66 529 q 121 572 92 553 q 181 606 151 592 q 241 629 212 621 q 298 637 271 637 z "},"≠":{"ha":866,"x_min":60,"x_max":806,"o":"m 657 739 l 604 600 l 806 600 l 806 440 l 543 440 l 482 282 l 806 282 l 806 123 l 421 123 l 372 -8 l 210 -8 l 259 123 l 60 123 l 60 282 l 320 282 l 380 440 l 60 440 l 60 600 l 441 600 l 495 739 l 657 739 z "},"≤":{"ha":823,"x_min":57,"x_max":766,"o":"m 766 795 l 766 641 l 283 493 l 766 345 l 766 191 l 57 408 l 57 578 l 766 795 m 57 148 l 766 148 l 766 0 l 57 0 l 57 148 z "},"≥":{"ha":823,"x_min":57,"x_max":766,"o":"m 766 408 l 58 191 l 58 345 l 541 493 l 58 641 l 58 795 l 766 578 l 766 408 m 57 0 l 57 148 l 766 148 l 766 0 l 57 0 z "},"◊":{"ha":881,"x_min":43,"x_max":838,"o":"m 560 1044 l 838 498 l 560 -50 l 321 -50 l 43 498 l 321 1044 l 560 1044 m 659 498 l 441 931 l 222 498 l 441 64 l 659 498 z "},"…":{"ha":1114,"x_min":77,"x_max":1036,"o":"m 77 239 l 293 239 l 293 -1 l 77 -1 l 77 239 m 449 239 l 665 239 l 665 -1 l 449 -1 l 449 239 m 821 239 l 1036 239 l 1036 -1 l 821 -1 l 821 239 z "},"À":{"ha":1001,"x_min":9,"x_max":993,"o":"m 9 0 l 321 997 l 680 997 l 993 0 l 765 0 l 694 229 l 307 229 l 236 0 l 9 0 m 643 404 l 500 867 l 358 404 l 643 404 m 434 1069 l 273 1322 l 468 1322 l 593 1069 l 434 1069 z "},"Á":{"ha":1001,"x_min":9,"x_max":993,"o":"m 9 0 l 321 997 l 680 997 l 993 0 l 765 0 l 694 229 l 307 229 l 236 0 l 9 0 m 643 404 l 500 867 l 358 404 l 643 404 m 522 1326 l 717 1326 l 555 1069 l 396 1069 l 522 1326 z "},"Â":{"ha":1001,"x_min":9,"x_max":993,"o":"m 9 0 l 321 997 l 680 997 l 993 0 l 765 0 l 694 229 l 307 229 l 236 0 l 9 0 m 643 404 l 500 867 l 358 404 l 643 404 m 595 1069 l 500 1225 l 406 1069 l 251 1069 l 401 1322 l 600 1322 l 750 1069 l 595 1069 z "},"Ã":{"ha":1001,"x_min":9,"x_max":993,"o":"m 9 0 l 321 997 l 680 997 l 993 0 l 765 0 l 694 229 l 307 229 l 236 0 l 9 0 m 643 404 l 500 867 l 358 404 l 643 404 m 520 1242 q 557 1221 541 1228 q 589 1215 574 1215 q 635 1232 612 1215 q 688 1287 657 1249 l 755 1184 q 681 1108 720 1133 q 598 1082 642 1082 q 477 1125 543 1082 q 439 1146 456 1139 q 407 1153 422 1153 q 362 1136 385 1153 q 311 1081 340 1119 l 243 1184 q 397 1284 311 1284 q 520 1242 453 1284 z "},"Å":{"ha":1001,"x_min":9,"x_max":993,"o":"m 9 0 l 321 997 l 680 997 l 993 0 l 765 0 l 694 229 l 307 229 l 236 0 l 9 0 m 643 404 l 500 867 l 358 404 l 643 404 m 501 1051 q 427 1063 460 1051 q 370 1098 394 1076 q 334 1152 347 1120 q 321 1222 321 1183 q 334 1293 321 1261 q 370 1347 347 1324 q 427 1382 394 1370 q 501 1394 460 1394 q 574 1383 541 1394 q 631 1351 608 1372 q 668 1299 655 1329 q 681 1230 681 1268 q 668 1158 681 1191 q 631 1102 655 1126 q 574 1065 608 1078 q 501 1051 541 1051 m 501 1145 q 556 1166 535 1145 q 577 1222 577 1187 q 556 1278 577 1257 q 501 1299 535 1299 q 446 1278 467 1299 q 425 1222 425 1257 q 446 1166 425 1187 q 501 1145 467 1145 z "},"Ç":{"ha":990,"x_min":43,"x_max":957,"o":"m 532 1011 q 800 941 696 1011 q 957 736 903 871 l 793 646 q 738 731 766 696 q 678 789 709 766 q 610 821 646 811 q 531 831 574 831 q 417 809 467 831 q 333 745 367 787 q 281 641 299 703 q 264 498 264 578 q 281 356 264 418 q 333 252 299 294 q 415 187 366 209 q 528 165 465 165 q 607 175 570 165 q 674 208 643 185 q 734 266 706 230 q 790 351 763 301 l 954 260 q 883 135 925 187 q 788 50 842 83 q 668 1 734 16 q 526 -15 603 -15 l 493 -56 q 552 -66 525 -58 q 597 -89 578 -75 q 627 -122 616 -103 q 637 -165 637 -142 q 616 -223 637 -197 q 557 -266 595 -249 q 467 -290 519 -283 q 353 -292 415 -296 l 353 -212 q 456 -198 417 -212 q 495 -156 495 -184 q 487 -133 495 -142 q 466 -119 478 -124 q 439 -111 453 -113 q 414 -109 425 -109 l 401 -55 l 439 -9 q 273 46 347 5 q 148 152 199 87 q 70 304 97 217 q 43 498 43 392 q 77 712 43 617 q 174 873 111 807 q 327 976 237 940 q 532 1011 418 1011 z "},"È":{"ha":862,"x_min":83,"x_max":804,"o":"m 83 997 l 804 997 l 804 822 l 300 822 l 300 594 l 777 594 l 777 425 l 300 425 l 300 175 l 804 175 l 804 0 l 83 0 l 83 997 m 364 1069 l 203 1322 l 398 1322 l 524 1069 l 364 1069 z "},"É":{"ha":862,"x_min":83,"x_max":804,"o":"m 83 997 l 804 997 l 804 822 l 300 822 l 300 594 l 777 594 l 777 425 l 300 425 l 300 175 l 804 175 l 804 0 l 83 0 l 83 997 m 452 1326 l 647 1326 l 486 1069 l 326 1069 l 452 1326 z "},"Ê":{"ha":862,"x_min":83,"x_max":804,"o":"m 83 997 l 804 997 l 804 822 l 300 822 l 300 594 l 777 594 l 777 425 l 300 425 l 300 175 l 804 175 l 804 0 l 83 0 l 83 997 m 525 1069 l 431 1225 l 336 1069 l 181 1069 l 331 1322 l 530 1322 l 680 1069 l 525 1069 z "},"Ì":{"ha":382,"x_min":-37,"x_max":300,"o":"m 83 997 l 300 997 l 300 0 l 83 0 l 83 997 m 125 1069 l -37 1322 l 159 1322 l 284 1069 l 125 1069 z "},"Í":{"ha":382,"x_min":83,"x_max":408,"o":"m 83 997 l 300 997 l 300 0 l 83 0 l 83 997 m 212 1326 l 408 1326 l 246 1069 l 87 1069 l 212 1326 z "},"Î":{"ha":382,"x_min":-58,"x_max":441,"o":"m 83 997 l 300 997 l 300 0 l 83 0 l 83 997 m 286 1069 l 191 1225 l 97 1069 l -58 1069 l 92 1322 l 291 1322 l 441 1069 l 286 1069 z "},"Ñ":{"ha":1029,"x_min":83,"x_max":947,"o":"m 83 997 l 380 997 l 730 246 l 730 997 l 947 997 l 947 0 l 644 0 l 300 743 l 300 0 l 83 0 l 83 997 m 534 1242 q 571 1221 555 1228 q 604 1215 588 1215 q 649 1232 627 1215 q 702 1287 671 1249 l 769 1184 q 695 1108 734 1133 q 612 1082 656 1082 q 491 1125 557 1082 q 453 1146 470 1139 q 421 1153 437 1153 q 377 1136 399 1153 q 325 1081 355 1119 l 258 1184 q 412 1284 326 1284 q 534 1242 467 1284 z "},"Ò":{"ha":1073,"x_min":43,"x_max":1029,"o":"m 43 498 q 77 711 43 616 q 175 873 111 806 q 331 976 239 940 q 536 1011 422 1011 q 742 976 650 1011 q 897 873 833 940 q 995 712 961 807 q 1029 498 1029 617 q 995 285 1029 380 q 897 123 961 190 q 742 21 833 57 q 536 -15 650 -15 q 331 21 422 -15 q 175 123 239 57 q 77 285 111 190 q 43 498 43 380 m 264 498 q 282 356 264 418 q 334 252 300 294 q 420 187 369 209 q 536 165 471 165 q 739 251 669 165 q 809 498 809 337 q 791 641 809 578 q 739 745 773 703 q 653 809 704 787 q 536 831 602 831 q 420 809 471 831 q 334 745 369 787 q 282 640 300 702 q 264 498 264 578 m 470 1069 l 309 1322 l 504 1322 l 629 1069 l 470 1069 z "},"Ó":{"ha":1073,"x_min":43,"x_max":1029,"o":"m 43 498 q 77 711 43 616 q 175 873 111 806 q 331 976 239 940 q 536 1011 422 1011 q 742 976 650 1011 q 897 873 833 940 q 995 712 961 807 q 1029 498 1029 617 q 995 285 1029 380 q 897 123 961 190 q 742 21 833 57 q 536 -15 650 -15 q 331 21 422 -15 q 175 123 239 57 q 77 285 111 190 q 43 498 43 380 m 264 498 q 282 356 264 418 q 334 252 300 294 q 420 187 369 209 q 536 165 471 165 q 739 251 669 165 q 809 498 809 337 q 791 641 809 578 q 739 745 773 703 q 653 809 704 787 q 536 831 602 831 q 420 809 471 831 q 334 745 369 787 q 282 640 300 702 q 264 498 264 578 m 557 1326 l 753 1326 l 591 1069 l 432 1069 l 557 1326 z "},"Ô":{"ha":1073,"x_min":43,"x_max":1029,"o":"m 43 498 q 77 711 43 616 q 175 873 111 806 q 331 976 239 940 q 536 1011 422 1011 q 742 976 650 1011 q 897 873 833 940 q 995 712 961 807 q 1029 498 1029 617 q 995 285 1029 380 q 897 123 961 190 q 742 21 833 57 q 536 -15 650 -15 q 331 21 422 -15 q 175 123 239 57 q 77 285 111 190 q 43 498 43 380 m 264 498 q 282 356 264 418 q 334 252 300 294 q 420 187 369 209 q 536 165 471 165 q 739 251 669 165 q 809 498 809 337 q 791 641 809 578 q 739 745 773 703 q 653 809 704 787 q 536 831 602 831 q 420 809 471 831 q 334 745 369 787 q 282 640 300 702 q 264 498 264 578 m 631 1069 l 536 1225 l 442 1069 l 287 1069 l 437 1322 l 636 1322 l 786 1069 l 631 1069 z "},"Õ":{"ha":1073,"x_min":43,"x_max":1029,"o":"m 43 498 q 77 711 43 616 q 175 873 111 806 q 331 976 239 940 q 536 1011 422 1011 q 742 976 650 1011 q 897 873 833 940 q 995 712 961 807 q 1029 498 1029 617 q 995 285 1029 380 q 897 123 961 190 q 742 21 833 57 q 536 -15 650 -15 q 331 21 422 -15 q 175 123 239 57 q 77 285 111 190 q 43 498 43 380 m 264 498 q 282 356 264 418 q 334 252 300 294 q 420 187 369 209 q 536 165 471 165 q 739 251 669 165 q 809 498 809 337 q 791 641 809 578 q 739 745 773 703 q 653 809 704 787 q 536 831 602 831 q 420 809 471 831 q 334 745 369 787 q 282 640 300 702 q 264 498 264 578 m 556 1242 q 593 1221 576 1228 q 625 1215 610 1215 q 671 1232 648 1215 q 724 1287 693 1249 l 791 1184 q 717 1108 755 1133 q 634 1082 678 1082 q 513 1125 579 1082 q 475 1146 492 1139 q 443 1153 458 1153 q 398 1136 420 1153 q 347 1081 376 1119 l 279 1184 q 433 1284 347 1284 q 556 1242 489 1284 z "},"Ù":{"ha":983,"x_min":79,"x_max":904,"o":"m 492 -15 q 315 10 392 -15 q 185 82 238 35 q 106 201 133 130 q 79 364 79 272 l 79 997 l 296 997 l 296 389 q 343 218 296 272 q 491 165 390 165 q 640 218 593 165 q 687 389 687 272 l 687 997 l 904 997 l 904 364 q 877 201 904 272 q 798 82 850 130 q 669 10 746 35 q 492 -15 593 -15 m 425 1069 l 263 1322 l 458 1322 l 584 1069 l 425 1069 z "},"Ú":{"ha":983,"x_min":79,"x_max":904,"o":"m 492 -15 q 315 10 392 -15 q 185 82 238 35 q 106 201 133 130 q 79 364 79 272 l 79 997 l 296 997 l 296 389 q 343 218 296 272 q 491 165 390 165 q 640 218 593 165 q 687 389 687 272 l 687 997 l 904 997 l 904 364 q 877 201 904 272 q 798 82 850 130 q 669 10 746 35 q 492 -15 593 -15 m 512 1326 l 707 1326 l 546 1069 l 387 1069 l 512 1326 z "},"Û":{"ha":983,"x_min":79,"x_max":904,"o":"m 492 -15 q 315 10 392 -15 q 185 82 238 35 q 106 201 133 130 q 79 364 79 272 l 79 997 l 296 997 l 296 389 q 343 218 296 272 q 491 165 390 165 q 640 218 593 165 q 687 389 687 272 l 687 997 l 904 997 l 904 364 q 877 201 904 272 q 798 82 850 130 q 669 10 746 35 q 492 -15 593 -15 m 586 1069 l 492 1225 l 397 1069 l 242 1069 l 392 1322 l 591 1322 l 741 1069 l 586 1069 z "},"Ý":{"ha":1005,"x_min":9,"x_max":996,"o":"m 503 572 l 746 997 l 996 997 l 609 357 l 609 0 l 396 0 l 396 356 l 9 997 l 258 997 l 503 572 m 524 1326 l 719 1326 l 557 1069 l 398 1069 l 524 1326 z "},"à":{"ha":791,"x_min":39,"x_max":721,"o":"m 49 181 q 86 298 49 249 q 205 386 123 348 q 323 425 247 405 q 509 465 400 444 l 509 496 q 473 583 509 555 q 374 612 437 612 q 270 573 309 612 q 215 454 231 534 l 39 510 q 150 710 60 642 q 389 778 239 778 q 528 761 467 778 q 633 713 590 745 q 698 634 675 681 q 721 528 721 588 l 721 0 l 509 0 l 509 90 q 414 12 473 39 q 279 -16 355 -16 q 182 -2 225 -16 q 110 37 140 12 q 65 99 81 62 q 49 181 49 136 m 509 337 q 400 313 443 324 q 331 290 357 302 q 263 205 263 259 q 288 151 263 172 q 353 131 313 131 q 411 141 383 131 q 459 170 438 152 q 494 211 481 188 q 509 259 508 234 l 509 337 m 329 836 l 168 1088 l 363 1088 l 488 836 l 329 836 z "},"á":{"ha":791,"x_min":39,"x_max":721,"o":"m 49 181 q 86 298 49 249 q 205 386 123 348 q 323 425 247 405 q 509 465 400 444 l 509 496 q 473 583 509 555 q 374 612 437 612 q 270 573 309 612 q 215 454 231 534 l 39 510 q 150 710 60 642 q 389 778 239 778 q 528 761 467 778 q 633 713 590 745 q 698 634 675 681 q 721 528 721 588 l 721 0 l 509 0 l 509 90 q 414 12 473 39 q 279 -16 355 -16 q 182 -2 225 -16 q 110 37 140 12 q 65 99 81 62 q 49 181 49 136 m 509 337 q 400 313 443 324 q 331 290 357 302 q 263 205 263 259 q 288 151 263 172 q 353 131 313 131 q 411 141 383 131 q 459 170 438 152 q 494 211 481 188 q 509 259 508 234 l 509 337 m 416 1093 l 612 1093 l 450 836 l 291 836 l 416 1093 z "},"â":{"ha":791,"x_min":39,"x_max":721,"o":"m 49 181 q 86 298 49 249 q 205 386 123 348 q 323 425 247 405 q 509 465 400 444 l 509 496 q 473 583 509 555 q 374 612 437 612 q 270 573 309 612 q 215 454 231 534 l 39 510 q 150 710 60 642 q 389 778 239 778 q 528 761 467 778 q 633 713 590 745 q 698 634 675 681 q 721 528 721 588 l 721 0 l 509 0 l 509 90 q 414 12 473 39 q 279 -16 355 -16 q 182 -2 225 -16 q 110 37 140 12 q 65 99 81 62 q 49 181 49 136 m 509 337 q 400 313 443 324 q 331 290 357 302 q 263 205 263 259 q 288 151 263 172 q 353 131 313 131 q 411 141 383 131 q 459 170 438 152 q 494 211 481 188 q 509 259 508 234 l 509 337 m 490 836 l 395 991 l 301 836 l 146 836 l 296 1088 l 495 1088 l 645 836 l 490 836 z "},"ã":{"ha":791,"x_min":39,"x_max":721,"o":"m 49 181 q 86 298 49 249 q 205 386 123 348 q 323 425 247 405 q 509 465 400 444 l 509 496 q 473 583 509 555 q 374 612 437 612 q 270 573 309 612 q 215 454 231 534 l 39 510 q 150 710 60 642 q 389 778 239 778 q 528 761 467 778 q 633 713 590 745 q 698 634 675 681 q 721 528 721 588 l 721 0 l 509 0 l 509 90 q 414 12 473 39 q 279 -16 355 -16 q 182 -2 225 -16 q 110 37 140 12 q 65 99 81 62 q 49 181 49 136 m 509 337 q 400 313 443 324 q 331 290 357 302 q 263 205 263 259 q 288 151 263 172 q 353 131 313 131 q 411 141 383 131 q 459 170 438 152 q 494 211 481 188 q 509 259 508 234 l 509 337 m 415 1008 q 452 987 435 994 q 484 981 469 981 q 530 998 507 981 q 583 1053 552 1015 l 650 950 q 576 874 614 899 q 493 848 537 848 q 372 891 438 848 q 334 912 351 905 q 302 919 317 919 q 257 902 279 919 q 205 847 235 885 l 138 950 q 292 1050 206 1050 q 415 1008 348 1050 z "},"å":{"ha":791,"x_min":39,"x_max":721,"o":"m 49 181 q 86 298 49 249 q 205 386 123 348 q 323 425 247 405 q 509 465 400 444 l 509 496 q 473 583 509 555 q 374 612 437 612 q 270 573 309 612 q 215 454 231 534 l 39 510 q 150 710 60 642 q 389 778 239 778 q 528 761 467 778 q 633 713 590 745 q 698 634 675 681 q 721 528 721 588 l 721 0 l 509 0 l 509 90 q 414 12 473 39 q 279 -16 355 -16 q 182 -2 225 -16 q 110 37 140 12 q 65 99 81 62 q 49 181 49 136 m 509 337 q 400 313 443 324 q 331 290 357 302 q 263 205 263 259 q 288 151 263 172 q 353 131 313 131 q 411 141 383 131 q 459 170 438 152 q 494 211 481 188 q 509 259 508 234 l 509 337 m 396 817 q 322 829 355 817 q 265 864 289 842 q 229 918 241 886 q 216 988 216 949 q 229 1059 216 1027 q 265 1113 241 1090 q 322 1148 289 1136 q 396 1160 355 1160 q 469 1149 436 1160 q 526 1117 503 1138 q 563 1065 550 1095 q 576 996 576 1034 q 563 924 576 957 q 526 868 550 892 q 469 831 503 844 q 396 817 436 817 m 396 911 q 451 932 430 911 q 472 988 472 954 q 451 1044 472 1023 q 396 1065 430 1065 q 340 1044 361 1065 q 319 988 319 1023 q 340 932 319 954 q 396 911 361 911 z "},"ç":{"ha":800,"x_min":38,"x_max":772,"o":"m 439 778 q 549 764 495 778 q 648 721 603 750 q 725 648 692 692 q 772 542 758 604 l 608 470 q 539 568 585 533 q 434 603 494 603 q 359 588 393 603 q 303 545 326 573 q 267 475 279 516 q 254 380 254 433 q 267 287 254 328 q 303 218 279 246 q 359 174 326 189 q 433 159 393 159 q 540 195 494 159 q 608 294 585 231 l 772 220 q 728 122 759 166 q 653 48 697 79 q 555 1 610 18 q 441 -16 501 -16 l 430 -16 l 397 -56 q 456 -66 429 -58 q 502 -89 483 -75 q 531 -122 521 -103 q 542 -165 542 -142 q 520 -223 542 -197 q 461 -266 499 -249 q 372 -290 424 -283 q 258 -292 319 -296 l 258 -212 q 361 -198 322 -212 q 399 -156 399 -184 q 391 -133 399 -142 q 370 -119 382 -124 q 343 -111 357 -113 q 319 -109 330 -109 l 305 -55 l 345 -7 q 216 40 273 7 q 119 124 159 74 q 59 239 79 174 q 38 381 38 304 q 65 544 38 471 q 145 669 93 616 q 271 749 197 721 q 439 778 345 778 z "},"è":{"ha":807,"x_min":38,"x_max":775,"o":"m 255 321 q 316 200 269 244 q 435 155 363 155 q 538 186 492 155 q 610 272 584 217 l 765 189 q 714 102 747 140 q 640 38 682 64 q 547 -2 597 12 q 441 -16 496 -16 q 272 13 347 -16 q 145 94 197 41 q 66 219 94 146 q 38 381 38 292 q 65 544 38 471 q 141 668 92 616 q 261 748 191 720 q 419 777 332 777 q 566 753 500 777 q 678 685 631 729 q 750 578 724 641 q 775 437 775 515 q 774 379 775 411 q 771 321 774 347 l 255 321 m 425 611 q 310 570 353 611 q 254 452 267 530 l 587 452 l 587 467 q 576 527 587 500 q 543 572 564 553 q 492 601 522 591 q 425 611 462 611 m 337 836 l 176 1088 l 371 1088 l 496 836 l 337 836 z "},"é":{"ha":807,"x_min":38,"x_max":775,"o":"m 255 321 q 316 200 269 244 q 435 155 363 155 q 538 186 492 155 q 610 272 584 217 l 765 189 q 714 102 747 140 q 640 38 682 64 q 547 -2 597 12 q 441 -16 496 -16 q 272 13 347 -16 q 145 94 197 41 q 66 219 94 146 q 38 381 38 292 q 65 544 38 471 q 141 668 92 616 q 261 748 191 720 q 419 777 332 777 q 566 753 500 777 q 678 685 631 729 q 750 578 724 641 q 775 437 775 515 q 774 379 775 411 q 771 321 774 347 l 255 321 m 425 611 q 310 570 353 611 q 254 452 267 530 l 587 452 l 587 467 q 576 527 587 500 q 543 572 564 553 q 492 601 522 591 q 425 611 462 611 m 425 1093 l 620 1093 l 458 836 l 299 836 l 425 1093 z "},"ê":{"ha":807,"x_min":38,"x_max":775,"o":"m 255 321 q 316 200 269 244 q 435 155 363 155 q 538 186 492 155 q 610 272 584 217 l 765 189 q 714 102 747 140 q 640 38 682 64 q 547 -2 597 12 q 441 -16 496 -16 q 272 13 347 -16 q 145 94 197 41 q 66 219 94 146 q 38 381 38 292 q 65 544 38 471 q 141 668 92 616 q 261 748 191 720 q 419 777 332 777 q 566 753 500 777 q 678 685 631 729 q 750 578 724 641 q 775 437 775 515 q 774 379 775 411 q 771 321 774 347 l 255 321 m 425 611 q 310 570 353 611 q 254 452 267 530 l 587 452 l 587 467 q 576 527 587 500 q 543 572 564 553 q 492 601 522 591 q 425 611 462 611 m 498 836 l 404 991 l 309 836 l 154 836 l 304 1088 l 503 1088 l 653 836 l 498 836 z "},"ì":{"ha":351,"x_min":-53,"x_max":281,"o":"m 69 763 l 281 763 l 281 0 l 69 0 l 69 763 m 109 836 l -53 1088 l 142 1088 l 268 836 l 109 836 z "},"í":{"ha":351,"x_min":69,"x_max":391,"o":"m 69 763 l 281 763 l 281 0 l 69 0 l 69 763 m 196 1093 l 391 1093 l 230 836 l 71 836 l 196 1093 z "},"î":{"ha":351,"x_min":-75,"x_max":425,"o":"m 69 763 l 281 763 l 281 0 l 69 0 l 69 763 m 269 836 l 175 991 l 81 836 l -75 836 l 75 1088 l 275 1088 l 425 836 l 269 836 z "},"ñ":{"ha":863,"x_min":73,"x_max":797,"o":"m 73 763 l 285 763 l 285 667 q 390 748 328 718 q 529 778 453 778 q 640 758 591 778 q 725 701 690 738 q 778 612 760 665 q 797 496 797 560 l 797 0 l 585 0 l 585 476 q 575 530 585 506 q 548 571 566 553 q 505 597 530 588 q 449 606 479 606 q 381 593 412 606 q 330 557 351 580 q 297 506 309 535 q 285 444 285 476 l 285 0 l 73 0 l 73 763 m 451 1008 q 488 987 471 994 q 520 981 505 981 q 566 998 543 981 q 618 1053 588 1015 l 686 950 q 612 874 650 899 q 529 848 573 848 q 408 891 474 848 q 370 912 387 905 q 338 919 353 919 q 293 902 315 919 q 241 847 271 885 l 174 950 q 328 1050 242 1050 q 451 1008 384 1050 z "},"ò":{"ha":874,"x_min":38,"x_max":836,"o":"m 437 778 q 605 749 531 778 q 730 669 679 721 q 809 544 782 617 q 836 381 836 471 q 809 218 836 292 q 730 93 781 145 q 605 13 679 41 q 437 -16 531 -16 q 270 13 344 -16 q 144 94 195 41 q 65 219 93 146 q 38 381 38 292 q 65 544 38 471 q 144 669 93 617 q 270 749 195 721 q 437 778 344 778 m 437 603 q 300 545 347 603 q 254 380 254 488 q 300 217 254 274 q 437 159 347 159 q 574 217 528 159 q 620 380 620 274 q 574 545 620 488 q 437 603 528 603 m 371 836 l 210 1088 l 405 1088 l 530 836 l 371 836 z "},"ó":{"ha":874,"x_min":38,"x_max":836,"o":"m 437 778 q 605 749 531 778 q 730 669 679 721 q 809 544 782 617 q 836 381 836 471 q 809 218 836 292 q 730 93 781 145 q 605 13 679 41 q 437 -16 531 -16 q 270 13 344 -16 q 144 94 195 41 q 65 219 93 146 q 38 381 38 292 q 65 544 38 471 q 144 669 93 617 q 270 749 195 721 q 437 778 344 778 m 437 603 q 300 545 347 603 q 254 380 254 488 q 300 217 254 274 q 437 159 347 159 q 574 217 528 159 q 620 380 620 274 q 574 545 620 488 q 437 603 528 603 m 458 1093 l 654 1093 l 492 836 l 333 836 l 458 1093 z "},"ô":{"ha":874,"x_min":38,"x_max":836,"o":"m 437 778 q 605 749 531 778 q 730 669 679 721 q 809 544 782 617 q 836 381 836 471 q 809 218 836 292 q 730 93 781 145 q 605 13 679 41 q 437 -16 531 -16 q 270 13 344 -16 q 144 94 195 41 q 65 219 93 146 q 38 381 38 292 q 65 544 38 471 q 144 669 93 617 q 270 749 195 721 q 437 778 344 778 m 437 603 q 300 545 347 603 q 254 380 254 488 q 300 217 254 274 q 437 159 347 159 q 574 217 528 159 q 620 380 620 274 q 574 545 620 488 q 437 603 528 603 m 532 836 l 437 991 l 343 836 l 188 836 l 338 1088 l 537 1088 l 687 836 l 532 836 z "},"õ":{"ha":874,"x_min":38,"x_max":836,"o":"m 437 778 q 605 749 531 778 q 730 669 679 721 q 809 544 782 617 q 836 381 836 471 q 809 218 836 292 q 730 93 781 145 q 605 13 679 41 q 437 -16 531 -16 q 270 13 344 -16 q 144 94 195 41 q 65 219 93 146 q 38 381 38 292 q 65 544 38 471 q 144 669 93 617 q 270 749 195 721 q 437 778 344 778 m 437 603 q 300 545 347 603 q 254 380 254 488 q 300 217 254 274 q 437 159 347 159 q 574 217 528 159 q 620 380 620 274 q 574 545 620 488 q 437 603 528 603 m 457 1008 q 494 987 477 994 q 526 981 511 981 q 572 998 549 981 q 625 1053 594 1015 l 692 950 q 618 874 656 899 q 535 848 579 848 q 414 891 480 848 q 376 912 393 905 q 344 919 359 919 q 299 902 321 919 q 248 847 277 885 l 180 950 q 334 1050 248 1050 q 457 1008 390 1050 z "},"ù":{"ha":863,"x_min":66,"x_max":789,"o":"m 789 0 l 578 0 l 578 95 q 472 15 535 44 q 334 -15 410 -15 q 223 5 273 -15 q 138 62 173 25 q 84 151 103 98 q 66 267 66 203 l 66 763 l 278 763 l 278 287 q 288 234 278 258 q 315 193 297 210 q 358 166 333 176 q 414 157 383 157 q 481 170 451 157 q 533 205 511 183 q 566 257 554 228 q 578 320 578 287 l 578 763 l 789 763 l 789 0 m 365 836 l 203 1088 l 399 1088 l 524 836 l 365 836 z "},"ú":{"ha":863,"x_min":66,"x_max":789,"o":"m 789 0 l 578 0 l 578 95 q 472 15 535 44 q 334 -15 410 -15 q 223 5 273 -15 q 138 62 173 25 q 84 151 103 98 q 66 267 66 203 l 66 763 l 278 763 l 278 287 q 288 234 278 258 q 315 193 297 210 q 358 166 333 176 q 414 157 383 157 q 481 170 451 157 q 533 205 511 183 q 566 257 554 228 q 578 320 578 287 l 578 763 l 789 763 l 789 0 m 452 1093 l 648 1093 l 486 836 l 327 836 l 452 1093 z "},"û":{"ha":863,"x_min":66,"x_max":789,"o":"m 789 0 l 578 0 l 578 95 q 472 15 535 44 q 334 -15 410 -15 q 223 5 273 -15 q 138 62 173 25 q 84 151 103 98 q 66 267 66 203 l 66 763 l 278 763 l 278 287 q 288 234 278 258 q 315 193 297 210 q 358 166 333 176 q 414 157 383 157 q 481 170 451 157 q 533 205 511 183 q 566 257 554 228 q 578 320 578 287 l 578 763 l 789 763 l 789 0 m 526 836 l 431 991 l 337 836 l 182 836 l 332 1088 l 531 1088 l 681 836 l 526 836 z "},"ý":{"ha":809,"x_min":6,"x_max":803,"o":"m 403 267 l 572 763 l 803 763 l 475 -90 q 442 -158 460 -128 q 401 -207 425 -187 q 349 -238 378 -227 q 279 -248 319 -248 l 81 -248 l 81 -85 l 230 -85 q 276 -72 256 -85 q 303 -35 295 -58 l 313 -9 l 6 763 l 241 763 l 403 267 m 425 1093 l 621 1093 l 459 836 l 300 836 l 425 1093 z "},"Ā":{"ha":1001,"x_min":9,"x_max":993,"o":"m 9 0 l 321 997 l 680 997 l 993 0 l 765 0 l 694 229 l 307 229 l 236 0 l 9 0 m 643 404 l 500 867 l 358 404 l 643 404 m 285 1239 l 716 1239 l 716 1102 l 285 1102 l 285 1239 z "},"ā":{"ha":791,"x_min":39,"x_max":721,"o":"m 49 181 q 86 298 49 249 q 205 386 123 348 q 323 425 247 405 q 509 465 400 444 l 509 496 q 473 583 509 555 q 374 612 437 612 q 270 573 309 612 q 215 454 231 534 l 39 510 q 150 710 60 642 q 389 778 239 778 q 528 761 467 778 q 633 713 590 745 q 698 634 675 681 q 721 528 721 588 l 721 0 l 509 0 l 509 90 q 414 12 473 39 q 279 -16 355 -16 q 182 -2 225 -16 q 110 37 140 12 q 65 99 81 62 q 49 181 49 136 m 509 337 q 400 313 443 324 q 331 290 357 302 q 263 205 263 259 q 288 151 263 172 q 353 131 313 131 q 411 141 383 131 q 459 170 438 152 q 494 211 481 188 q 509 259 508 234 l 509 337 m 180 1005 l 611 1005 l 611 868 l 180 868 l 180 1005 z "},"Ă":{"ha":1001,"x_min":9,"x_max":993,"o":"m 9 0 l 321 997 l 680 997 l 993 0 l 765 0 l 694 229 l 307 229 l 236 0 l 9 0 m 643 404 l 500 867 l 358 404 l 643 404 m 501 1204 q 578 1233 550 1204 q 606 1310 606 1261 l 732 1310 q 717 1211 732 1255 q 672 1138 701 1168 q 599 1092 642 1107 q 501 1076 556 1076 q 403 1092 446 1076 q 330 1138 360 1107 q 284 1211 300 1168 q 269 1310 269 1255 l 396 1310 q 424 1233 396 1261 q 501 1204 452 1204 z "},"ă":{"ha":791,"x_min":39,"x_max":721,"o":"m 49 181 q 86 298 49 249 q 205 386 123 348 q 323 425 247 405 q 509 465 400 444 l 509 496 q 473 583 509 555 q 374 612 437 612 q 270 573 309 612 q 215 454 231 534 l 39 510 q 150 710 60 642 q 389 778 239 778 q 528 761 467 778 q 633 713 590 745 q 698 634 675 681 q 721 528 721 588 l 721 0 l 509 0 l 509 90 q 414 12 473 39 q 279 -16 355 -16 q 182 -2 225 -16 q 110 37 140 12 q 65 99 81 62 q 49 181 49 136 m 509 337 q 400 313 443 324 q 331 290 357 302 q 263 205 263 259 q 288 151 263 172 q 353 131 313 131 q 411 141 383 131 q 459 170 438 152 q 494 211 481 188 q 509 259 508 234 l 509 337 m 396 970 q 473 999 445 970 q 500 1076 500 1027 l 627 1076 q 612 977 627 1021 q 567 904 596 934 q 494 858 537 873 q 396 842 451 842 q 298 858 341 842 q 225 904 255 873 q 179 977 195 934 q 163 1076 163 1021 l 291 1076 q 319 999 291 1027 q 396 970 347 970 z "},"Ą":{"ha":1001,"x_min":9,"x_max":1001,"o":"m 9 0 l 321 997 l 680 997 l 993 0 l 924 0 q 879 -57 896 -27 q 863 -111 863 -87 q 884 -161 863 -144 q 939 -179 905 -179 q 972 -176 957 -179 q 1001 -170 988 -174 l 1001 -258 q 941 -277 977 -269 q 868 -284 905 -285 q 758 -250 798 -283 q 718 -157 718 -216 q 741 -72 718 -113 q 808 0 765 -31 l 765 0 l 694 229 l 307 229 l 236 0 l 9 0 m 643 404 l 500 867 l 358 404 l 643 404 z "},"ą":{"ha":791,"x_min":39,"x_max":740,"o":"m 49 181 q 86 298 49 249 q 205 386 123 348 q 323 425 247 405 q 509 465 400 444 l 509 496 q 473 583 509 555 q 374 612 437 612 q 270 573 309 612 q 215 454 231 534 l 39 510 q 150 710 60 642 q 389 778 239 778 q 528 761 467 778 q 633 713 590 745 q 698 634 675 681 q 721 528 721 588 l 721 0 l 663 0 q 618 -57 635 -27 q 602 -111 602 -87 q 623 -161 602 -144 q 678 -179 644 -179 q 711 -176 696 -179 q 740 -170 727 -174 l 740 -258 q 681 -277 717 -269 q 608 -284 645 -285 q 497 -250 538 -283 q 457 -157 457 -216 q 481 -72 457 -113 q 547 0 505 -31 l 509 0 l 509 90 q 414 12 473 39 q 279 -16 355 -16 q 182 -2 225 -16 q 110 37 140 12 q 65 99 81 62 q 49 181 49 136 m 509 337 q 400 313 443 324 q 331 290 357 302 q 263 205 263 259 q 288 151 263 172 q 353 131 313 131 q 411 141 383 131 q 459 170 438 152 q 494 211 481 188 q 509 259 508 234 l 509 337 z "},"Ć":{"ha":990,"x_min":43,"x_max":957,"o":"m 532 1011 q 800 941 696 1011 q 957 736 903 871 l 793 646 q 738 731 766 696 q 678 789 709 766 q 610 821 646 811 q 531 831 574 831 q 417 809 467 831 q 333 745 367 787 q 281 641 299 703 q 264 498 264 578 q 281 356 264 418 q 333 252 299 294 q 415 187 366 209 q 528 165 465 165 q 607 175 570 165 q 674 208 643 185 q 734 266 706 230 q 790 351 763 301 l 954 260 q 888 141 927 193 q 797 55 849 90 q 677 3 744 20 q 528 -15 610 -15 q 325 21 415 -15 q 173 123 235 57 q 76 285 110 190 q 43 498 43 380 q 77 712 43 617 q 174 873 111 807 q 327 976 237 940 q 532 1011 418 1011 m 516 1326 l 711 1326 l 550 1069 l 391 1069 l 516 1326 z "},"ć":{"ha":800,"x_min":38,"x_max":772,"o":"m 439 778 q 549 764 495 778 q 648 721 603 750 q 725 648 692 692 q 772 542 758 604 l 608 470 q 539 568 585 533 q 434 603 494 603 q 359 588 393 603 q 303 545 326 573 q 267 475 279 516 q 254 380 254 433 q 267 287 254 328 q 303 218 279 246 q 359 174 326 189 q 433 159 393 159 q 540 195 494 159 q 608 294 585 231 l 772 220 q 728 122 759 165 q 653 47 696 78 q 554 1 609 17 q 439 -16 500 -16 q 271 13 345 -16 q 145 94 197 42 q 65 219 93 146 q 38 381 38 292 q 65 544 38 471 q 145 669 93 616 q 271 749 197 721 q 439 778 345 778 m 420 1093 l 616 1093 l 454 836 l 295 836 l 420 1093 z "},"Ĉ":{"ha":990,"x_min":43,"x_max":957,"o":"m 532 1011 q 800 941 696 1011 q 957 736 903 871 l 793 646 q 738 731 766 696 q 678 789 709 766 q 610 821 646 811 q 531 831 574 831 q 417 809 467 831 q 333 745 367 787 q 281 641 299 703 q 264 498 264 578 q 281 356 264 418 q 333 252 299 294 q 415 187 366 209 q 528 165 465 165 q 607 175 570 165 q 674 208 643 185 q 734 266 706 230 q 790 351 763 301 l 954 260 q 888 141 927 193 q 797 55 849 90 q 677 3 744 20 q 528 -15 610 -15 q 325 21 415 -15 q 173 123 235 57 q 76 285 110 190 q 43 498 43 380 q 77 712 43 617 q 174 873 111 807 q 327 976 237 940 q 532 1011 418 1011 m 589 1069 l 495 1225 l 401 1069 l 245 1069 l 395 1322 l 595 1322 l 745 1069 l 589 1069 z "},"ĉ":{"ha":800,"x_min":38,"x_max":772,"o":"m 439 778 q 549 764 495 778 q 648 721 603 750 q 725 648 692 692 q 772 542 758 604 l 608 470 q 539 568 585 533 q 434 603 494 603 q 359 588 393 603 q 303 545 326 573 q 267 475 279 516 q 254 380 254 433 q 267 287 254 328 q 303 218 279 246 q 359 174 326 189 q 433 159 393 159 q 540 195 494 159 q 608 294 585 231 l 772 220 q 728 122 759 165 q 653 47 696 78 q 554 1 609 17 q 439 -16 500 -16 q 271 13 345 -16 q 145 94 197 42 q 65 219 93 146 q 38 381 38 292 q 65 544 38 471 q 145 669 93 616 q 271 749 197 721 q 439 778 345 778 m 494 836 l 399 991 l 305 836 l 150 836 l 300 1088 l 499 1088 l 649 836 l 494 836 z "},"Ċ":{"ha":990,"x_min":43,"x_max":957,"o":"m 532 1011 q 800 941 696 1011 q 957 736 903 871 l 793 646 q 738 731 766 696 q 678 789 709 766 q 610 821 646 811 q 531 831 574 831 q 417 809 467 831 q 333 745 367 787 q 281 641 299 703 q 264 498 264 578 q 281 356 264 418 q 333 252 299 294 q 415 187 366 209 q 528 165 465 165 q 607 175 570 165 q 674 208 643 185 q 734 266 706 230 q 790 351 763 301 l 954 260 q 888 141 927 193 q 797 55 849 90 q 677 3 744 20 q 528 -15 610 -15 q 325 21 415 -15 q 173 123 235 57 q 76 285 110 190 q 43 498 43 380 q 77 712 43 617 q 174 873 111 807 q 327 976 237 940 q 532 1011 418 1011 m 399 1276 l 591 1276 l 591 1078 l 399 1078 l 399 1276 z "},"ċ":{"ha":800,"x_min":38,"x_max":772,"o":"m 439 778 q 549 764 495 778 q 648 721 603 750 q 725 648 692 692 q 772 542 758 604 l 608 470 q 539 568 585 533 q 434 603 494 603 q 359 588 393 603 q 303 545 326 573 q 267 475 279 516 q 254 380 254 433 q 267 287 254 328 q 303 218 279 246 q 359 174 326 189 q 433 159 393 159 q 540 195 494 159 q 608 294 585 231 l 772 220 q 728 122 759 165 q 653 47 696 78 q 554 1 609 17 q 439 -16 500 -16 q 271 13 345 -16 q 145 94 197 42 q 65 219 93 146 q 38 381 38 292 q 65 544 38 471 q 145 669 93 616 q 271 749 197 721 q 439 778 345 778 m 304 1042 l 496 1042 l 496 844 l 304 844 l 304 1042 z "},"Č":{"ha":990,"x_min":43,"x_max":957,"o":"m 532 1011 q 800 941 696 1011 q 957 736 903 871 l 793 646 q 738 731 766 696 q 678 789 709 766 q 610 821 646 811 q 531 831 574 831 q 417 809 467 831 q 333 745 367 787 q 281 641 299 703 q 264 498 264 578 q 281 356 264 418 q 333 252 299 294 q 415 187 366 209 q 528 165 465 165 q 607 175 570 165 q 674 208 643 185 q 734 266 706 230 q 790 351 763 301 l 954 260 q 888 141 927 193 q 797 55 849 90 q 677 3 744 20 q 528 -15 610 -15 q 325 21 415 -15 q 173 123 235 57 q 76 285 110 190 q 43 498 43 380 q 77 712 43 617 q 174 873 111 807 q 327 976 237 940 q 532 1011 418 1011 m 589 1322 l 745 1322 l 595 1069 l 395 1069 l 245 1322 l 401 1322 l 495 1165 l 589 1322 z "},"č":{"ha":800,"x_min":38,"x_max":772,"o":"m 439 778 q 549 764 495 778 q 648 721 603 750 q 725 648 692 692 q 772 542 758 604 l 608 470 q 539 568 585 533 q 434 603 494 603 q 359 588 393 603 q 303 545 326 573 q 267 475 279 516 q 254 380 254 433 q 267 287 254 328 q 303 218 279 246 q 359 174 326 189 q 433 159 393 159 q 540 195 494 159 q 608 294 585 231 l 772 220 q 728 122 759 165 q 653 47 696 78 q 554 1 609 17 q 439 -16 500 -16 q 271 13 345 -16 q 145 94 197 42 q 65 219 93 146 q 38 381 38 292 q 65 544 38 471 q 145 669 93 616 q 271 749 197 721 q 439 778 345 778 m 494 1088 l 649 1088 l 499 836 l 300 836 l 150 1088 l 305 1088 l 399 931 l 494 1088 z "},"Ď":{"ha":1019,"x_min":83,"x_max":981,"o":"m 83 997 l 497 997 q 700 963 610 997 q 852 864 790 928 q 948 708 915 800 q 981 498 981 615 q 948 290 981 382 q 852 133 915 197 q 700 34 790 68 q 497 0 610 0 l 83 0 l 83 997 m 498 178 q 694 259 628 178 q 760 499 760 340 q 694 738 760 656 q 498 819 628 819 l 300 819 l 300 178 l 498 178 m 604 1322 l 759 1322 l 609 1069 l 410 1069 l 260 1322 l 415 1322 l 509 1165 l 604 1322 z "},"ď":{"ha":1148,"x_min":38,"x_max":1120,"o":"m 357 778 q 498 744 436 778 q 604 650 561 711 l 604 1042 l 816 1042 l 816 0 l 604 0 l 604 113 q 498 18 561 52 q 357 -16 436 -16 q 227 13 286 -16 q 126 94 168 42 q 61 219 84 146 q 38 381 38 292 q 61 543 38 470 q 126 669 84 616 q 227 749 168 721 q 357 778 286 778 m 918 755 l 938 1042 l 1120 1042 l 1086 755 l 918 755 m 429 600 q 300 542 346 600 q 254 380 254 484 q 300 220 254 277 q 429 163 346 163 q 506 179 473 163 q 560 224 538 195 q 593 293 582 253 q 604 380 604 333 q 593 469 604 429 q 561 538 583 509 q 506 584 539 568 q 429 600 473 600 z "},"Ē":{"ha":862,"x_min":83,"x_max":804,"o":"m 83 997 l 804 997 l 804 822 l 300 822 l 300 594 l 777 594 l 777 425 l 300 425 l 300 175 l 804 175 l 804 0 l 83 0 l 83 997 m 215 1239 l 646 1239 l 646 1102 l 215 1102 l 215 1239 z "},"ē":{"ha":807,"x_min":38,"x_max":775,"o":"m 255 321 q 316 200 269 244 q 435 155 363 155 q 538 186 492 155 q 610 272 584 217 l 765 189 q 714 102 747 140 q 640 38 682 64 q 547 -2 597 12 q 441 -16 496 -16 q 272 13 347 -16 q 145 94 197 41 q 66 219 94 146 q 38 381 38 292 q 65 544 38 471 q 141 668 92 616 q 261 748 191 720 q 419 777 332 777 q 566 753 500 777 q 678 685 631 729 q 750 578 724 641 q 775 437 775 515 q 774 379 775 411 q 771 321 774 347 l 255 321 m 425 611 q 310 570 353 611 q 254 452 267 530 l 587 452 l 587 467 q 576 527 587 500 q 543 572 564 553 q 492 601 522 591 q 425 611 462 611 m 188 1005 l 619 1005 l 619 868 l 188 868 l 188 1005 z "},"Ĕ":{"ha":862,"x_min":83,"x_max":804,"o":"m 83 997 l 804 997 l 804 822 l 300 822 l 300 594 l 777 594 l 777 425 l 300 425 l 300 175 l 804 175 l 804 0 l 83 0 l 83 997 m 431 1204 q 508 1233 480 1204 q 536 1310 536 1261 l 663 1310 q 647 1211 663 1255 q 602 1138 631 1168 q 529 1092 572 1107 q 431 1076 486 1076 q 333 1092 376 1076 q 260 1138 290 1107 q 214 1211 230 1168 q 199 1310 199 1255 l 326 1310 q 354 1233 326 1261 q 431 1204 382 1204 z "},"ĕ":{"ha":807,"x_min":38,"x_max":775,"o":"m 255 321 q 316 200 269 244 q 435 155 363 155 q 538 186 492 155 q 610 272 584 217 l 765 189 q 714 102 747 140 q 640 38 682 64 q 547 -2 597 12 q 441 -16 496 -16 q 272 13 347 -16 q 145 94 197 41 q 66 219 94 146 q 38 381 38 292 q 65 544 38 471 q 141 668 92 616 q 261 748 191 720 q 419 777 332 777 q 566 753 500 777 q 678 685 631 729 q 750 578 724 641 q 775 437 775 515 q 774 379 775 411 q 771 321 774 347 l 255 321 m 425 611 q 310 570 353 611 q 254 452 267 530 l 587 452 l 587 467 q 576 527 587 500 q 543 572 564 553 q 492 601 522 591 q 425 611 462 611 m 404 970 q 481 999 453 970 q 509 1076 509 1027 l 635 1076 q 620 977 635 1021 q 575 904 604 934 q 502 858 545 873 q 404 842 459 842 q 306 858 349 842 q 233 904 263 873 q 187 977 203 934 q 172 1076 172 1021 l 299 1076 q 327 999 299 1027 q 404 970 355 970 z "},"Ė":{"ha":862,"x_min":83,"x_max":804,"o":"m 83 997 l 804 997 l 804 822 l 300 822 l 300 594 l 777 594 l 777 425 l 300 425 l 300 175 l 804 175 l 804 0 l 83 0 l 83 997 m 336 1276 l 527 1276 l 527 1078 l 336 1078 l 336 1276 z "},"ė":{"ha":807,"x_min":38,"x_max":775,"o":"m 255 321 q 316 200 269 244 q 435 155 363 155 q 538 186 492 155 q 610 272 584 217 l 765 189 q 714 102 747 140 q 640 38 682 64 q 547 -2 597 12 q 441 -16 496 -16 q 272 13 347 -16 q 145 94 197 41 q 66 219 94 146 q 38 381 38 292 q 65 544 38 471 q 141 668 92 616 q 261 748 191 720 q 419 777 332 777 q 566 753 500 777 q 678 685 631 729 q 750 578 724 641 q 775 437 775 515 q 774 379 775 411 q 771 321 774 347 l 255 321 m 425 611 q 310 570 353 611 q 254 452 267 530 l 587 452 l 587 467 q 576 527 587 500 q 543 572 564 553 q 492 601 522 591 q 425 611 462 611 m 308 1042 l 499 1042 l 499 844 l 308 844 l 308 1042 z "},"Ę":{"ha":862,"x_min":83,"x_max":804,"o":"m 83 997 l 804 997 l 804 822 l 300 822 l 300 594 l 777 594 l 777 425 l 300 425 l 300 175 l 804 175 l 804 0 l 537 0 q 492 -57 509 -27 q 475 -111 475 -87 q 496 -161 475 -144 q 552 -179 517 -179 q 585 -176 570 -179 q 614 -170 601 -174 l 614 -258 q 554 -277 590 -269 q 481 -284 518 -285 q 371 -250 411 -283 q 330 -157 330 -216 q 354 -72 330 -113 q 420 0 378 -31 l 83 0 l 83 997 z "},"ę":{"ha":807,"x_min":38,"x_max":775,"o":"m 255 321 q 316 200 269 244 q 435 155 363 155 q 538 186 492 155 q 610 272 584 217 l 765 189 q 718 106 748 142 q 648 43 688 69 q 562 3 609 18 q 463 -15 515 -12 q 428 -64 441 -39 q 415 -111 415 -90 q 436 -161 415 -144 q 492 -179 457 -179 q 525 -176 509 -179 q 553 -170 541 -174 l 553 -258 q 494 -277 530 -269 q 421 -284 458 -285 q 311 -250 351 -283 q 271 -157 271 -216 q 292 -77 271 -116 q 351 -7 313 -38 q 219 38 277 5 q 121 121 161 71 q 59 237 81 172 q 38 381 38 303 q 65 544 38 471 q 141 668 92 616 q 261 748 191 720 q 419 777 332 777 q 566 753 500 777 q 678 685 631 729 q 750 578 724 641 q 775 437 775 515 q 774 379 775 411 q 771 321 774 347 l 255 321 m 425 611 q 310 570 353 611 q 254 452 267 530 l 587 452 l 587 467 q 576 527 587 500 q 543 572 564 553 q 492 601 522 591 q 425 611 462 611 z "},"Ě":{"ha":862,"x_min":83,"x_max":804,"o":"m 83 997 l 804 997 l 804 822 l 300 822 l 300 594 l 777 594 l 777 425 l 300 425 l 300 175 l 804 175 l 804 0 l 83 0 l 83 997 m 525 1322 l 680 1322 l 530 1069 l 331 1069 l 181 1322 l 336 1322 l 431 1165 l 525 1322 z "},"ě":{"ha":807,"x_min":38,"x_max":775,"o":"m 255 321 q 316 200 269 244 q 435 155 363 155 q 538 186 492 155 q 610 272 584 217 l 765 189 q 714 102 747 140 q 640 38 682 64 q 547 -2 597 12 q 441 -16 496 -16 q 272 13 347 -16 q 145 94 197 41 q 66 219 94 146 q 38 381 38 292 q 65 544 38 471 q 141 668 92 616 q 261 748 191 720 q 419 777 332 777 q 566 753 500 777 q 678 685 631 729 q 750 578 724 641 q 775 437 775 515 q 774 379 775 411 q 771 321 774 347 l 255 321 m 425 611 q 310 570 353 611 q 254 452 267 530 l 587 452 l 587 467 q 576 527 587 500 q 543 572 564 553 q 492 601 522 591 q 425 611 462 611 m 498 1088 l 653 1088 l 503 836 l 304 836 l 154 1088 l 309 1088 l 404 931 l 498 1088 z "},"Ĝ":{"ha":1026,"x_min":38,"x_max":965,"o":"m 748 414 l 454 414 l 454 572 l 960 572 l 960 157 q 890 83 932 115 q 795 30 848 52 q 680 -3 743 8 q 547 -15 617 -15 q 333 20 428 -15 q 173 122 239 56 q 73 284 108 189 q 38 498 38 379 q 73 712 38 617 q 172 873 107 807 q 330 976 237 940 q 540 1011 422 1011 q 802 946 697 1011 q 965 745 907 880 l 800 652 q 744 734 773 701 q 684 790 715 768 q 615 822 652 812 q 534 831 578 831 q 416 809 468 831 q 330 745 365 787 q 277 641 295 703 q 258 498 258 578 q 332 250 258 335 q 546 165 405 165 q 660 180 610 165 q 748 230 709 195 l 748 414 m 608 1069 l 513 1225 l 419 1069 l 264 1069 l 414 1322 l 613 1322 l 763 1069 l 608 1069 z "},"ĝ":{"ha":897,"x_min":38,"x_max":827,"o":"m 372 778 q 510 751 448 778 q 616 675 572 724 l 616 763 l 827 763 l 827 104 q 730 -166 827 -76 q 436 -256 633 -256 q 305 -244 364 -256 q 200 -208 245 -232 q 124 -148 155 -184 q 79 -65 93 -113 l 235 24 q 314 -56 262 -28 q 437 -84 365 -84 q 572 -35 529 -84 q 616 117 616 14 l 616 161 q 510 86 572 113 q 372 59 448 59 q 235 85 296 59 q 130 158 174 111 q 62 272 86 205 q 38 419 38 338 q 62 566 38 500 q 130 679 86 631 q 235 752 174 726 q 372 778 296 778 m 436 611 q 302 560 349 611 q 254 416 254 509 q 302 272 254 323 q 436 221 349 221 q 511 235 477 221 q 567 274 544 248 q 603 335 591 299 q 616 416 616 371 q 603 497 616 460 q 567 558 591 533 q 511 597 544 584 q 436 611 477 611 m 543 836 l 448 991 l 354 836 l 199 836 l 349 1088 l 548 1088 l 698 836 l 543 836 z "},"Ğ":{"ha":1026,"x_min":38,"x_max":965,"o":"m 748 414 l 454 414 l 454 572 l 960 572 l 960 157 q 890 83 932 115 q 795 30 848 52 q 680 -3 743 8 q 547 -15 617 -15 q 333 20 428 -15 q 173 122 239 56 q 73 284 108 189 q 38 498 38 379 q 73 712 38 617 q 172 873 107 807 q 330 976 237 940 q 540 1011 422 1011 q 802 946 697 1011 q 965 745 907 880 l 800 652 q 744 734 773 701 q 684 790 715 768 q 615 822 652 812 q 534 831 578 831 q 416 809 468 831 q 330 745 365 787 q 277 641 295 703 q 258 498 258 578 q 332 250 258 335 q 546 165 405 165 q 660 180 610 165 q 748 230 709 195 l 748 414 m 514 1204 q 591 1233 563 1204 q 618 1310 618 1261 l 745 1310 q 730 1211 745 1255 q 685 1138 714 1168 q 612 1092 655 1107 q 514 1076 569 1076 q 416 1092 459 1076 q 343 1138 373 1107 q 297 1211 313 1168 q 281 1310 281 1255 l 409 1310 q 437 1233 409 1261 q 514 1204 465 1204 z "},"ğ":{"ha":897,"x_min":38,"x_max":827,"o":"m 372 778 q 510 751 448 778 q 616 675 572 724 l 616 763 l 827 763 l 827 104 q 730 -166 827 -76 q 436 -256 633 -256 q 305 -244 364 -256 q 200 -208 245 -232 q 124 -148 155 -184 q 79 -65 93 -113 l 235 24 q 314 -56 262 -28 q 437 -84 365 -84 q 572 -35 529 -84 q 616 117 616 14 l 616 161 q 510 86 572 113 q 372 59 448 59 q 235 85 296 59 q 130 158 174 111 q 62 272 86 205 q 38 419 38 338 q 62 566 38 500 q 130 679 86 631 q 235 752 174 726 q 372 778 296 778 m 436 611 q 302 560 349 611 q 254 416 254 509 q 302 272 254 323 q 436 221 349 221 q 511 235 477 221 q 567 274 544 248 q 603 335 591 299 q 616 416 616 371 q 603 497 616 460 q 567 558 591 533 q 511 597 544 584 q 436 611 477 611 m 449 970 q 526 999 498 970 q 553 1076 553 1027 l 680 1076 q 665 977 680 1021 q 620 904 649 934 q 547 858 590 873 q 449 842 504 842 q 351 858 394 842 q 278 904 308 873 q 232 977 248 934 q 216 1076 216 1021 l 344 1076 q 372 999 344 1027 q 449 970 400 970 z "},"Ġ":{"ha":1026,"x_min":38,"x_max":965,"o":"m 748 414 l 454 414 l 454 572 l 960 572 l 960 157 q 890 83 932 115 q 795 30 848 52 q 680 -3 743 8 q 547 -15 617 -15 q 333 20 428 -15 q 173 122 239 56 q 73 284 108 189 q 38 498 38 379 q 73 712 38 617 q 172 873 107 807 q 330 976 237 940 q 540 1011 422 1011 q 802 946 697 1011 q 965 745 907 880 l 800 652 q 744 734 773 701 q 684 790 715 768 q 615 822 652 812 q 534 831 578 831 q 416 809 468 831 q 330 745 365 787 q 277 641 295 703 q 258 498 258 578 q 332 250 258 335 q 546 165 405 165 q 660 180 610 165 q 748 230 709 195 l 748 414 m 417 1276 l 608 1276 l 608 1078 l 417 1078 l 417 1276 z "},"ġ":{"ha":897,"x_min":38,"x_max":827,"o":"m 372 778 q 510 751 448 778 q 616 675 572 724 l 616 763 l 827 763 l 827 104 q 730 -166 827 -76 q 436 -256 633 -256 q 305 -244 364 -256 q 200 -208 245 -232 q 124 -148 155 -184 q 79 -65 93 -113 l 235 24 q 314 -56 262 -28 q 437 -84 365 -84 q 572 -35 529 -84 q 616 117 616 14 l 616 161 q 510 86 572 113 q 372 59 448 59 q 235 85 296 59 q 130 158 174 111 q 62 272 86 205 q 38 419 38 338 q 62 566 38 500 q 130 679 86 631 q 235 752 174 726 q 372 778 296 778 m 436 611 q 302 560 349 611 q 254 416 254 509 q 302 272 254 323 q 436 221 349 221 q 511 235 477 221 q 567 274 544 248 q 603 335 591 299 q 616 416 616 371 q 603 497 616 460 q 567 558 591 533 q 511 597 544 584 q 436 611 477 611 m 353 1042 l 545 1042 l 545 844 l 353 844 l 353 1042 z "},"Ĥ":{"ha":1043,"x_min":83,"x_max":961,"o":"m 83 997 l 300 997 l 300 607 l 744 607 l 744 997 l 961 997 l 961 0 l 744 0 l 744 429 l 300 429 l 300 0 l 83 0 l 83 997 m 616 1069 l 522 1225 l 427 1069 l 272 1069 l 422 1322 l 621 1322 l 771 1069 l 616 1069 z "},"ĥ":{"ha":859,"x_min":-79,"x_max":793,"o":"m 69 1042 l 281 1042 l 281 667 q 386 748 323 718 q 525 778 449 778 q 636 758 587 778 q 721 701 686 738 q 775 612 756 665 q 793 496 793 560 l 793 0 l 582 0 l 582 476 q 572 530 582 506 q 544 571 562 553 q 501 597 526 588 q 445 606 475 606 q 377 593 408 606 q 326 557 347 580 q 293 506 304 535 q 281 444 281 476 l 281 0 l 69 0 l 69 1042 m 264 1084 l 170 1240 l 76 1084 l -79 1084 l 71 1337 l 270 1337 l 420 1084 l 264 1084 z "},"Ĩ":{"ha":382,"x_min":-66,"x_max":446,"o":"m 83 997 l 300 997 l 300 0 l 83 0 l 83 997 m 211 1242 q 248 1221 231 1228 q 280 1215 264 1215 q 326 1232 303 1215 q 378 1287 348 1249 l 446 1184 q 372 1108 410 1133 q 289 1082 333 1082 q 168 1125 234 1082 q 130 1146 146 1139 q 98 1153 113 1153 q 53 1136 75 1153 q 1 1081 31 1119 l -66 1184 q 88 1284 2 1284 q 211 1242 144 1284 z "},"ĩ":{"ha":351,"x_min":-82,"x_max":429,"o":"m 69 763 l 281 763 l 281 0 l 69 0 l 69 763 m 195 1008 q 232 987 215 994 q 264 981 248 981 q 309 998 287 981 q 362 1053 332 1015 l 429 950 q 355 874 394 899 q 273 848 317 848 q 151 891 218 848 q 114 912 130 905 q 81 919 97 919 q 37 902 59 919 q -15 847 15 885 l -82 950 q 72 1050 -14 1050 q 195 1008 127 1050 z "},"Ī":{"ha":382,"x_min":-24,"x_max":407,"o":"m 83 997 l 300 997 l 300 0 l 83 0 l 83 997 m -24 1239 l 407 1239 l 407 1102 l -24 1102 l -24 1239 z "},"ī":{"ha":351,"x_min":-41,"x_max":391,"o":"m 69 763 l 281 763 l 281 0 l 69 0 l 69 763 m -41 1005 l 391 1005 l 391 868 l -41 868 l -41 1005 z "},"Į":{"ha":382,"x_min":33,"x_max":316,"o":"m 83 997 l 300 997 l 300 0 l 239 0 q 194 -57 211 -27 q 178 -111 178 -87 q 199 -161 178 -144 q 254 -179 220 -179 q 288 -176 272 -179 q 316 -170 303 -174 l 316 -258 q 256 -277 292 -269 q 183 -284 220 -285 q 73 -250 113 -283 q 33 -157 33 -216 q 56 -72 33 -113 q 123 0 80 -31 l 83 0 l 83 997 z "},"į":{"ha":351,"x_min":33,"x_max":317,"o":"m 69 1042 l 281 1042 l 281 844 l 69 844 l 69 1042 m 69 763 l 281 763 l 281 0 l 240 0 q 195 -57 212 -27 q 178 -111 178 -87 q 199 -161 178 -144 q 255 -179 220 -179 q 288 -176 273 -179 q 317 -170 304 -174 l 317 -258 q 258 -277 294 -269 q 184 -284 222 -285 q 74 -250 114 -283 q 33 -157 33 -216 q 57 -72 33 -113 q 124 0 81 -31 l 69 0 l 69 763 z "},"İ":{"ha":382,"x_min":83,"x_max":300,"o":"m 83 997 l 300 997 l 300 0 l 83 0 l 83 997 m 96 1276 l 287 1276 l 287 1078 l 96 1078 l 96 1276 z "},"Ĳ":{"ha":1171,"x_min":83,"x_max":1091,"o":"m 83 997 l 300 997 l 300 0 l 83 0 l 83 997 m 752 -15 q 522 49 608 -15 q 408 241 436 113 l 575 318 q 606 248 589 277 q 642 200 622 218 q 687 173 663 181 q 742 164 711 164 q 874 319 874 164 l 874 997 l 1091 997 l 1091 270 q 1068 150 1091 203 q 1001 60 1045 97 q 895 4 958 24 q 752 -15 831 -15 z "},"ĳ":{"ha":800,"x_min":69,"x_max":731,"o":"m 69 1042 l 281 1042 l 281 844 l 69 844 l 69 1042 m 69 763 l 281 763 l 281 0 l 69 0 l 69 763 m 519 1042 l 731 1042 l 731 844 l 519 844 l 519 1042 m 731 -39 q 715 -125 731 -87 q 670 -191 699 -164 q 604 -232 642 -218 q 523 -247 566 -247 l 345 -247 l 345 -83 l 440 -83 q 501 -62 483 -83 q 519 9 519 -41 l 519 763 l 731 763 l 731 -39 z "},"Ĵ":{"ha":789,"x_min":26,"x_max":845,"o":"m 370 -15 q 140 49 227 -15 q 26 241 54 113 l 193 318 q 224 248 208 277 q 260 200 240 218 q 305 173 281 181 q 360 164 330 164 q 492 319 492 164 l 492 997 l 709 997 l 709 270 q 686 150 709 203 q 620 60 663 97 q 513 4 576 24 q 370 -15 450 -15 m 690 1069 l 595 1225 l 501 1069 l 346 1069 l 496 1322 l 695 1322 l 845 1069 l 690 1069 z "},"ĵ":{"ha":450,"x_min":-6,"x_max":519,"o":"m 380 -39 q 364 -125 380 -87 q 320 -191 348 -164 q 254 -232 292 -218 q 172 -247 216 -247 l -6 -247 l -6 -83 l 90 -83 q 151 -62 132 -83 q 169 9 169 -41 l 169 763 l 380 763 l 380 -39 m 364 836 l 270 991 l 176 836 l 20 836 l 170 1088 l 370 1088 l 519 836 l 364 836 z "},"Ĺ":{"ha":786,"x_min":83,"x_max":749,"o":"m 83 997 l 300 997 l 300 178 l 749 178 l 749 0 l 83 0 l 83 997 m 239 1326 l 434 1326 l 273 1069 l 113 1069 l 239 1326 z "},"ĺ":{"ha":350,"x_min":69,"x_max":391,"o":"m 69 1042 l 281 1042 l 281 0 l 69 0 l 69 1042 m 196 1338 l 391 1338 l 230 1081 l 71 1081 l 196 1338 z "},"Ľ":{"ha":786,"x_min":83,"x_max":749,"o":"m 469 682 l 498 997 l 665 997 l 625 682 l 469 682 m 83 997 l 300 997 l 300 178 l 749 178 l 749 0 l 83 0 l 83 997 z "},"ľ":{"ha":613,"x_min":69,"x_max":585,"o":"m 69 1042 l 281 1042 l 281 0 l 69 0 l 69 1042 m 383 755 l 403 1042 l 585 1042 l 551 755 l 383 755 z "},"Ń":{"ha":1029,"x_min":83,"x_max":947,"o":"m 83 997 l 380 997 l 730 246 l 730 997 l 947 997 l 947 0 l 644 0 l 300 743 l 300 0 l 83 0 l 83 997 m 536 1326 l 731 1326 l 570 1069 l 410 1069 l 536 1326 z "},"ń":{"ha":863,"x_min":73,"x_max":797,"o":"m 73 763 l 285 763 l 285 667 q 390 748 328 718 q 529 778 453 778 q 640 758 591 778 q 725 701 690 738 q 778 612 760 665 q 797 496 797 560 l 797 0 l 585 0 l 585 476 q 575 530 585 506 q 548 571 566 553 q 505 597 530 588 q 449 606 479 606 q 381 593 412 606 q 330 557 351 580 q 297 506 309 535 q 285 444 285 476 l 285 0 l 73 0 l 73 763 m 452 1093 l 648 1093 l 486 836 l 327 836 l 452 1093 z "},"Ň":{"ha":1029,"x_min":83,"x_max":947,"o":"m 83 997 l 380 997 l 730 246 l 730 997 l 947 997 l 947 0 l 644 0 l 300 743 l 300 0 l 83 0 l 83 997 m 609 1322 l 764 1322 l 614 1069 l 415 1069 l 265 1322 l 420 1322 l 515 1165 l 609 1322 z "},"ň":{"ha":863,"x_min":73,"x_max":797,"o":"m 73 763 l 285 763 l 285 667 q 390 748 328 718 q 529 778 453 778 q 640 758 591 778 q 725 701 690 738 q 778 612 760 665 q 797 496 797 560 l 797 0 l 585 0 l 585 476 q 575 530 585 506 q 548 571 566 553 q 505 597 530 588 q 449 606 479 606 q 381 593 412 606 q 330 557 351 580 q 297 506 309 535 q 285 444 285 476 l 285 0 l 73 0 l 73 763 m 526 1088 l 681 1088 l 531 836 l 332 836 l 182 1088 l 337 1088 l 431 931 l 526 1088 z "},"ŉ":{"ha":1107,"x_min":43,"x_max":1041,"o":"m 317 763 l 529 763 l 529 667 q 634 748 572 718 q 773 778 697 778 q 884 758 835 778 q 969 701 934 738 q 1022 612 1004 665 q 1041 496 1041 560 l 1041 0 l 829 0 l 829 476 q 819 530 829 506 q 792 571 810 553 q 749 597 774 588 q 693 606 724 606 q 626 593 656 606 q 574 557 595 580 q 541 506 553 535 q 529 444 529 476 l 529 0 l 317 0 l 317 763 m 80 997 l 248 997 l 196 587 l 43 587 l 80 997 z "},"Ō":{"ha":1073,"x_min":43,"x_max":1029,"o":"m 43 498 q 77 711 43 616 q 175 873 111 806 q 331 976 239 940 q 536 1011 422 1011 q 742 976 650 1011 q 897 873 833 940 q 995 712 961 807 q 1029 498 1029 617 q 995 285 1029 380 q 897 123 961 190 q 742 21 833 57 q 536 -15 650 -15 q 331 21 422 -15 q 175 123 239 57 q 77 285 111 190 q 43 498 43 380 m 264 498 q 282 356 264 418 q 334 252 300 294 q 420 187 369 209 q 536 165 471 165 q 739 251 669 165 q 809 498 809 337 q 791 641 809 578 q 739 745 773 703 q 653 809 704 787 q 536 831 602 831 q 420 809 471 831 q 334 745 369 787 q 282 640 300 702 q 264 498 264 578 m 321 1239 l 752 1239 l 752 1102 l 321 1102 l 321 1239 z "},"ō":{"ha":874,"x_min":38,"x_max":836,"o":"m 437 778 q 605 749 531 778 q 730 669 679 721 q 809 544 782 617 q 836 381 836 471 q 809 218 836 292 q 730 93 781 145 q 605 13 679 41 q 437 -16 531 -16 q 270 13 344 -16 q 144 94 195 41 q 65 219 93 146 q 38 381 38 292 q 65 544 38 471 q 144 669 93 617 q 270 749 195 721 q 437 778 344 778 m 437 603 q 300 545 347 603 q 254 380 254 488 q 300 217 254 274 q 437 159 347 159 q 574 217 528 159 q 620 380 620 274 q 574 545 620 488 q 437 603 528 603 m 222 1005 l 653 1005 l 653 868 l 222 868 l 222 1005 z "},"Ŏ":{"ha":1073,"x_min":43,"x_max":1029,"o":"m 43 498 q 77 711 43 616 q 175 873 111 806 q 331 976 239 940 q 536 1011 422 1011 q 742 976 650 1011 q 897 873 833 940 q 995 712 961 807 q 1029 498 1029 617 q 995 285 1029 380 q 897 123 961 190 q 742 21 833 57 q 536 -15 650 -15 q 331 21 422 -15 q 175 123 239 57 q 77 285 111 190 q 43 498 43 380 m 264 498 q 282 356 264 418 q 334 252 300 294 q 420 187 369 209 q 536 165 471 165 q 739 251 669 165 q 809 498 809 337 q 791 641 809 578 q 739 745 773 703 q 653 809 704 787 q 536 831 602 831 q 420 809 471 831 q 334 745 369 787 q 282 640 300 702 q 264 498 264 578 m 537 1204 q 614 1233 586 1204 q 642 1310 642 1261 l 768 1310 q 753 1211 768 1255 q 708 1138 737 1168 q 635 1092 678 1107 q 537 1076 592 1076 q 439 1092 482 1076 q 366 1138 396 1107 q 320 1211 336 1168 q 304 1310 304 1255 l 432 1310 q 460 1233 432 1261 q 537 1204 488 1204 z "},"ŏ":{"ha":874,"x_min":38,"x_max":836,"o":"m 437 778 q 605 749 531 778 q 730 669 679 721 q 809 544 782 617 q 836 381 836 471 q 809 218 836 292 q 730 93 781 145 q 605 13 679 41 q 437 -16 531 -16 q 270 13 344 -16 q 144 94 195 41 q 65 219 93 146 q 38 381 38 292 q 65 544 38 471 q 144 669 93 617 q 270 749 195 721 q 437 778 344 778 m 437 603 q 300 545 347 603 q 254 380 254 488 q 300 217 254 274 q 437 159 347 159 q 574 217 528 159 q 620 380 620 274 q 574 545 620 488 q 437 603 528 603 m 438 970 q 515 999 487 970 q 543 1076 543 1027 l 669 1076 q 654 977 669 1021 q 609 904 638 934 q 536 858 579 873 q 438 842 493 842 q 340 858 383 842 q 267 904 297 873 q 221 977 237 934 q 205 1076 205 1021 l 333 1076 q 361 999 333 1027 q 438 970 389 970 z "},"Ő":{"ha":1073,"x_min":43,"x_max":1029,"o":"m 43 498 q 77 711 43 616 q 175 873 111 806 q 331 976 239 940 q 536 1011 422 1011 q 742 976 650 1011 q 897 873 833 940 q 995 712 961 807 q 1029 498 1029 617 q 995 285 1029 380 q 897 123 961 190 q 742 21 833 57 q 536 -15 650 -15 q 331 21 422 -15 q 175 123 239 57 q 77 285 111 190 q 43 498 43 380 m 264 498 q 282 356 264 418 q 334 252 300 294 q 420 187 369 209 q 536 165 471 165 q 739 251 669 165 q 809 498 809 337 q 791 641 809 578 q 739 745 773 703 q 653 809 704 787 q 536 831 602 831 q 420 809 471 831 q 334 745 369 787 q 282 640 300 702 q 264 498 264 578 m 317 1069 l 401 1326 l 571 1326 l 463 1069 l 317 1069 m 557 1069 l 641 1326 l 810 1326 l 702 1069 l 557 1069 z "},"ő":{"ha":874,"x_min":38,"x_max":836,"o":"m 437 778 q 605 749 531 778 q 730 669 679 721 q 809 544 782 617 q 836 381 836 471 q 809 218 836 292 q 730 93 781 145 q 605 13 679 41 q 437 -16 531 -16 q 270 13 344 -16 q 144 94 195 41 q 65 219 93 146 q 38 381 38 292 q 65 544 38 471 q 144 669 93 617 q 270 749 195 721 q 437 778 344 778 m 437 603 q 300 545 347 603 q 254 380 254 488 q 300 217 254 274 q 437 159 347 159 q 574 217 528 159 q 620 380 620 274 q 574 545 620 488 q 437 603 528 603 m 218 836 l 302 1093 l 472 1093 l 363 836 l 218 836 m 458 836 l 542 1093 l 711 1093 l 603 836 l 458 836 z "},"Ŕ":{"ha":973,"x_min":83,"x_max":935,"o":"m 717 0 l 635 300 q 616 349 627 329 q 589 381 605 369 q 550 399 572 393 q 496 405 527 405 l 300 405 l 300 0 l 83 0 l 83 997 l 541 997 q 818 925 726 997 q 909 710 909 853 q 731 461 909 517 q 804 413 776 444 q 843 341 831 382 l 935 0 l 717 0 m 504 561 q 590 568 555 561 q 648 592 626 576 q 681 632 671 608 q 692 690 692 656 q 681 748 692 724 q 648 788 671 772 q 590 812 625 804 q 504 819 554 819 l 300 819 l 300 561 l 504 561 m 508 1326 l 703 1326 l 542 1069 l 382 1069 l 508 1326 z "},"ŕ":{"ha":608,"x_min":69,"x_max":581,"o":"m 69 763 l 281 763 l 281 618 q 319 684 296 654 q 372 733 342 713 q 441 766 403 754 q 524 777 479 777 q 535 777 528 777 q 552 776 543 777 q 569 775 561 776 q 581 774 577 774 l 581 572 l 481 572 q 401 559 437 572 q 338 523 364 546 q 296 467 311 499 q 281 395 281 434 l 281 0 l 69 0 l 69 763 m 218 1093 l 414 1093 l 252 836 l 93 836 l 218 1093 z "},"Ř":{"ha":973,"x_min":83,"x_max":935,"o":"m 717 0 l 635 300 q 616 349 627 329 q 589 381 605 369 q 550 399 572 393 q 496 405 527 405 l 300 405 l 300 0 l 83 0 l 83 997 l 541 997 q 818 925 726 997 q 909 710 909 853 q 731 461 909 517 q 804 413 776 444 q 843 341 831 382 l 935 0 l 717 0 m 504 561 q 590 568 555 561 q 648 592 626 576 q 681 632 671 608 q 692 690 692 656 q 681 748 692 724 q 648 788 671 772 q 590 812 625 804 q 504 819 554 819 l 300 819 l 300 561 l 504 561 m 581 1322 l 736 1322 l 587 1069 l 387 1069 l 237 1322 l 393 1322 l 487 1165 l 581 1322 z "},"ř":{"ha":608,"x_min":54,"x_max":581,"o":"m 69 763 l 281 763 l 281 618 q 319 684 296 654 q 372 733 342 713 q 441 766 403 754 q 524 777 479 777 q 535 777 528 777 q 552 776 543 777 q 569 775 561 776 q 581 774 577 774 l 581 572 l 481 572 q 401 559 437 572 q 338 523 364 546 q 296 467 311 499 q 281 395 281 434 l 281 0 l 69 0 l 69 763 m 398 1088 l 553 1088 l 404 836 l 204 836 l 54 1088 l 210 1088 l 304 931 l 398 1088 z "},"Ś":{"ha":907,"x_min":31,"x_max":865,"o":"m 73 702 q 100 833 73 776 q 177 929 127 890 q 299 988 227 968 q 463 1008 372 1008 q 853 795 753 1008 l 700 688 q 653 754 677 727 q 602 799 629 782 q 542 824 574 817 q 469 832 509 832 q 340 801 386 832 q 294 713 294 770 q 304 669 294 688 q 340 634 315 649 q 404 606 364 618 q 500 583 444 594 q 585 567 542 576 q 668 545 627 558 q 744 511 708 531 q 807 461 780 491 q 849 391 833 432 q 865 293 865 349 q 838 162 865 219 q 761 65 812 104 q 635 5 710 26 q 465 -15 561 -15 q 191 45 298 -15 q 31 220 83 106 l 184 330 q 302 201 233 242 q 471 159 372 159 q 602 189 557 159 q 647 274 647 219 q 636 318 647 299 q 602 352 626 337 q 540 379 578 367 q 444 401 501 391 q 360 419 404 410 q 275 443 316 429 q 197 477 234 456 q 133 528 161 498 q 89 602 105 559 q 73 702 73 644 m 474 1326 l 669 1326 l 508 1069 l 349 1069 l 474 1326 z "},"ś":{"ha":741,"x_min":23,"x_max":707,"o":"m 58 547 q 80 644 58 602 q 142 717 101 687 q 241 762 182 747 q 374 778 300 778 q 696 593 629 778 l 545 516 q 513 566 530 545 q 475 600 496 587 q 431 620 455 613 q 378 626 407 626 q 296 607 325 626 q 267 552 267 589 q 276 517 267 531 q 303 492 286 503 q 344 475 320 482 q 395 463 368 469 q 463 450 427 456 q 533 433 498 443 q 600 407 568 422 q 655 368 631 392 q 693 309 679 343 q 707 224 707 274 q 624 48 707 111 q 372 -15 541 -15 q 148 31 233 -15 q 23 174 62 77 l 173 255 q 207 206 186 228 q 254 169 227 184 q 311 145 280 154 q 377 137 342 137 q 467 158 434 137 q 499 216 499 179 q 487 252 499 238 q 452 274 474 265 q 401 290 430 283 q 338 302 372 296 q 273 316 306 309 q 209 335 239 323 q 150 365 178 347 q 102 408 123 382 q 70 467 82 433 q 58 547 58 501 m 391 1093 l 587 1093 l 425 836 l 266 836 l 391 1093 z "},"Ŝ":{"ha":907,"x_min":31,"x_max":865,"o":"m 73 702 q 100 833 73 776 q 177 929 127 890 q 299 988 227 968 q 463 1008 372 1008 q 853 795 753 1008 l 700 688 q 653 754 677 727 q 602 799 629 782 q 542 824 574 817 q 469 832 509 832 q 340 801 386 832 q 294 713 294 770 q 304 669 294 688 q 340 634 315 649 q 404 606 364 618 q 500 583 444 594 q 585 567 542 576 q 668 545 627 558 q 744 511 708 531 q 807 461 780 491 q 849 391 833 432 q 865 293 865 349 q 838 162 865 219 q 761 65 812 104 q 635 5 710 26 q 465 -15 561 -15 q 191 45 298 -15 q 31 220 83 106 l 184 330 q 302 201 233 242 q 471 159 372 159 q 602 189 557 159 q 647 274 647 219 q 636 318 647 299 q 602 352 626 337 q 540 379 578 367 q 444 401 501 391 q 360 419 404 410 q 275 443 316 429 q 197 477 234 456 q 133 528 161 498 q 89 602 105 559 q 73 702 73 644 m 548 1069 l 454 1225 l 359 1069 l 204 1069 l 354 1322 l 553 1322 l 703 1069 l 548 1069 z "},"ŝ":{"ha":741,"x_min":23,"x_max":707,"o":"m 58 547 q 80 644 58 602 q 142 717 101 687 q 241 762 182 747 q 374 778 300 778 q 696 593 629 778 l 545 516 q 513 566 530 545 q 475 600 496 587 q 431 620 455 613 q 378 626 407 626 q 296 607 325 626 q 267 552 267 589 q 276 517 267 531 q 303 492 286 503 q 344 475 320 482 q 395 463 368 469 q 463 450 427 456 q 533 433 498 443 q 600 407 568 422 q 655 368 631 392 q 693 309 679 343 q 707 224 707 274 q 624 48 707 111 q 372 -15 541 -15 q 148 31 233 -15 q 23 174 62 77 l 173 255 q 207 206 186 228 q 254 169 227 184 q 311 145 280 154 q 377 137 342 137 q 467 158 434 137 q 499 216 499 179 q 487 252 499 238 q 452 274 474 265 q 401 290 430 283 q 338 302 372 296 q 273 316 306 309 q 209 335 239 323 q 150 365 178 347 q 102 408 123 382 q 70 467 82 433 q 58 547 58 501 m 465 836 l 371 991 l 277 836 l 121 836 l 271 1088 l 471 1088 l 621 836 l 465 836 z "},"Ş":{"ha":907,"x_min":31,"x_max":865,"o":"m 73 702 q 100 833 73 776 q 177 929 127 890 q 299 988 227 968 q 463 1008 372 1008 q 853 795 753 1008 l 700 688 q 653 754 677 727 q 602 799 629 782 q 542 824 574 817 q 469 832 509 832 q 340 801 386 832 q 294 713 294 770 q 304 669 294 688 q 340 634 315 649 q 404 606 364 618 q 500 583 444 594 q 585 567 542 576 q 668 545 627 558 q 744 511 708 531 q 807 461 780 491 q 849 391 833 432 q 865 293 865 349 q 840 166 865 222 q 767 71 815 110 q 650 10 720 31 q 490 -14 580 -12 l 484 -14 l 451 -56 q 510 -66 483 -58 q 555 -89 536 -75 q 585 -122 574 -103 q 595 -165 595 -142 q 574 -223 595 -197 q 515 -266 553 -249 q 425 -290 477 -283 q 311 -292 373 -296 l 311 -212 q 414 -198 375 -212 q 453 -156 453 -184 q 445 -133 453 -142 q 424 -119 436 -124 q 397 -111 411 -113 q 372 -109 383 -109 l 359 -55 l 394 -12 q 168 59 258 1 q 31 220 78 117 l 184 330 q 302 201 233 242 q 471 159 372 159 q 602 189 557 159 q 647 274 647 219 q 636 318 647 299 q 602 352 626 337 q 540 379 578 367 q 444 401 501 391 q 360 419 404 410 q 275 443 316 429 q 197 477 234 456 q 133 528 161 498 q 89 602 105 559 q 73 702 73 644 z "},"ş":{"ha":741,"x_min":23,"x_max":707,"o":"m 58 547 q 80 644 58 602 q 142 717 101 687 q 241 762 182 747 q 374 778 300 778 q 696 593 629 778 l 545 516 q 513 566 530 545 q 475 600 496 587 q 431 620 455 613 q 378 626 407 626 q 296 607 325 626 q 267 552 267 589 q 276 517 267 531 q 303 492 286 503 q 344 475 320 482 q 395 463 368 469 q 463 450 427 456 q 533 433 498 443 q 600 407 568 422 q 655 368 631 392 q 693 309 679 343 q 707 224 707 274 q 631 54 707 117 q 405 -14 556 -8 l 402 -14 l 368 -56 q 427 -66 400 -58 q 473 -89 454 -75 q 502 -122 492 -103 q 513 -165 513 -142 q 491 -223 513 -197 q 432 -266 470 -249 q 342 -290 395 -283 q 229 -292 290 -296 l 229 -212 q 332 -198 293 -212 q 370 -156 370 -184 q 362 -133 370 -142 q 341 -119 353 -124 q 314 -111 328 -113 q 290 -109 300 -109 l 276 -55 l 311 -12 q 128 43 198 -3 q 23 174 58 88 l 173 255 q 207 206 186 228 q 254 169 227 184 q 311 145 280 154 q 377 137 342 137 q 467 158 434 137 q 499 216 499 179 q 487 252 499 238 q 452 274 474 265 q 401 290 430 283 q 338 302 372 296 q 273 316 306 309 q 209 335 239 323 q 150 365 178 347 q 102 408 123 382 q 70 467 82 433 q 58 547 58 501 z "},"Š":{"ha":907,"x_min":31,"x_max":865,"o":"m 73 702 q 100 833 73 776 q 177 929 127 890 q 299 988 227 968 q 463 1008 372 1008 q 853 795 753 1008 l 700 688 q 653 754 677 727 q 602 799 629 782 q 542 824 574 817 q 469 832 509 832 q 340 801 386 832 q 294 713 294 770 q 304 669 294 688 q 340 634 315 649 q 404 606 364 618 q 500 583 444 594 q 585 567 542 576 q 668 545 627 558 q 744 511 708 531 q 807 461 780 491 q 849 391 833 432 q 865 293 865 349 q 838 162 865 219 q 761 65 812 104 q 635 5 710 26 q 465 -15 561 -15 q 191 45 298 -15 q 31 220 83 106 l 184 330 q 302 201 233 242 q 471 159 372 159 q 602 189 557 159 q 647 274 647 219 q 636 318 647 299 q 602 352 626 337 q 540 379 578 367 q 444 401 501 391 q 360 419 404 410 q 275 443 316 429 q 197 477 234 456 q 133 528 161 498 q 89 602 105 559 q 73 702 73 644 m 548 1322 l 703 1322 l 553 1069 l 354 1069 l 204 1322 l 359 1322 l 454 1165 l 548 1322 z "},"š":{"ha":741,"x_min":23,"x_max":707,"o":"m 58 547 q 80 644 58 602 q 142 717 101 687 q 241 762 182 747 q 374 778 300 778 q 696 593 629 778 l 545 516 q 513 566 530 545 q 475 600 496 587 q 431 620 455 613 q 378 626 407 626 q 296 607 325 626 q 267 552 267 589 q 276 517 267 531 q 303 492 286 503 q 344 475 320 482 q 395 463 368 469 q 463 450 427 456 q 533 433 498 443 q 600 407 568 422 q 655 368 631 392 q 693 309 679 343 q 707 224 707 274 q 624 48 707 111 q 372 -15 541 -15 q 148 31 233 -15 q 23 174 62 77 l 173 255 q 207 206 186 228 q 254 169 227 184 q 311 145 280 154 q 377 137 342 137 q 467 158 434 137 q 499 216 499 179 q 487 252 499 238 q 452 274 474 265 q 401 290 430 283 q 338 302 372 296 q 273 316 306 309 q 209 335 239 323 q 150 365 178 347 q 102 408 123 382 q 70 467 82 433 q 58 547 58 501 m 465 1088 l 621 1088 l 471 836 l 271 836 l 121 1088 l 277 1088 l 371 931 l 465 1088 z "},"Ţ":{"ha":933,"x_min":14,"x_max":919,"o":"m 360 819 l 14 819 l 14 997 l 919 997 l 919 819 l 577 819 l 577 0 l 515 0 l 469 -56 q 528 -66 501 -58 q 574 -89 555 -75 q 604 -122 593 -103 q 614 -165 614 -142 q 593 -223 614 -197 q 534 -266 572 -249 q 444 -290 496 -283 q 330 -292 392 -296 l 330 -212 q 433 -198 394 -212 q 472 -156 472 -184 q 464 -133 472 -142 q 443 -119 455 -124 q 416 -112 430 -114 q 391 -109 402 -109 l 378 -55 l 422 0 l 360 0 l 360 819 z "},"ţ":{"ha":615,"x_min":8,"x_max":589,"o":"m 144 610 l 8 610 l 8 763 l 144 763 l 144 960 l 356 960 l 356 763 l 589 763 l 589 610 l 356 610 l 356 241 q 420 164 356 164 l 589 164 l 589 0 l 427 0 l 382 -56 q 441 -66 414 -58 q 487 -89 467 -75 q 516 -122 506 -103 q 527 -165 527 -142 q 506 -223 527 -197 q 447 -266 484 -249 q 357 -290 409 -283 q 243 -292 304 -296 l 243 -212 q 346 -198 307 -212 q 385 -156 385 -184 q 376 -133 385 -142 q 355 -119 368 -124 q 329 -112 342 -114 q 304 -109 315 -109 l 290 -55 l 335 0 q 194 54 244 3 q 144 195 144 104 l 144 610 z "},"Ť":{"ha":933,"x_min":14,"x_max":919,"o":"m 360 819 l 14 819 l 14 997 l 919 997 l 919 819 l 577 819 l 577 0 l 360 0 l 360 819 m 561 1322 l 716 1322 l 566 1069 l 367 1069 l 217 1322 l 372 1322 l 467 1165 l 561 1322 z "},"Ũ":{"ha":983,"x_min":79,"x_max":904,"o":"m 492 -15 q 315 10 392 -15 q 185 82 238 35 q 106 201 133 130 q 79 364 79 272 l 79 997 l 296 997 l 296 389 q 343 218 296 272 q 491 165 390 165 q 640 218 593 165 q 687 389 687 272 l 687 997 l 904 997 l 904 364 q 877 201 904 272 q 798 82 850 130 q 669 10 746 35 q 492 -15 593 -15 m 511 1242 q 548 1221 532 1228 q 581 1215 565 1215 q 626 1232 604 1215 q 679 1287 648 1249 l 746 1184 q 672 1108 711 1133 q 589 1082 633 1082 q 468 1125 534 1082 q 430 1146 447 1139 q 398 1153 414 1153 q 354 1136 376 1153 q 302 1081 332 1119 l 235 1184 q 389 1284 302 1284 q 511 1242 444 1284 z "},"ũ":{"ha":863,"x_min":66,"x_max":789,"o":"m 789 0 l 578 0 l 578 95 q 472 15 535 44 q 334 -15 410 -15 q 223 5 273 -15 q 138 62 173 25 q 84 151 103 98 q 66 267 66 203 l 66 763 l 278 763 l 278 287 q 288 234 278 258 q 315 193 297 210 q 358 166 333 176 q 414 157 383 157 q 481 170 451 157 q 533 205 511 183 q 566 257 554 228 q 578 320 578 287 l 578 763 l 789 763 l 789 0 m 451 1008 q 488 987 471 994 q 520 981 505 981 q 566 998 543 981 q 618 1053 588 1015 l 686 950 q 612 874 650 899 q 529 848 573 848 q 408 891 474 848 q 370 912 387 905 q 338 919 353 919 q 293 902 315 919 q 241 847 271 885 l 174 950 q 328 1050 242 1050 q 451 1008 384 1050 z "},"Ū":{"ha":983,"x_min":79,"x_max":904,"o":"m 492 -15 q 315 10 392 -15 q 185 82 238 35 q 106 201 133 130 q 79 364 79 272 l 79 997 l 296 997 l 296 389 q 343 218 296 272 q 491 165 390 165 q 640 218 593 165 q 687 389 687 272 l 687 997 l 904 997 l 904 364 q 877 201 904 272 q 798 82 850 130 q 669 10 746 35 q 492 -15 593 -15 m 276 1239 l 707 1239 l 707 1102 l 276 1102 l 276 1239 z "},"ū":{"ha":863,"x_min":66,"x_max":789,"o":"m 789 0 l 578 0 l 578 95 q 472 15 535 44 q 334 -15 410 -15 q 223 5 273 -15 q 138 62 173 25 q 84 151 103 98 q 66 267 66 203 l 66 763 l 278 763 l 278 287 q 288 234 278 258 q 315 193 297 210 q 358 166 333 176 q 414 157 383 157 q 481 170 451 157 q 533 205 511 183 q 566 257 554 228 q 578 320 578 287 l 578 763 l 789 763 l 789 0 m 216 1005 l 647 1005 l 647 868 l 216 868 l 216 1005 z "},"Ŭ":{"ha":983,"x_min":79,"x_max":904,"o":"m 492 -15 q 315 10 392 -15 q 185 82 238 35 q 106 201 133 130 q 79 364 79 272 l 79 997 l 296 997 l 296 389 q 343 218 296 272 q 491 165 390 165 q 640 218 593 165 q 687 389 687 272 l 687 997 l 904 997 l 904 364 q 877 201 904 272 q 798 82 850 130 q 669 10 746 35 q 492 -15 593 -15 m 492 1204 q 569 1233 541 1204 q 597 1310 597 1261 l 724 1310 q 708 1211 724 1255 q 663 1138 692 1168 q 590 1092 633 1107 q 492 1076 547 1076 q 394 1092 437 1076 q 321 1138 351 1107 q 275 1211 291 1168 q 260 1310 260 1255 l 387 1310 q 415 1233 387 1261 q 492 1204 444 1204 z "},"ŭ":{"ha":863,"x_min":66,"x_max":789,"o":"m 789 0 l 578 0 l 578 95 q 472 15 535 44 q 334 -15 410 -15 q 223 5 273 -15 q 138 62 173 25 q 84 151 103 98 q 66 267 66 203 l 66 763 l 278 763 l 278 287 q 288 234 278 258 q 315 193 297 210 q 358 166 333 176 q 414 157 383 157 q 481 170 451 157 q 533 205 511 183 q 566 257 554 228 q 578 320 578 287 l 578 763 l 789 763 l 789 0 m 432 970 q 509 999 481 970 q 536 1076 536 1027 l 663 1076 q 648 977 663 1021 q 603 904 632 934 q 530 858 573 873 q 432 842 487 842 q 334 858 377 842 q 261 904 291 873 q 215 977 231 934 q 199 1076 199 1021 l 327 1076 q 355 999 327 1027 q 432 970 383 970 z "},"Ů":{"ha":983,"x_min":79,"x_max":904,"o":"m 492 -15 q 315 10 392 -15 q 185 82 238 35 q 106 201 133 130 q 79 364 79 272 l 79 997 l 296 997 l 296 389 q 343 218 296 272 q 491 165 390 165 q 640 218 593 165 q 687 389 687 272 l 687 997 l 904 997 l 904 364 q 877 201 904 272 q 798 82 850 130 q 669 10 746 35 q 492 -15 593 -15 m 492 1051 q 418 1063 452 1051 q 361 1098 385 1076 q 325 1152 338 1120 q 312 1222 312 1183 q 325 1293 312 1261 q 361 1347 338 1324 q 418 1382 385 1370 q 492 1394 452 1394 q 566 1383 532 1394 q 623 1351 599 1372 q 659 1299 646 1329 q 672 1230 672 1268 q 659 1158 672 1191 q 623 1102 646 1126 q 566 1065 599 1078 q 492 1051 532 1051 m 492 1145 q 547 1166 526 1145 q 568 1222 568 1187 q 547 1278 568 1257 q 492 1299 526 1299 q 437 1278 458 1299 q 416 1222 416 1257 q 437 1166 416 1187 q 492 1145 458 1145 z "},"ů":{"ha":863,"x_min":66,"x_max":789,"o":"m 789 0 l 578 0 l 578 95 q 472 15 535 44 q 334 -15 410 -15 q 223 5 273 -15 q 138 62 173 25 q 84 151 103 98 q 66 267 66 203 l 66 763 l 278 763 l 278 287 q 288 234 278 258 q 315 193 297 210 q 358 166 333 176 q 414 157 383 157 q 481 170 451 157 q 533 205 511 183 q 566 257 554 228 q 578 320 578 287 l 578 763 l 789 763 l 789 0 m 432 817 q 358 829 391 817 q 301 864 325 842 q 264 918 277 886 q 252 988 252 949 q 264 1059 252 1027 q 301 1113 277 1090 q 358 1148 325 1136 q 432 1160 391 1160 q 505 1149 472 1160 q 562 1117 538 1138 q 599 1065 586 1095 q 612 996 612 1034 q 599 924 612 957 q 562 868 586 892 q 505 831 538 844 q 432 817 472 817 m 432 911 q 487 932 466 911 q 508 988 508 954 q 487 1044 508 1023 q 432 1065 466 1065 q 376 1044 397 1065 q 355 988 355 1023 q 376 932 355 954 q 432 911 397 911 z "},"Ű":{"ha":983,"x_min":79,"x_max":904,"o":"m 492 -15 q 315 10 392 -15 q 185 82 238 35 q 106 201 133 130 q 79 364 79 272 l 79 997 l 296 997 l 296 389 q 343 218 296 272 q 491 165 390 165 q 640 218 593 165 q 687 389 687 272 l 687 997 l 904 997 l 904 364 q 877 201 904 272 q 798 82 850 130 q 669 10 746 35 q 492 -15 593 -15 m 272 1069 l 356 1326 l 526 1326 l 417 1069 l 272 1069 m 511 1069 l 595 1326 l 765 1326 l 656 1069 l 511 1069 z "},"ű":{"ha":863,"x_min":66,"x_max":789,"o":"m 789 0 l 578 0 l 578 95 q 472 15 535 44 q 334 -15 410 -15 q 223 5 273 -15 q 138 62 173 25 q 84 151 103 98 q 66 267 66 203 l 66 763 l 278 763 l 278 287 q 288 234 278 258 q 315 193 297 210 q 358 166 333 176 q 414 157 383 157 q 481 170 451 157 q 533 205 511 183 q 566 257 554 228 q 578 320 578 287 l 578 763 l 789 763 l 789 0 m 212 836 l 296 1093 l 466 1093 l 357 836 l 212 836 m 452 836 l 536 1093 l 705 1093 l 597 836 l 452 836 z "},"Ų":{"ha":983,"x_min":79,"x_max":904,"o":"m 572 -179 q 605 -176 589 -179 q 633 -170 621 -174 l 633 -258 q 574 -277 610 -269 q 500 -284 538 -285 q 390 -250 431 -283 q 350 -157 350 -216 q 370 -80 350 -117 q 425 -12 389 -42 q 168 100 256 4 q 79 364 79 195 l 79 997 l 296 997 l 296 389 q 343 218 296 272 q 491 165 390 165 q 640 218 593 165 q 687 389 687 272 l 687 997 l 904 997 l 904 364 q 812 95 904 191 q 544 -13 720 -1 q 508 -64 521 -38 q 495 -111 495 -90 q 516 -161 495 -144 q 572 -179 537 -179 z "},"ų":{"ha":863,"x_min":66,"x_max":808,"o":"m 789 0 l 732 0 q 687 -57 703 -27 q 670 -111 670 -87 q 691 -161 670 -144 q 747 -179 712 -179 q 780 -176 764 -179 q 808 -170 795 -174 l 808 -258 q 749 -277 785 -269 q 676 -284 713 -285 q 566 -250 606 -283 q 526 -157 526 -216 q 549 -72 526 -113 q 616 0 573 -31 l 578 0 l 578 95 q 472 15 535 44 q 334 -15 410 -15 q 223 5 273 -15 q 138 62 173 25 q 84 151 103 98 q 66 267 66 203 l 66 763 l 278 763 l 278 287 q 288 234 278 258 q 315 193 297 210 q 358 166 333 176 q 414 157 383 157 q 481 170 451 157 q 533 205 511 183 q 566 257 554 228 q 578 320 578 287 l 578 763 l 789 763 l 789 0 z "},"Ŵ":{"ha":1437,"x_min":9,"x_max":1428,"o":"m 412 155 l 597 997 l 840 997 l 1025 155 l 1198 997 l 1428 997 l 1209 0 l 875 0 l 718 682 l 562 0 l 228 0 l 9 997 l 239 997 l 412 155 m 808 1069 l 714 1225 l 620 1069 l 465 1069 l 614 1322 l 814 1322 l 964 1069 l 808 1069 z "},"ŵ":{"ha":1175,"x_min":6,"x_max":1169,"o":"m 349 172 l 479 763 l 695 763 l 825 173 l 947 763 l 1169 763 l 992 0 l 696 0 l 587 484 l 479 0 l 182 0 l 6 763 l 228 763 l 349 172 m 682 836 l 587 991 l 493 836 l 338 836 l 488 1088 l 687 1088 l 837 836 l 682 836 z "},"Ŷ":{"ha":1005,"x_min":9,"x_max":996,"o":"m 503 572 l 746 997 l 996 997 l 609 357 l 609 0 l 396 0 l 396 356 l 9 997 l 258 997 l 503 572 m 597 1069 l 503 1225 l 408 1069 l 253 1069 l 403 1322 l 602 1322 l 752 1069 l 597 1069 z "},"ŷ":{"ha":809,"x_min":6,"x_max":803,"o":"m 403 267 l 572 763 l 803 763 l 475 -90 q 442 -158 460 -128 q 401 -207 425 -187 q 349 -238 378 -227 q 279 -248 319 -248 l 81 -248 l 81 -85 l 230 -85 q 276 -72 256 -85 q 303 -35 295 -58 l 313 -9 l 6 763 l 241 763 l 403 267 m 499 836 l 405 991 l 311 836 l 155 836 l 305 1088 l 505 1088 l 654 836 l 499 836 z "},"Ź":{"ha":840,"x_min":47,"x_max":793,"o":"m 793 997 l 793 822 l 292 178 l 793 178 l 793 0 l 47 0 l 47 175 l 549 819 l 47 819 l 47 997 l 793 997 m 441 1326 l 636 1326 l 475 1069 l 315 1069 l 441 1326 z "},"ź":{"ha":704,"x_min":44,"x_max":660,"o":"m 660 763 l 660 602 l 285 162 l 660 162 l 660 0 l 45 0 l 45 162 l 44 162 l 420 602 l 45 602 l 45 763 l 660 763 m 373 1093 l 568 1093 l 407 836 l 248 836 l 373 1093 z "},"Ż":{"ha":840,"x_min":47,"x_max":793,"o":"m 793 997 l 793 822 l 292 178 l 793 178 l 793 0 l 47 0 l 47 175 l 549 819 l 47 819 l 47 997 l 793 997 m 325 1276 l 516 1276 l 516 1078 l 325 1078 l 325 1276 z "},"ż":{"ha":704,"x_min":44,"x_max":660,"o":"m 660 763 l 660 602 l 285 162 l 660 162 l 660 0 l 45 0 l 45 162 l 44 162 l 420 602 l 45 602 l 45 763 l 660 763 m 256 1042 l 448 1042 l 448 844 l 256 844 l 256 1042 z "},"Ž":{"ha":840,"x_min":47,"x_max":793,"o":"m 793 997 l 793 822 l 292 178 l 793 178 l 793 0 l 47 0 l 47 175 l 549 819 l 47 819 l 47 997 l 793 997 m 514 1322 l 669 1322 l 519 1069 l 320 1069 l 170 1322 l 326 1322 l 420 1165 l 514 1322 z "},"ž":{"ha":704,"x_min":44,"x_max":660,"o":"m 660 763 l 660 602 l 285 162 l 660 162 l 660 0 l 45 0 l 45 162 l 44 162 l 420 602 l 45 602 l 45 763 l 660 763 m 446 1088 l 602 1088 l 452 836 l 252 836 l 102 1088 l 258 1088 l 352 931 l 446 1088 z "},"Ẁ":{"ha":1437,"x_min":9,"x_max":1428,"o":"m 412 155 l 597 997 l 840 997 l 1025 155 l 1198 997 l 1428 997 l 1209 0 l 875 0 l 718 682 l 562 0 l 228 0 l 9 997 l 239 997 l 412 155 m 647 1069 l 486 1322 l 681 1322 l 806 1069 l 647 1069 z "},"ẁ":{"ha":1175,"x_min":6,"x_max":1169,"o":"m 349 172 l 479 763 l 695 763 l 825 173 l 947 763 l 1169 763 l 992 0 l 696 0 l 587 484 l 479 0 l 182 0 l 6 763 l 228 763 l 349 172 m 521 836 l 359 1088 l 555 1088 l 680 836 l 521 836 z "},"Ẃ":{"ha":1437,"x_min":9,"x_max":1428,"o":"m 412 155 l 597 997 l 840 997 l 1025 155 l 1198 997 l 1428 997 l 1209 0 l 875 0 l 718 682 l 562 0 l 228 0 l 9 997 l 239 997 l 412 155 m 734 1326 l 930 1326 l 768 1069 l 609 1069 l 734 1326 z "},"ẃ":{"ha":1175,"x_min":6,"x_max":1169,"o":"m 349 172 l 479 763 l 695 763 l 825 173 l 947 763 l 1169 763 l 992 0 l 696 0 l 587 484 l 479 0 l 182 0 l 6 763 l 228 763 l 349 172 m 608 1093 l 804 1093 l 642 836 l 483 836 l 608 1093 z "},"̦":{"ha":178,"x_min":0,"x_max":177,"o":"m 0 -300 l 20 -54 l 177 -54 l 143 -300 l 0 -300 z "},"Ģ":{"ha":1026,"x_min":38,"x_max":965,"o":"m 748 414 l 454 414 l 454 572 l 960 572 l 960 157 q 890 83 932 115 q 795 30 848 52 q 680 -3 743 8 q 547 -15 617 -15 q 333 20 428 -15 q 173 122 239 56 q 73 284 108 189 q 38 498 38 379 q 73 712 38 617 q 172 873 107 807 q 330 976 237 940 q 540 1011 422 1011 q 802 946 697 1011 q 965 745 907 880 l 800 652 q 744 734 773 701 q 684 790 715 768 q 615 822 652 812 q 534 831 578 831 q 416 809 468 831 q 330 745 365 787 q 277 641 295 703 q 258 498 258 578 q 332 250 258 335 q 546 165 405 165 q 660 180 610 165 q 748 230 709 195 l 748 414 m 423 -352 l 443 -105 l 600 -105 l 566 -352 l 423 -352 z "},"ģ":{"ha":897,"x_min":38,"x_max":827,"o":"m 372 778 q 510 751 448 778 q 616 675 572 724 l 616 763 l 827 763 l 827 104 q 730 -166 827 -76 q 436 -256 633 -256 q 305 -244 364 -256 q 200 -208 245 -232 q 124 -148 155 -184 q 79 -65 93 -113 l 235 24 q 314 -56 262 -28 q 437 -84 365 -84 q 572 -35 529 -84 q 616 117 616 14 l 616 161 q 510 86 572 113 q 372 59 448 59 q 235 85 296 59 q 130 158 174 111 q 62 272 86 205 q 38 419 38 338 q 62 566 38 500 q 130 679 86 631 q 235 752 174 726 q 372 778 296 778 m 436 611 q 302 560 349 611 q 254 416 254 509 q 302 272 254 323 q 436 221 349 221 q 511 235 477 221 q 567 274 544 248 q 603 335 591 299 q 616 416 616 371 q 603 497 616 460 q 567 558 591 533 q 511 597 544 584 q 436 611 477 611 m 551 1120 l 532 873 l 374 873 l 408 1120 l 551 1120 z "},"Ķ":{"ha":964,"x_min":83,"x_max":956,"o":"m 83 997 l 300 997 l 300 618 l 667 997 l 934 997 l 570 628 l 956 0 l 707 0 l 422 476 l 300 353 l 300 0 l 83 0 l 83 997 m 393 -352 l 412 -105 l 570 -105 l 536 -352 l 393 -352 z "},"ķ":{"ha":819,"x_min":69,"x_max":810,"o":"m 69 1042 l 281 1042 l 281 484 l 540 764 l 791 764 l 526 489 l 810 0 l 576 0 l 384 336 l 281 233 l 281 0 l 69 0 l 69 1042 m 319 -352 l 338 -105 l 496 -105 l 462 -352 l 319 -352 z "},"Ļ":{"ha":786,"x_min":83,"x_max":749,"o":"m 83 997 l 300 997 l 300 178 l 749 178 l 749 0 l 83 0 l 83 997 m 303 -352 l 323 -105 l 480 -105 l 446 -352 l 303 -352 z "},"Ņ":{"ha":1029,"x_min":83,"x_max":947,"o":"m 83 997 l 380 997 l 730 246 l 730 997 l 947 997 l 947 0 l 644 0 l 300 743 l 300 0 l 83 0 l 83 997 m 425 -352 l 444 -105 l 602 -105 l 568 -352 l 425 -352 z "},"ņ":{"ha":863,"x_min":73,"x_max":797,"o":"m 73 763 l 285 763 l 285 667 q 390 748 328 718 q 529 778 453 778 q 640 758 591 778 q 725 701 690 738 q 778 612 760 665 q 797 496 797 560 l 797 0 l 585 0 l 585 476 q 575 530 585 506 q 548 571 566 553 q 505 597 530 588 q 449 606 479 606 q 381 593 412 606 q 330 557 351 580 q 297 506 309 535 q 285 444 285 476 l 285 0 l 73 0 l 73 763 m 341 -352 l 361 -105 l 518 -105 l 484 -352 l 341 -352 z "},"Ŗ":{"ha":973,"x_min":83,"x_max":935,"o":"m 717 0 l 635 300 q 616 349 627 329 q 589 381 605 369 q 550 399 572 393 q 496 405 527 405 l 300 405 l 300 0 l 83 0 l 83 997 l 541 997 q 818 925 726 997 q 909 710 909 853 q 731 461 909 517 q 804 413 776 444 q 843 341 831 382 l 935 0 l 717 0 m 504 561 q 590 568 555 561 q 648 592 626 576 q 681 632 671 608 q 692 690 692 656 q 681 748 692 724 q 648 788 671 772 q 590 812 625 804 q 504 819 554 819 l 300 819 l 300 561 l 504 561 m 397 -352 l 416 -105 l 574 -105 l 540 -352 l 397 -352 z "},"ŗ":{"ha":608,"x_min":69,"x_max":581,"o":"m 69 763 l 281 763 l 281 618 q 319 684 296 654 q 372 733 342 713 q 441 766 403 754 q 524 777 479 777 q 535 777 528 777 q 552 776 543 777 q 569 775 561 776 q 581 774 577 774 l 581 572 l 481 572 q 401 559 437 572 q 338 523 364 546 q 296 467 311 499 q 281 395 281 434 l 281 0 l 69 0 l 69 763 m 81 -352 l 100 -105 l 258 -105 l 224 -352 l 81 -352 z "},"Ș":{"ha":907,"x_min":31,"x_max":865,"o":"m 73 702 q 100 833 73 776 q 177 929 127 890 q 299 988 227 968 q 463 1008 372 1008 q 853 795 753 1008 l 700 688 q 653 754 677 727 q 602 799 629 782 q 542 824 574 817 q 469 832 509 832 q 340 801 386 832 q 294 713 294 770 q 304 669 294 688 q 340 634 315 649 q 404 606 364 618 q 500 583 444 594 q 585 567 542 576 q 668 545 627 558 q 744 511 708 531 q 807 461 780 491 q 849 391 833 432 q 865 293 865 349 q 838 162 865 219 q 761 65 812 104 q 635 5 710 26 q 465 -15 561 -15 q 191 45 298 -15 q 31 220 83 106 l 184 330 q 302 201 233 242 q 471 159 372 159 q 602 189 557 159 q 647 274 647 219 q 636 318 647 299 q 602 352 626 337 q 540 379 578 367 q 444 401 501 391 q 360 419 404 410 q 275 443 316 429 q 197 477 234 456 q 133 528 161 498 q 89 602 105 559 q 73 702 73 644 m 363 -352 l 383 -105 l 541 -105 l 507 -352 l 363 -352 z "},"ș":{"ha":741,"x_min":23,"x_max":707,"o":"m 58 547 q 80 644 58 602 q 142 717 101 687 q 241 762 182 747 q 374 778 300 778 q 696 593 629 778 l 545 516 q 513 566 530 545 q 475 600 496 587 q 431 620 455 613 q 378 626 407 626 q 296 607 325 626 q 267 552 267 589 q 276 517 267 531 q 303 492 286 503 q 344 475 320 482 q 395 463 368 469 q 463 450 427 456 q 533 433 498 443 q 600 407 568 422 q 655 368 631 392 q 693 309 679 343 q 707 224 707 274 q 624 48 707 111 q 372 -15 541 -15 q 148 31 233 -15 q 23 174 62 77 l 173 255 q 207 206 186 228 q 254 169 227 184 q 311 145 280 154 q 377 137 342 137 q 467 158 434 137 q 499 216 499 179 q 487 252 499 238 q 452 274 474 265 q 401 290 430 283 q 338 302 372 296 q 273 316 306 309 q 209 335 239 323 q 150 365 178 347 q 102 408 123 382 q 70 467 82 433 q 58 547 58 501 m 281 -352 l 300 -105 l 458 -105 l 424 -352 l 281 -352 z "},"Ț":{"ha":933,"x_min":14,"x_max":919,"o":"m 360 819 l 14 819 l 14 997 l 919 997 l 919 819 l 577 819 l 577 0 l 360 0 l 360 819 m 376 -352 l 396 -105 l 553 -105 l 519 -352 l 376 -352 z "},"ț":{"ha":615,"x_min":8,"x_max":589,"o":"m 144 610 l 8 610 l 8 763 l 144 763 l 144 960 l 356 960 l 356 763 l 589 763 l 589 610 l 356 610 l 356 241 q 420 164 356 164 l 589 164 l 589 0 l 344 0 q 196 51 249 0 q 144 195 144 102 l 144 610 m 218 -352 l 237 -105 l 395 -105 l 361 -352 l 218 -352 z "},"Ä":{"ha":1001,"x_min":9,"x_max":993,"o":"m 9 0 l 321 997 l 680 997 l 993 0 l 765 0 l 694 229 l 307 229 l 236 0 l 9 0 m 643 404 l 500 867 l 358 404 l 643 404 m 294 1320 l 452 1320 l 452 1109 l 294 1109 l 294 1320 m 551 1320 l 708 1320 l 708 1109 l 551 1109 l 551 1320 z "},"Ï":{"ha":382,"x_min":-16,"x_max":397,"o":"m 83 997 l 300 997 l 300 0 l 83 0 l 83 997 m -16 1320 l 141 1320 l 141 1109 l -16 1109 l -16 1320 m 240 1320 l 397 1320 l 397 1109 l 240 1109 l 240 1320 z "},"Ö":{"ha":1073,"x_min":43,"x_max":1029,"o":"m 43 498 q 77 711 43 616 q 175 873 111 806 q 331 976 239 940 q 536 1011 422 1011 q 742 976 650 1011 q 897 873 833 940 q 995 712 961 807 q 1029 498 1029 617 q 995 285 1029 380 q 897 123 961 190 q 742 21 833 57 q 536 -15 650 -15 q 331 21 422 -15 q 175 123 239 57 q 77 285 111 190 q 43 498 43 380 m 264 498 q 282 356 264 418 q 334 252 300 294 q 420 187 369 209 q 536 165 471 165 q 739 251 669 165 q 809 498 809 337 q 791 641 809 578 q 739 745 773 703 q 653 809 704 787 q 536 831 602 831 q 420 809 471 831 q 334 745 369 787 q 282 640 300 702 q 264 498 264 578 m 330 1320 l 487 1320 l 487 1109 l 330 1109 l 330 1320 m 586 1320 l 743 1320 l 743 1109 l 586 1109 l 586 1320 z "},"ä":{"ha":791,"x_min":39,"x_max":721,"o":"m 49 181 q 86 298 49 249 q 205 386 123 348 q 323 425 247 405 q 509 465 400 444 l 509 496 q 473 583 509 555 q 374 612 437 612 q 270 573 309 612 q 215 454 231 534 l 39 510 q 150 710 60 642 q 389 778 239 778 q 528 761 467 778 q 633 713 590 745 q 698 634 675 681 q 721 528 721 588 l 721 0 l 509 0 l 509 90 q 414 12 473 39 q 279 -16 355 -16 q 182 -2 225 -16 q 110 37 140 12 q 65 99 81 62 q 49 181 49 136 m 509 337 q 400 313 443 324 q 331 290 357 302 q 263 205 263 259 q 288 151 263 172 q 353 131 313 131 q 411 141 383 131 q 459 170 438 152 q 494 211 481 188 q 509 259 508 234 l 509 337 m 189 1086 l 346 1086 l 346 876 l 189 876 l 189 1086 m 445 1086 l 602 1086 l 602 876 l 445 876 l 445 1086 z "},"ë":{"ha":807,"x_min":38,"x_max":775,"o":"m 255 321 q 316 200 269 244 q 435 155 363 155 q 538 186 492 155 q 610 272 584 217 l 765 189 q 714 102 747 140 q 640 38 682 64 q 547 -2 597 12 q 441 -16 496 -16 q 272 13 347 -16 q 145 94 197 41 q 66 219 94 146 q 38 381 38 292 q 65 544 38 471 q 141 668 92 616 q 261 748 191 720 q 419 777 332 777 q 566 753 500 777 q 678 685 631 729 q 750 578 724 641 q 775 437 775 515 q 774 379 775 411 q 771 321 774 347 l 255 321 m 425 611 q 310 570 353 611 q 254 452 267 530 l 587 452 l 587 467 q 576 527 587 500 q 543 572 564 553 q 492 601 522 591 q 425 611 462 611 m 197 1086 l 355 1086 l 355 876 l 197 876 l 197 1086 m 454 1086 l 611 1086 l 611 876 l 454 876 l 454 1086 z "},"ï":{"ha":351,"x_min":-32,"x_max":382,"o":"m 69 763 l 281 763 l 281 0 l 69 0 l 69 763 m -32 1086 l 125 1086 l 125 876 l -32 876 l -32 1086 m 224 1086 l 382 1086 l 382 876 l 224 876 l 224 1086 z "},"ö":{"ha":874,"x_min":38,"x_max":836,"o":"m 437 778 q 605 749 531 778 q 730 669 679 721 q 809 544 782 617 q 836 381 836 471 q 809 218 836 292 q 730 93 781 145 q 605 13 679 41 q 437 -16 531 -16 q 270 13 344 -16 q 144 94 195 41 q 65 219 93 146 q 38 381 38 292 q 65 544 38 471 q 144 669 93 617 q 270 749 195 721 q 437 778 344 778 m 437 603 q 300 545 347 603 q 254 380 254 488 q 300 217 254 274 q 437 159 347 159 q 574 217 528 159 q 620 380 620 274 q 574 545 620 488 q 437 603 528 603 m 231 1086 l 388 1086 l 388 876 l 231 876 l 231 1086 m 487 1086 l 644 1086 l 644 876 l 487 876 l 487 1086 z "},"ü":{"ha":863,"x_min":66,"x_max":789,"o":"m 789 0 l 578 0 l 578 95 q 472 15 535 44 q 334 -15 410 -15 q 223 5 273 -15 q 138 62 173 25 q 84 151 103 98 q 66 267 66 203 l 66 763 l 278 763 l 278 287 q 288 234 278 258 q 315 193 297 210 q 358 166 333 176 q 414 157 383 157 q 481 170 451 157 q 533 205 511 183 q 566 257 554 228 q 578 320 578 287 l 578 763 l 789 763 l 789 0 m 224 1086 l 382 1086 l 382 876 l 224 876 l 224 1086 m 481 1086 l 638 1086 l 638 876 l 481 876 l 481 1086 z "},"ÿ":{"ha":809,"x_min":6,"x_max":803,"o":"m 403 267 l 572 763 l 803 763 l 475 -90 q 442 -158 460 -128 q 401 -207 425 -187 q 349 -238 378 -227 q 279 -248 319 -248 l 81 -248 l 81 -85 l 230 -85 q 276 -72 256 -85 q 303 -35 295 -58 l 313 -9 l 6 763 l 241 763 l 403 267 m 197 1086 l 355 1086 l 355 876 l 197 876 l 197 1086 m 454 1086 l 611 1086 l 611 876 l 454 876 l 454 1086 z "},"Ÿ":{"ha":1005,"x_min":9,"x_max":996,"o":"m 503 572 l 746 997 l 996 997 l 609 357 l 609 0 l 396 0 l 396 356 l 9 997 l 258 997 l 503 572 m 296 1320 l 453 1320 l 453 1109 l 296 1109 l 296 1320 m 552 1320 l 709 1320 l 709 1109 l 552 1109 l 552 1320 z "},"Ẅ":{"ha":1437,"x_min":9,"x_max":1428,"o":"m 412 155 l 597 997 l 840 997 l 1025 155 l 1198 997 l 1428 997 l 1209 0 l 875 0 l 718 682 l 562 0 l 228 0 l 9 997 l 239 997 l 412 155 m 507 1320 l 665 1320 l 665 1109 l 507 1109 l 507 1320 m 764 1320 l 921 1320 l 921 1109 l 764 1109 l 764 1320 z "},"ẅ":{"ha":1175,"x_min":6,"x_max":1169,"o":"m 349 172 l 479 763 l 695 763 l 825 173 l 947 763 l 1169 763 l 992 0 l 696 0 l 587 484 l 479 0 l 182 0 l 6 763 l 228 763 l 349 172 m 381 1086 l 538 1086 l 538 876 l 381 876 l 381 1086 m 637 1086 l 795 1086 l 795 876 l 637 876 l 637 1086 z "},"Ë":{"ha":862,"x_min":83,"x_max":804,"o":"m 83 997 l 804 997 l 804 822 l 300 822 l 300 594 l 777 594 l 777 425 l 300 425 l 300 175 l 804 175 l 804 0 l 83 0 l 83 997 m 224 1320 l 382 1320 l 382 1109 l 224 1109 l 224 1320 m 481 1320 l 638 1320 l 638 1109 l 481 1109 l 481 1320 z "},"Æ":{"ha":1389,"x_min":0,"x_max":1332,"o":"m 672 187 l 339 187 l 242 0 l 0 0 l 524 997 l 1332 997 l 1332 822 l 889 822 l 889 594 l 1304 594 l 1304 425 l 889 425 l 889 175 l 1332 175 l 1332 0 l 672 0 l 672 187 m 672 358 l 672 834 l 426 358 l 672 358 z "},"Ð":{"ha":1072,"x_min":14,"x_max":1033,"o":"m 135 414 l 14 414 l 14 583 l 135 583 l 135 997 l 550 997 q 753 963 663 997 q 905 864 843 928 q 1000 708 967 800 q 1033 498 1033 615 q 1000 290 1033 382 q 905 133 967 197 q 753 34 842 68 q 550 0 663 0 l 135 0 l 135 414 m 550 178 q 746 259 680 178 q 812 499 812 340 q 746 738 812 656 q 550 819 680 819 l 352 819 l 352 583 l 565 583 l 565 414 l 352 414 l 352 178 l 550 178 z "},"Đ":{"ha":1072,"x_min":14,"x_max":1033,"o":"m 135 414 l 14 414 l 14 583 l 135 583 l 135 997 l 550 997 q 753 963 663 997 q 905 864 843 928 q 1000 708 967 800 q 1033 498 1033 615 q 1000 290 1033 382 q 905 133 967 197 q 753 34 842 68 q 550 0 663 0 l 135 0 l 135 414 m 550 178 q 746 259 680 178 q 812 499 812 340 q 746 738 812 656 q 550 819 680 819 l 352 819 l 352 583 l 565 583 l 565 414 l 352 414 l 352 178 l 550 178 z "},"Ł":{"ha":844,"x_min":14,"x_max":807,"o":"m 141 348 l 14 292 l 14 469 l 141 526 l 141 997 l 358 997 l 358 621 l 593 724 l 593 547 l 358 443 l 358 178 l 807 178 l 807 0 l 141 0 l 141 348 z "},"Ø":{"ha":1073,"x_min":43,"x_max":1029,"o":"m 43 498 q 77 711 43 616 q 175 873 111 806 q 331 976 239 940 q 536 1011 422 1011 q 588 1009 563 1011 q 637 1002 614 1007 l 665 1074 l 848 1074 l 800 948 q 969 772 909 886 q 1029 498 1029 657 q 995 285 1029 380 q 897 123 961 190 q 742 21 833 57 q 536 -15 650 -15 q 485 -13 510 -15 q 435 -6 459 -11 l 408 -75 l 225 -75 l 273 48 q 103 225 163 110 q 43 498 43 340 m 264 498 q 286 351 264 414 q 349 246 308 287 l 570 827 q 532 831 553 831 q 418 808 468 831 q 333 743 368 785 q 281 639 299 701 q 264 498 264 577 m 503 169 q 541 165 520 165 q 655 188 606 165 q 740 253 705 210 q 791 357 774 295 q 809 498 809 419 q 787 645 809 582 q 724 749 764 709 l 503 169 z "},"Œ":{"ha":1360,"x_min":43,"x_max":1302,"o":"m 43 498 q 77 711 43 616 q 175 873 111 806 q 331 976 239 940 q 536 1011 422 1011 q 607 1007 571 1011 q 667 997 642 1003 l 1302 997 l 1302 822 l 859 822 l 859 594 l 1275 594 l 1275 425 l 859 425 l 859 175 l 1302 175 l 1302 0 l 660 0 q 599 -11 633 -7 q 536 -15 565 -15 q 331 21 422 -15 q 175 123 239 57 q 77 285 111 190 q 43 498 43 380 m 642 813 q 536 831 595 831 q 420 809 471 831 q 334 745 369 787 q 282 640 300 702 q 264 498 264 578 q 282 356 264 418 q 334 252 300 294 q 420 187 369 209 q 536 165 471 165 q 642 182 595 165 l 642 813 z "},"Ü":{"ha":983,"x_min":79,"x_max":904,"o":"m 492 -15 q 315 10 392 -15 q 185 82 238 35 q 106 201 133 130 q 79 364 79 272 l 79 997 l 296 997 l 296 389 q 343 218 296 272 q 491 165 390 165 q 640 218 593 165 q 687 389 687 272 l 687 997 l 904 997 l 904 364 q 877 201 904 272 q 798 82 850 130 q 669 10 746 35 q 492 -15 593 -15 m 285 1320 l 442 1320 l 442 1109 l 285 1109 l 285 1320 m 541 1320 l 699 1320 l 699 1109 l 541 1109 l 541 1320 z "},"đ":{"ha":935,"x_min":38,"x_max":925,"o":"m 357 778 q 498 744 436 778 q 604 650 561 711 l 604 857 l 395 857 l 395 951 l 604 951 l 604 1042 l 816 1042 l 816 951 l 925 951 l 925 857 l 816 857 l 816 0 l 604 0 l 604 113 q 498 18 561 52 q 357 -16 436 -16 q 227 13 286 -16 q 126 94 168 42 q 61 219 84 146 q 38 381 38 292 q 61 543 38 470 q 126 669 84 616 q 227 749 168 721 q 357 778 286 778 m 429 600 q 300 542 346 600 q 254 380 254 484 q 300 220 254 277 q 429 163 346 163 q 506 179 473 163 q 560 224 538 195 q 593 293 582 253 q 604 380 604 333 q 593 469 604 429 q 561 538 583 509 q 506 584 539 568 q 429 600 473 600 z "},"ł":{"ha":496,"x_min":24,"x_max":473,"o":"m 142 348 l 24 271 l 24 424 l 142 501 l 142 1042 l 354 1042 l 354 638 l 473 715 l 473 562 l 354 485 l 354 0 l 142 0 l 142 348 z "},"ø":{"ha":874,"x_min":38,"x_max":836,"o":"m 437 778 q 517 772 478 778 l 557 878 l 704 878 l 647 730 q 787 593 739 682 q 836 381 836 503 q 809 218 836 292 q 730 93 781 145 q 605 13 679 41 q 437 -16 531 -16 q 363 -9 399 -16 l 323 -113 l 177 -113 l 232 30 q 89 168 139 77 q 38 381 38 258 q 65 544 38 471 q 144 669 93 617 q 270 749 195 721 q 437 778 344 778 m 429 603 q 298 543 342 601 q 254 380 254 486 q 267 287 254 328 q 304 219 280 246 l 451 602 q 440 603 446 602 q 429 603 435 603 m 429 162 q 452 160 441 160 q 577 221 535 164 q 620 380 620 278 q 572 536 620 482 l 429 162 z "},"œ":{"ha":1390,"x_min":38,"x_max":1358,"o":"m 437 778 q 604 748 530 778 q 727 666 677 719 q 845 748 776 719 q 1002 777 914 777 q 1148 753 1082 777 q 1260 685 1214 729 q 1332 578 1307 641 q 1358 437 1358 515 q 1357 379 1358 411 q 1353 321 1356 347 l 838 321 q 898 200 851 244 q 1017 155 945 155 q 1120 186 1074 155 q 1192 272 1166 217 l 1348 189 q 1297 102 1329 140 q 1222 38 1265 64 q 1129 -2 1180 12 q 1023 -16 1078 -16 q 854 14 928 -16 q 728 99 780 44 q 605 14 677 44 q 437 -16 532 -16 q 270 13 344 -16 q 144 94 195 41 q 65 219 93 146 q 38 381 38 292 q 65 544 38 471 q 144 669 93 617 q 270 749 195 721 q 437 778 344 778 m 1008 611 q 892 570 936 611 q 836 452 848 530 l 1170 452 l 1170 467 q 1158 527 1170 500 q 1125 572 1147 553 q 1074 601 1104 591 q 1008 611 1044 611 m 437 603 q 300 545 347 603 q 254 380 254 488 q 300 217 254 274 q 437 159 347 159 q 574 217 528 159 q 620 380 620 274 q 574 545 620 488 q 437 603 528 603 z "},"æ":{"ha":1279,"x_min":39,"x_max":1247,"o":"m 49 181 q 86 298 49 249 q 205 386 123 348 q 323 425 247 405 q 509 465 400 444 l 509 496 q 473 583 509 555 q 374 612 437 612 q 270 573 309 612 q 215 454 231 534 l 39 510 q 150 710 60 642 q 389 778 239 778 q 541 756 475 778 q 647 694 606 735 q 755 755 694 734 q 891 777 817 777 q 1038 753 972 777 q 1150 685 1103 729 q 1222 578 1196 641 q 1247 437 1247 515 q 1246 379 1247 411 q 1242 321 1246 347 l 727 321 q 749 252 734 283 q 787 200 764 221 q 841 167 810 178 q 907 155 871 155 q 1010 186 964 155 q 1081 272 1056 217 l 1237 189 q 1186 102 1219 140 q 1112 38 1154 64 q 1019 -2 1069 12 q 913 -16 968 -16 q 743 14 818 -16 q 615 99 667 44 q 477 12 551 39 q 308 -16 404 -16 q 116 35 182 -16 q 49 181 49 86 m 897 611 q 782 570 825 611 q 726 452 738 530 l 1059 452 l 1059 467 q 1048 527 1059 500 q 1015 572 1036 553 q 964 601 994 591 q 897 611 934 611 m 509 337 q 400 313 443 324 q 331 290 357 302 q 263 205 263 259 q 288 151 263 172 q 353 131 313 131 q 411 141 383 131 q 459 170 438 152 q 494 211 481 188 q 509 259 508 234 l 509 337 z "},"ļ":{"ha":350,"x_min":69,"x_max":281,"o":"m 69 1042 l 281 1042 l 281 0 l 69 0 l 69 1042 m 87 -352 l 106 -105 l 264 -105 l 230 -352 l 87 -352 z "},"Ħ":{"ha":1114,"x_min":19,"x_max":1095,"o":"m 118 725 l 19 725 l 19 833 l 118 833 l 118 997 l 335 997 l 335 833 l 779 833 l 779 997 l 996 997 l 996 833 l 1095 833 l 1095 725 l 996 725 l 996 0 l 779 0 l 779 429 l 335 429 l 335 0 l 118 0 l 118 725 m 779 607 l 779 725 l 335 725 l 335 607 l 779 607 z "},"ħ":{"ha":918,"x_min":10,"x_max":852,"o":"m 128 853 l 10 853 l 10 948 l 128 948 l 128 1042 l 340 1042 l 340 948 l 582 948 l 582 853 l 340 853 l 340 667 q 445 748 382 718 q 584 778 508 778 q 695 758 646 778 q 780 701 745 738 q 834 612 815 665 q 852 496 852 560 l 852 0 l 641 0 l 641 476 q 631 530 641 506 q 603 571 621 553 q 560 597 585 588 q 504 606 534 606 q 436 593 467 606 q 385 557 406 580 q 352 506 363 535 q 340 444 340 476 l 340 0 l 128 0 l 128 853 z "},"Ŀ":{"ha":786,"x_min":83,"x_max":749,"o":"m 83 997 l 300 997 l 300 178 l 749 178 l 749 0 l 83 0 l 83 997 m 434 763 l 634 763 l 634 539 l 434 539 l 434 763 z "},"ŀ":{"ha":686,"x_min":69,"x_max":610,"o":"m 69 1042 l 281 1042 l 281 0 l 69 0 l 69 1042 m 410 763 l 610 763 l 610 539 l 410 539 l 410 763 z "},"ť":{"ha":621,"x_min":8,"x_max":644,"o":"m 144 610 l 8 610 l 8 763 l 144 763 l 144 960 l 356 960 l 356 763 l 589 763 l 589 610 l 356 610 l 356 241 q 420 164 356 164 l 589 164 l 589 0 l 344 0 q 196 51 249 0 q 144 195 144 102 l 144 610 m 467 903 l 486 1150 l 644 1150 l 610 903 l 467 903 z "},"Ŧ":{"ha":933,"x_min":14,"x_max":919,"o":"m 360 439 l 163 439 l 163 560 l 360 560 l 360 819 l 14 819 l 14 997 l 919 997 l 919 819 l 577 819 l 577 560 l 770 560 l 770 439 l 577 439 l 577 0 l 360 0 l 360 439 z "},"ŧ":{"ha":615,"x_min":8,"x_max":589,"o":"m 144 369 l 8 369 l 8 477 l 144 477 l 144 610 l 8 610 l 8 763 l 144 763 l 144 960 l 356 960 l 356 763 l 589 763 l 589 610 l 356 610 l 356 477 l 588 477 l 588 369 l 356 369 l 356 241 q 420 164 356 164 l 589 164 l 589 0 l 344 0 q 196 51 249 0 q 144 195 144 102 l 144 369 z "},"π":{"ha":937,"x_min":24,"x_max":913,"o":"m 583 596 l 353 596 l 353 0 l 142 0 l 142 596 l 24 596 l 24 763 l 913 763 l 913 596 l 795 596 l 795 0 l 583 0 l 583 596 z "},"¼":{"ha":1153,"x_min":43,"x_max":1129,"o":"m 187 860 l 43 795 l 43 919 l 218 997 l 329 997 l 329 399 l 187 399 l 187 860 m 819 1038 l 407 -41 l 259 -41 l 671 1038 l 819 1038 m 903 154 l 614 154 l 614 244 l 859 598 l 1037 598 l 1037 252 l 1129 252 l 1129 154 l 1037 154 l 1037 0 l 903 0 l 903 154 m 903 252 l 903 475 l 749 252 l 903 252 z "},"½":{"ha":1186,"x_min":43,"x_max":1150,"o":"m 187 859 l 43 795 l 43 918 l 218 996 l 329 996 l 329 398 l 187 398 l 187 859 m 819 1038 l 407 -41 l 259 -41 l 671 1038 l 819 1038 m 920 615 q 1010 602 970 615 q 1077 565 1050 589 q 1119 506 1105 541 q 1133 428 1133 471 q 1125 366 1133 395 q 1100 310 1116 337 q 1059 258 1083 283 q 1002 204 1034 232 l 901 117 l 1150 117 l 1150 -1 l 715 -1 l 715 117 l 907 275 q 946 311 930 294 q 972 345 962 328 q 986 379 982 362 q 991 416 991 397 q 969 479 991 456 q 911 501 948 501 q 850 480 876 501 q 800 412 823 459 l 702 475 q 920 615 753 615 z "},"¾":{"ha":1265,"x_min":24,"x_max":1242,"o":"m 121 587 q 179 518 146 540 q 256 496 212 496 q 326 517 300 496 q 352 576 352 538 q 328 630 351 611 q 266 648 304 648 l 159 648 l 159 747 l 258 747 q 316 767 294 747 q 338 823 338 787 q 316 879 338 859 q 254 899 294 899 q 185 877 215 899 q 132 808 155 855 l 36 869 q 262 1010 87 1010 q 353 998 313 1010 q 421 964 393 986 q 464 911 449 942 q 479 840 479 880 q 457 757 479 793 q 396 701 435 721 q 467 647 441 684 q 492 559 492 610 q 476 487 492 519 q 430 432 460 455 q 357 397 400 410 q 260 385 314 385 q 24 526 79 385 l 121 587 m 932 1038 l 520 -41 l 372 -41 l 785 1038 l 932 1038 m 1015 154 l 726 154 l 726 244 l 972 598 l 1149 598 l 1149 252 l 1242 252 l 1242 154 l 1149 154 l 1149 0 l 1015 0 l 1015 154 m 1015 252 l 1015 475 l 861 252 l 1015 252 z "},"²":{"ha":496,"x_min":24,"x_max":473,"o":"m 242 1213 q 333 1200 293 1213 q 400 1163 372 1187 q 441 1104 427 1139 q 456 1026 456 1069 q 447 964 456 993 q 422 908 439 935 q 381 856 406 882 q 325 802 357 830 l 224 715 l 473 715 l 473 597 l 37 597 l 37 715 l 229 873 q 268 909 252 892 q 294 943 284 926 q 309 978 304 960 q 313 1014 313 995 q 292 1077 313 1055 q 233 1099 271 1099 q 172 1078 199 1099 q 123 1010 146 1057 l 24 1073 q 242 1213 76 1213 z "},"³":{"ha":526,"x_min":24,"x_max":492,"o":"m 121 791 q 179 721 146 743 q 256 699 212 699 q 326 721 300 699 q 352 779 352 742 q 328 833 351 814 q 266 852 304 852 l 159 852 l 159 951 l 258 951 q 316 970 294 951 q 338 1026 338 990 q 316 1083 338 1063 q 254 1103 294 1103 q 185 1081 215 1103 q 132 1012 155 1059 l 36 1073 q 262 1213 87 1213 q 353 1201 313 1213 q 421 1167 393 1190 q 464 1114 449 1145 q 479 1044 479 1083 q 457 960 479 996 q 396 905 435 924 q 467 850 441 887 q 492 763 492 814 q 476 691 492 723 q 430 636 460 659 q 357 601 400 613 q 260 589 314 589 q 24 729 79 589 l 121 791 z "},"¹":{"ha":424,"x_min":43,"x_max":329,"o":"m 187 1063 l 43 998 l 43 1122 l 218 1200 l 329 1200 l 329 602 l 187 602 l 187 1063 z "},"ﬀ":{"ha":1215,"x_min":12,"x_max":1191,"o":"m 385 610 l 385 0 l 173 0 l 173 610 l 12 610 l 12 763 l 173 763 l 173 854 q 190 937 173 900 q 236 1001 206 975 q 306 1042 265 1027 q 393 1056 346 1056 l 627 1056 l 627 901 l 449 901 q 385 822 385 901 l 385 763 l 735 763 l 735 854 q 752 937 735 900 q 799 1001 769 975 q 868 1042 828 1027 q 956 1056 909 1056 l 1190 1056 l 1190 901 l 1012 901 q 947 822 947 901 l 947 763 l 1191 763 l 1191 610 l 947 610 l 947 0 l 735 0 l 735 610 l 385 610 z "}}}
